URWPalladioL-Ital.ufo
<glyph name="quotedbl" format="1">
  <advance width="500"/>
  <unicode hex="0022"/>
  <outline>
    <contour>
      <point x="170" y="508" type="line"/>
      <point x="140" y="508" type="line"/>
      <point x="202" y="695" type="line" smooth="yes"/>
      <point x="210" y="720"/>
      <point x="226" y="733"/>
      <point x="247" y="733" type="curve" smooth="yes"/>
      <point x="270" y="733"/>
      <point x="288" y="716"/>
      <point x="288" y="694" type="curve" smooth="yes"/>
      <point x="288" y="681"/>
      <point x="285" y="669"/>
      <point x="279" y="661" type="curve" smooth="yes"/>
    </contour>
    <contour>
      <point x="337" y="508" type="line"/>
      <point x="307" y="508" type="line"/>
      <point x="369" y="695" type="line" smooth="yes"/>
      <point x="377" y="720"/>
      <point x="393" y="733"/>
      <point x="414" y="733" type="curve" smooth="yes"/>
      <point x="437" y="733"/>
      <point x="455" y="716"/>
      <point x="455" y="694" type="curve" smooth="yes"/>
      <point x="455" y="681"/>
      <point x="452" y="669"/>
      <point x="446" y="661" type="curve" smooth="yes"/>
    </contour>
  </outline>
</glyph>
<glyph name="ampersand" format="1">
  <advance width="778"/>
  <unicode hex="0026"/>
  <outline>
    <contour>
      <point x="488" y="548" type="line"/>
      <point x="465" y="548" type="line"/>
      <point x="465" y="610" type="line"/>
      <point x="430" y="633"/>
      <point x="404" y="642"/>
      <point x="375" y="642" type="curve" smooth="yes"/>
      <point x="305" y="642"/>
      <point x="249" y="589"/>
      <point x="249" y="522" type="curve" smooth="yes"/>
      <point x="249" y="477"/>
      <point x="273" y="444"/>
      <point x="318" y="428" type="curve" smooth="yes"/>
      <point x="339" y="420"/>
      <point x="349" y="419"/>
      <point x="389" y="419" type="curve"/>
      <point x="381" y="401" type="line" smooth="yes"/>
      <point x="374" y="387"/>
      <point x="369" y="375"/>
      <point x="369" y="371" type="curve" smooth="yes"/>
      <point x="369" y="369" type="line"/>
      <point x="333" y="369" type="line" smooth="yes"/>
      <point x="213" y="369"/>
      <point x="130" y="297"/>
      <point x="130" y="194" type="curve" smooth="yes"/>
      <point x="130" y="96"/>
      <point x="212" y="29"/>
      <point x="333" y="29" type="curve" smooth="yes"/>
      <point x="456" y="29"/>
      <point x="564" y="109"/>
      <point x="564" y="199" type="curve" smooth="yes"/>
      <point x="564" y="252"/>
      <point x="527" y="288"/>
      <point x="474" y="288" type="curve" smooth="yes"/>
      <point x="427" y="288"/>
      <point x="412" y="271"/>
      <point x="397" y="205" type="curve"/>
      <point x="374" y="207" type="line"/>
      <point x="382" y="306" type="line"/>
      <point x="413" y="336"/>
      <point x="434" y="345"/>
      <point x="507" y="357" type="curve" smooth="yes"/>
      <point x="618" y="375" type="line" smooth="yes"/>
      <point x="695" y="388"/>
      <point x="731" y="413"/>
      <point x="731" y="456" type="curve" smooth="yes"/>
      <point x="731" y="481"/>
      <point x="723" y="492"/>
      <point x="693" y="508" type="curve"/>
      <point x="714" y="524" type="line"/>
      <point x="752" y="506"/>
      <point x="766" y="484"/>
      <point x="766" y="444" type="curve" smooth="yes"/>
      <point x="766" y="378"/>
      <point x="719" y="332"/>
      <point x="640" y="321" type="curve" smooth="yes"/>
      <point x="555" y="309" type="line"/>
      <point x="572" y="307" type="line" smooth="yes"/>
      <point x="604" y="304"/>
      <point x="634" y="262"/>
      <point x="634" y="223" type="curve" smooth="yes"/>
      <point x="634" y="151"/>
      <point x="569" y="74"/>
      <point x="463" y="22" type="curve"/>
      <point x="415" y="-3"/>
      <point x="347" y="-18"/>
      <point x="287" y="-18" type="curve" smooth="yes"/>
      <point x="140" y="-18"/>
      <point x="47" y="56"/>
      <point x="47" y="173" type="curve" smooth="yes"/>
      <point x="47" y="230"/>
      <point x="68" y="279"/>
      <point x="107" y="314" type="curve"/>
      <point x="144" y="345"/>
      <point x="175" y="362"/>
      <point x="256" y="390" type="curve"/>
      <point x="200" y="416"/>
      <point x="177" y="445"/>
      <point x="177" y="490" type="curve" smooth="yes"/>
      <point x="177" y="558"/>
      <point x="245" y="637"/>
      <point x="337" y="676" type="curve" smooth="yes"/>
      <point x="362" y="687"/>
      <point x="388" y="692"/>
      <point x="417" y="692" type="curve" smooth="yes"/>
      <point x="453" y="692"/>
      <point x="482" y="684"/>
      <point x="514" y="667" type="curve"/>
    </contour>
  </outline>
</glyph>
<glyph name="quotesingle" format="1">
  <advance width="333"/>
  <unicode hex="0027"/>
  <outline>
    <contour>
      <point x="170" y="508" type="line"/>
      <point x="140" y="508" type="line"/>
      <point x="202" y="695" type="line" smooth="yes"/>
      <point x="210" y="720"/>
      <point x="226" y="733"/>
      <point x="247" y="733" type="curve" smooth="yes"/>
      <point x="270" y="733"/>
      <point x="288" y="716"/>
      <point x="288" y="694" type="curve" smooth="yes"/>
      <point x="288" y="681"/>
      <point x="285" y="669"/>
      <point x="279" y="661" type="curve" smooth="yes"/>
    </contour>
  </outline>
</glyph>
<glyph name="parenleft" format="1">
  <advance width="333"/>
  <unicode hex="0028"/>
  <outline>
    <contour>
      <point x="308" y="733" type="curve"/>
      <point x="331" y="712" type="line"/>
      <point x="239" y="607"/>
      <point x="204" y="553"/>
      <point x="171" y="469" type="curve" smooth="yes"/>
      <point x="141" y="392"/>
      <point x="126" y="305"/>
      <point x="126" y="210" type="curve" smooth="yes"/>
      <point x="126" y="114"/>
      <point x="142" y="29"/>
      <point x="174" y="-38" type="curve" smooth="yes"/>
      <point x="200" y="-93" type="line"/>
      <point x="178" y="-106" type="line"/>
      <point x="116" y="-6"/>
      <point x="93" y="41"/>
      <point x="75" y="104" type="curve" smooth="yes"/>
      <point x="62" y="151"/>
      <point x="54" y="208"/>
      <point x="54" y="257" type="curve" smooth="yes"/>
      <point x="54" y="358"/>
      <point x="82" y="449"/>
      <point x="139" y="539" type="curve" smooth="yes"/>
      <point x="180" y="603"/>
      <point x="218" y="647"/>
    </contour>
  </outline>
</glyph>
<glyph name="asterisk" format="1">
  <advance width="389"/>
  <unicode hex="002A"/>
  <outline>
    <contour>
      <point x="76" y="608" type="line"/>
      <point x="109" y="665" type="line"/>
      <point x="119" y="665" type="line"/>
      <point x="223" y="560" type="line"/>
      <point x="245" y="701" type="line"/>
      <point x="255" y="706" type="line"/>
      <point x="318" y="688" type="line"/>
      <point x="318" y="680" type="line"/>
      <point x="247" y="549" type="line"/>
      <point x="387" y="574" type="line"/>
      <point x="394" y="569" type="line"/>
      <point x="400" y="511" type="line"/>
      <point x="394" y="505" type="line"/>
      <point x="249" y="524" type="line"/>
      <point x="314" y="404" type="line"/>
      <point x="310" y="396" type="line"/>
      <point x="252" y="368" type="line"/>
      <point x="245" y="372" type="line"/>
      <point x="223" y="514" type="line"/>
      <point x="116" y="417" type="line"/>
      <point x="104" y="417" type="line"/>
      <point x="78" y="474" type="line"/>
      <point x="82" y="481" type="line"/>
      <point x="209" y="537" type="line"/>
      <point x="81" y="599" type="line"/>
    </contour>
  </outline>
</glyph>
<glyph name="plus" format="1">
  <advance width="606"/>
  <unicode hex="002B"/>
  <outline>
    <contour>
      <point x="275" y="280" type="line"/>
      <point x="275" y="504" type="line"/>
      <point x="331" y="504" type="line"/>
      <point x="331" y="280" type="line"/>
      <point x="555" y="280" type="line"/>
      <point x="555" y="224" type="line"/>
      <point x="331" y="224" type="line"/>
      <point x="331" y="0" type="line"/>
      <point x="275" y="0" type="line"/>
      <point x="275" y="224" type="line"/>
      <point x="51" y="224" type="line"/>
      <point x="51" y="280" type="line"/>
    </contour>
  </outline>
</glyph>
<glyph name="comma" format="1">
  <advance width="250"/>
  <unicode hex="002C"/>
  <outline>
    <contour>
      <point x="15" y="-143" type="line"/>
      <point x="8" y="-133" type="line"/>
      <point x="48" y="-82"/>
      <point x="73" y="-27"/>
      <point x="95" y="62" type="curve" smooth="yes"/>
      <point x="103" y="94" type="line"/>
      <point x="194" y="123" type="line"/>
      <point x="203" y="110" type="line"/>
      <point x="169" y="31"/>
      <point x="123" y="-40"/>
      <point x="50" y="-130" type="curve"/>
    </contour>
  </outline>
</glyph>
<glyph name="hyphen" format="1">
  <advance width="333"/>
  <unicode hex="002D"/>
  <outline>
    <contour>
      <point x="19" y="223" type="line"/>
      <point x="38" y="281" type="line"/>
      <point x="304" y="281" type="line"/>
      <point x="286" y="223" type="line"/>
    </contour>
  </outline>
</glyph>
<glyph name="one" format="1">
  <advance width="500"/>
  <unicode hex="0031"/>
  <outline>
    <contour>
      <point x="374" y="688" type="line"/>
      <point x="350" y="573" type="line"/>
      <point x="276" y="136" type="line" smooth="yes"/>
      <point x="269" y="94"/>
      <point x="268" y="87"/>
      <point x="268" y="76" type="curve" smooth="yes"/>
      <point x="268" y="41"/>
      <point x="281" y="31"/>
      <point x="327" y="28" type="curve" smooth="yes"/>
      <point x="398" y="24" type="line"/>
      <point x="393" y="-3" type="line"/>
      <point x="324" y="-1"/>
      <point x="277" y="0"/>
      <point x="224" y="0" type="curve" smooth="yes"/>
      <point x="171" y="0"/>
      <point x="123" y="-1"/>
      <point x="54" y="-3" type="curve"/>
      <point x="59" y="24" type="line"/>
      <point x="144" y="34" type="line"/>
      <point x="175" y="39"/>
      <point x="183" y="50"/>
      <point x="192" y="102" type="curve" smooth="yes"/>
      <point x="278" y="629" type="line"/>
      <point x="242" y="615" type="line" smooth="yes"/>
      <point x="210" y="602"/>
      <point x="176" y="588"/>
      <point x="175" y="587" type="curve" smooth="yes"/>
      <point x="91" y="546" type="line"/>
      <point x="84" y="551" type="line"/>
      <point x="95" y="610" type="line"/>
      <point x="119" y="616" type="line" smooth="yes"/>
      <point x="191" y="634"/>
      <point x="221" y="642"/>
      <point x="259" y="658" type="curve" smooth="yes"/>
      <point x="359" y="699" type="line"/>
    </contour>
  </outline>
</glyph>
<glyph name="four" format="1">
  <advance width="500"/>
  <unicode hex="0034"/>
  <outline>
    <contour>
      <point x="15" y="223" type="line"/>
      <point x="352" y="684" type="line"/>
      <point x="421" y="699" type="line"/>
      <point x="429" y="694" type="line"/>
      <point x="346" y="248" type="line"/>
      <point x="474" y="248" type="line"/>
      <point x="478" y="243" type="line"/>
      <point x="462" y="188" type="line"/>
      <point x="444" y="189" type="line" smooth="yes"/>
      <point x="427" y="190"/>
      <point x="415" y="191"/>
      <point x="409" y="191" type="curve" smooth="yes"/>
      <point x="336" y="191" type="line"/>
      <point x="327" y="138" type="line" smooth="yes"/>
      <point x="321" y="103"/>
      <point x="318" y="75"/>
      <point x="318" y="54" type="curve" smooth="yes"/>
      <point x="318" y="42"/>
      <point x="327" y="37"/>
      <point x="354" y="34" type="curve" smooth="yes"/>
      <point x="441" y="24" type="line"/>
      <point x="436" y="-3" type="line"/>
      <point x="368" y="-1"/>
      <point x="322" y="0"/>
      <point x="271" y="0" type="curve" smooth="yes"/>
      <point x="219" y="0"/>
      <point x="172" y="-1"/>
      <point x="105" y="-3" type="curve"/>
      <point x="110" y="24" type="line"/>
      <point x="196" y="34" type="line" smooth="yes"/>
      <point x="229" y="38"/>
      <point x="239" y="48"/>
      <point x="248" y="90" type="curve" smooth="yes"/>
      <point x="268" y="192" type="line"/>
      <point x="15" y="192" type="line"/>
    </contour>
    <contour>
      <point x="345" y="621" type="line"/>
      <point x="75" y="248" type="line"/>
      <point x="278" y="248" type="line"/>
    </contour>
  </outline>
</glyph>
<glyph name="five" format="1">
  <advance width="500"/>
  <unicode hex="0035"/>
  <outline>
    <contour>
      <point x="115" y="329" type="curve"/>
      <point x="94" y="338" type="line"/>
      <point x="158" y="688" type="line"/>
      <point x="166" y="693" type="line"/>
      <point x="187" y="692" type="line"/>
      <point x="248" y="688"/>
      <point x="292" y="686"/>
      <point x="333" y="686" type="curve" smooth="yes"/>
      <point x="357" y="686"/>
      <point x="415" y="687"/>
      <point x="453" y="689" type="curve" smooth="yes"/>
      <point x="485" y="690" type="line"/>
      <point x="491" y="681" type="line"/>
      <point x="456" y="623" type="line"/>
      <point x="405" y="620"/>
      <point x="350" y="618"/>
      <point x="309" y="618" type="curve" smooth="yes"/>
      <point x="271" y="618"/>
      <point x="229" y="620"/>
      <point x="188" y="623" type="curve"/>
      <point x="137" y="382" type="line"/>
      <point x="177" y="418"/>
      <point x="220" y="434"/>
      <point x="276" y="434" type="curve" smooth="yes"/>
      <point x="379" y="434"/>
      <point x="445" y="368"/>
      <point x="445" y="266" type="curve" smooth="yes"/>
      <point x="445" y="223"/>
      <point x="431" y="172"/>
      <point x="407" y="128" type="curve" smooth="yes"/>
      <point x="360" y="41"/>
      <point x="270" y="-11"/>
      <point x="169" y="-11" type="curve" smooth="yes"/>
      <point x="106" y="-11"/>
      <point x="62" y="4"/>
      <point x="14" y="41" type="curve"/>
      <point x="23" y="73"/>
      <point x="32" y="115"/>
      <point x="43" y="180" type="curve"/>
      <point x="66" y="175" type="line"/>
      <point x="64" y="159"/>
      <point x="63" y="146"/>
      <point x="63" y="136" type="curve" smooth="yes"/>
      <point x="63" y="69"/>
      <point x="113" y="25"/>
      <point x="187" y="25" type="curve" smooth="yes"/>
      <point x="230" y="25"/>
      <point x="266" y="40"/>
      <point x="293" y="68" type="curve" smooth="yes"/>
      <point x="335" y="111"/>
      <point x="359" y="177"/>
      <point x="359" y="247" type="curve" smooth="yes"/>
      <point x="359" y="337"/>
      <point x="314" y="389"/>
      <point x="235" y="389" type="curve" smooth="yes"/>
      <point x="189" y="389"/>
      <point x="158" y="373"/>
    </contour>
  </outline>
</glyph>
<glyph name="seven" format="1">
  <advance width="500"/>
  <unicode hex="0037"/>
  <outline>
    <contour>
      <point x="53" y="5" type="line"/>
      <point x="74" y="37" type="line"/>
      <point x="154" y="164" type="line"/>
      <point x="432" y="613" type="line"/>
      <point x="190" y="613" type="line" smooth="yes"/>
      <point x="172" y="613"/>
      <point x="161" y="612"/>
      <point x="111" y="609" type="curve" smooth="yes"/>
      <point x="91" y="608" type="line"/>
      <point x="85" y="612" type="line"/>
      <point x="101" y="692" type="line"/>
      <point x="145" y="691"/>
      <point x="177" y="690"/>
      <point x="186" y="690" type="curve" smooth="yes"/>
      <point x="326" y="687" type="line"/>
      <point x="395" y="686" type="line"/>
      <point x="403" y="686" type="line" smooth="yes"/>
      <point x="420" y="686"/>
      <point x="446" y="687"/>
      <point x="480" y="688" type="curve"/>
      <point x="502" y="688" type="line"/>
      <point x="502" y="653" type="line"/>
      <point x="376" y="450" type="line" smooth="yes"/>
      <point x="297" y="323"/>
      <point x="214" y="163"/>
      <point x="140" y="-3" type="curve"/>
      <point x="116" y="-1"/>
      <point x="116" y="-1"/>
      <point x="102" y="0" type="curve" smooth="yes"/>
      <point x="96" y="0"/>
      <point x="89" y="0"/>
      <point x="77" y="-2" type="curve" smooth="yes"/>
      <point x="74" y="-2"/>
      <point x="67" y="-2"/>
      <point x="58" y="-3" type="curve"/>
    </contour>
  </outline>
</glyph>
<glyph name="eight" format="1">
  <advance width="500"/>
  <unicode hex="0038"/>
  <outline>
    <contour>
      <point x="217" y="352" type="curve"/>
      <point x="148" y="391"/>
      <point x="117" y="434"/>
      <point x="117" y="490" type="curve" smooth="yes"/>
      <point x="117" y="594"/>
      <point x="228" y="699"/>
      <point x="336" y="699" type="curve" smooth="yes"/>
      <point x="417" y="699"/>
      <point x="469" y="651"/>
      <point x="469" y="576" type="curve" smooth="yes"/>
      <point x="469" y="500"/>
      <point x="434" y="454"/>
      <point x="320" y="378" type="curve"/>
      <point x="407" y="330"/>
      <point x="431" y="297"/>
      <point x="431" y="228" type="curve" smooth="yes"/>
      <point x="431" y="102"/>
      <point x="316" y="-11"/>
      <point x="188" y="-11" type="curve" smooth="yes"/>
      <point x="96" y="-11"/>
      <point x="36" y="45"/>
      <point x="36" y="130" type="curve" smooth="yes"/>
      <point x="36" y="181"/>
      <point x="57" y="229"/>
      <point x="98" y="272" type="curve" smooth="yes"/>
      <point x="129" y="304"/>
      <point x="155" y="322"/>
    </contour>
    <contour>
      <point x="273" y="321" type="curve" smooth="yes"/>
      <point x="244" y="338" type="line"/>
      <point x="156" y="292"/>
      <point x="112" y="229"/>
      <point x="112" y="148" type="curve" smooth="yes"/>
      <point x="112" y="75"/>
      <point x="152" y="31"/>
      <point x="221" y="31" type="curve" smooth="yes"/>
      <point x="299" y="31"/>
      <point x="355" y="100"/>
      <point x="355" y="195" type="curve" smooth="yes"/>
      <point x="355" y="255"/>
      <point x="337" y="284"/>
    </contour>
    <contour>
      <point x="257" y="413" type="curve" smooth="yes"/>
      <point x="291" y="394" type="line"/>
      <point x="364" y="441"/>
      <point x="401" y="495"/>
      <point x="401" y="556" type="curve" smooth="yes"/>
      <point x="401" y="616"/>
      <point x="362" y="657"/>
      <point x="304" y="657" type="curve" smooth="yes"/>
      <point x="236" y="657"/>
      <point x="185" y="599"/>
      <point x="185" y="522" type="curve" smooth="yes"/>
      <point x="185" y="478"/>
      <point x="211" y="439"/>
    </contour>
  </outline>
</glyph>
<glyph name="less" format="1">
  <advance width="606"/>
  <unicode hex="003C"/>
  <outline>
    <contour>
      <point x="554" y="-2" type="line"/>
      <point x="53" y="232" type="line"/>
      <point x="53" y="290" type="line"/>
      <point x="554" y="524" type="line"/>
      <point x="554" y="460" type="line"/>
      <point x="125" y="259" type="line"/>
      <point x="554" y="62" type="line"/>
    </contour>
  </outline>
</glyph>
<glyph name="equal" format="1">
  <advance width="606"/>
  <unicode hex="003D"/>
  <outline>
    <contour>
      <point x="555" y="378" type="line"/>
      <point x="555" y="322" type="line"/>
      <point x="51" y="322" type="line"/>
      <point x="51" y="378" type="line"/>
    </contour>
    <contour>
      <point x="555" y="182" type="line"/>
      <point x="555" y="126" type="line"/>
      <point x="51" y="126" type="line"/>
      <point x="51" y="182" type="line"/>
    </contour>
  </outline>
</glyph>
<glyph name="question" format="1">
  <advance width="500"/>
  <unicode hex="003F"/>
  <outline>
    <contour>
      <point x="137" y="565" type="line"/>
      <point x="115" y="571" type="line"/>
      <point x="117" y="577"/>
      <point x="120" y="585"/>
      <point x="125" y="597" type="curve" smooth="yes"/>
      <point x="130" y="608" type="line"/>
      <point x="155" y="669" type="line"/>
      <point x="199" y="696"/>
      <point x="230" y="706"/>
      <point x="270" y="706" type="curve" smooth="yes"/>
      <point x="364" y="706"/>
      <point x="427" y="652"/>
      <point x="427" y="572" type="curve" smooth="yes"/>
      <point x="427" y="520"/>
      <point x="405" y="477"/>
      <point x="353" y="427" type="curve" smooth="yes"/>
      <point x="249" y="327" type="line" smooth="yes"/>
      <point x="211" y="291"/>
      <point x="199" y="272"/>
      <point x="199" y="250" type="curve" smooth="yes"/>
      <point x="199" y="233"/>
      <point x="207" y="219"/>
      <point x="226" y="199" type="curve"/>
      <point x="201" y="193" type="line"/>
      <point x="176" y="209"/>
      <point x="163" y="230"/>
      <point x="163" y="256" type="curve" smooth="yes"/>
      <point x="163" y="291"/>
      <point x="179" y="323"/>
      <point x="218" y="367" type="curve" smooth="yes"/>
      <point x="288" y="446" type="line" smooth="yes"/>
      <point x="326" y="489"/>
      <point x="345" y="527"/>
      <point x="345" y="562" type="curve" smooth="yes"/>
      <point x="345" y="611"/>
      <point x="303" y="647"/>
      <point x="246" y="647" type="curve" smooth="yes"/>
      <point x="205" y="647"/>
      <point x="183" y="634"/>
      <point x="157" y="595" type="curve" smooth="yes"/>
    </contour>
    <contour>
      <point x="174" y="109" type="curve" smooth="yes"/>
      <point x="199" y="109"/>
      <point x="219" y="88"/>
      <point x="219" y="61" type="curve" smooth="yes"/>
      <point x="219" y="24"/>
      <point x="191" y="-8"/>
      <point x="158" y="-8" type="curve" smooth="yes"/>
      <point x="131" y="-8"/>
      <point x="114" y="10"/>
      <point x="114" y="39" type="curve" smooth="yes"/>
      <point x="114" y="77"/>
      <point x="141" y="109"/>
    </contour>
  </outline>
</glyph>
<glyph name="K" format="1">
  <advance width="667"/>
  <unicode hex="004B"/>
  <outline>
    <contour>
      <point x="371" y="664" type="line"/>
      <point x="329" y="661" type="line" smooth="yes"/>
      <point x="292" y="658"/>
      <point x="285" y="651"/>
      <point x="278" y="613" type="curve" smooth="yes"/>
      <point x="233" y="353" type="line"/>
      <point x="297" y="403"/>
      <point x="338" y="439"/>
      <point x="382" y="484" type="curve" smooth="yes"/>
      <point x="510" y="614" type="line" smooth="yes"/>
      <point x="538" y="642"/>
      <point x="548" y="655"/>
      <point x="548" y="663" type="curve" smooth="yes"/>
      <point x="548" y="692" type="line"/>
      <point x="568" y="691" type="line" smooth="yes"/>
      <point x="589" y="690"/>
      <point x="605" y="689"/>
      <point x="615" y="689" type="curve" smooth="yes"/>
      <point x="623" y="689"/>
      <point x="639" y="690"/>
      <point x="660" y="691" type="curve" smooth="yes"/>
      <point x="683" y="692" type="line"/>
      <point x="683" y="665" type="line"/>
      <point x="662" y="665" type="line" smooth="yes"/>
      <point x="645" y="665"/>
      <point x="624" y="655"/>
      <point x="608" y="640" type="curve" smooth="yes"/>
      <point x="316" y="367" type="line"/>
      <point x="562" y="65" type="line" smooth="yes"/>
      <point x="583" y="39"/>
      <point x="603" y="27"/>
      <point x="626" y="27" type="curve" smooth="yes"/>
      <point x="646" y="27" type="line"/>
      <point x="646" y="-3" type="line"/>
      <point x="620" y="-2"/>
      <point x="614" y="-1"/>
      <point x="578" y="0" type="curve"/>
      <point x="509" y="-3" type="line"/>
      <point x="404" y="140"/>
      <point x="381" y="169"/>
      <point x="231" y="340" type="curve"/>
      <point x="188" y="78" type="line" smooth="yes"/>
      <point x="187" y="74"/>
      <point x="186" y="63"/>
      <point x="186" y="57" type="curve" smooth="yes"/>
      <point x="186" y="37"/>
      <point x="195" y="30"/>
      <point x="222" y="28" type="curve" smooth="yes"/>
      <point x="271" y="25" type="line"/>
      <point x="268" y="-3" type="line"/>
      <point x="242" y="-3" type="line"/>
      <point x="145" y="0" type="line" smooth="yes"/>
      <point x="126" y="0"/>
      <point x="103" y="-1"/>
      <point x="55" y="-2" type="curve" smooth="yes"/>
      <point x="13" y="-3" type="line"/>
      <point x="17" y="25" type="line"/>
      <point x="58" y="28" type="line"/>
      <point x="98" y="32"/>
      <point x="99" y="33"/>
      <point x="116" y="125" type="curve"/>
      <point x="189" y="559" type="line" smooth="yes"/>
      <point x="195" y="592"/>
      <point x="198" y="621"/>
      <point x="198" y="635" type="curve" smooth="yes"/>
      <point x="198" y="653"/>
      <point x="187" y="661"/>
      <point x="163" y="662" type="curve" smooth="yes"/>
      <point x="116" y="664" type="line"/>
      <point x="119" y="692" type="line"/>
      <point x="183" y="690" type="line" smooth="yes"/>
      <point x="226" y="689"/>
      <point x="244" y="689"/>
      <point x="260" y="689" type="curve" smooth="yes"/>
      <point x="350" y="692" type="line"/>
      <point x="374" y="692" type="line"/>
    </contour>
  </outline>
</glyph>
<glyph name="L" format="1">
  <advance width="556"/>
  <unicode hex="004C"/>
  <outline>
    <contour>
      <point x="349" y="664" type="line"/>
      <point x="307" y="661" type="line" smooth="yes"/>
      <point x="270" y="658"/>
      <point x="263" y="651"/>
      <point x="256" y="613" type="curve" smooth="yes"/>
      <point x="164" y="81" type="line" smooth="yes"/>
      <point x="163" y="72"/>
      <point x="162" y="64"/>
      <point x="162" y="50" type="curve" smooth="yes"/>
      <point x="162" y="46" type="line"/>
      <point x="228" y="40"/>
      <point x="255" y="39"/>
      <point x="304" y="39" type="curve" smooth="yes"/>
      <point x="371" y="39"/>
      <point x="435" y="44"/>
      <point x="448" y="49" type="curve"/>
      <point x="457" y="54"/>
      <point x="466" y="71"/>
      <point x="475" y="103" type="curve" smooth="yes"/>
      <point x="492" y="165" type="line"/>
      <point x="523" y="165" type="line"/>
      <point x="510" y="103"/>
      <point x="499" y="25"/>
      <point x="500" y="0" type="curve"/>
      <point x="467" y="-1" type="line" smooth="yes"/>
      <point x="434" y="-2"/>
      <point x="409" y="-3"/>
      <point x="395" y="-3" type="curve" smooth="yes"/>
      <point x="385" y="-3" type="line"/>
      <point x="170" y="0" type="line" smooth="yes"/>
      <point x="150" y="0"/>
      <point x="88" y="-1"/>
      <point x="57" y="-2" type="curve" smooth="yes"/>
      <point x="16" y="-3" type="line"/>
      <point x="21" y="23" type="line"/>
      <point x="65" y="30"/>
      <point x="77" y="37"/>
      <point x="81" y="55" type="curve" smooth="yes"/>
      <point x="167" y="559" type="line" smooth="yes"/>
      <point x="172" y="590"/>
      <point x="176" y="621"/>
      <point x="176" y="635" type="curve" smooth="yes"/>
      <point x="176" y="653"/>
      <point x="165" y="661"/>
      <point x="141" y="662" type="curve" smooth="yes"/>
      <point x="94" y="664" type="line"/>
      <point x="97" y="692" type="line"/>
      <point x="161" y="690" type="line" smooth="yes"/>
      <point x="204" y="689"/>
      <point x="222" y="689"/>
      <point x="238" y="689" type="curve" smooth="yes"/>
      <point x="328" y="692" type="line"/>
      <point x="352" y="692" type="line"/>
    </contour>
  </outline>
</glyph>
<glyph name="N" format="1">
  <advance width="778"/>
  <unicode hex="004E"/>
  <outline>
    <contour>
      <point x="237" y="692" type="line"/>
      <point x="582" y="103" type="line"/>
      <point x="662" y="592" type="line" smooth="yes"/>
      <point x="664" y="605"/>
      <point x="667" y="631"/>
      <point x="667" y="638" type="curve" smooth="yes"/>
      <point x="667" y="654"/>
      <point x="657" y="661"/>
      <point x="631" y="662" type="curve" smooth="yes"/>
      <point x="584" y="664" type="line"/>
      <point x="589" y="692" type="line"/>
      <point x="608" y="692" type="line"/>
      <point x="694" y="689" type="line"/>
      <point x="783" y="692" type="line"/>
      <point x="804" y="692" type="line"/>
      <point x="799" y="664" type="line"/>
      <point x="762" y="662" type="line" smooth="yes"/>
      <point x="725" y="659"/>
      <point x="723" y="655"/>
      <point x="702" y="542" type="curve"/>
      <point x="608" y="-11" type="line"/>
      <point x="558" y="-11" type="line"/>
      <point x="220" y="566" type="line"/>
      <point x="140" y="102" type="line" smooth="yes"/>
      <point x="138" y="91"/>
      <point x="137" y="80"/>
      <point x="137" y="72" type="curve" smooth="yes"/>
      <point x="137" y="39"/>
      <point x="146" y="31"/>
      <point x="186" y="28" type="curve" smooth="yes"/>
      <point x="228" y="25" type="line"/>
      <point x="223" y="-3" type="line"/>
      <point x="126" y="0"/>
      <point x="125" y="0"/>
      <point x="113" y="0" type="curve" smooth="yes"/>
      <point x="2" y="-3" type="line"/>
      <point x="7" y="25" type="line"/>
      <point x="38" y="28" type="line" smooth="yes"/>
      <point x="74" y="32"/>
      <point x="80" y="40"/>
      <point x="92" y="102" type="curve" smooth="yes"/>
      <point x="180" y="576" type="line" smooth="yes"/>
      <point x="181" y="579"/>
      <point x="182" y="586"/>
      <point x="183" y="594" type="curve" smooth="yes"/>
      <point x="184" y="596"/>
      <point x="184" y="598"/>
      <point x="184" y="599" type="curve" smooth="yes"/>
      <point x="185" y="602"/>
      <point x="185" y="605"/>
      <point x="185" y="606" type="curve" smooth="yes"/>
      <point x="185" y="614"/>
      <point x="170" y="633"/>
      <point x="155" y="645" type="curve" smooth="yes"/>
      <point x="144" y="654"/>
      <point x="122" y="661"/>
      <point x="105" y="662" type="curve" smooth="yes"/>
      <point x="70" y="664" type="line"/>
      <point x="75" y="692" type="line"/>
      <point x="91" y="691" type="line" smooth="yes"/>
      <point x="114" y="690"/>
      <point x="129" y="689"/>
      <point x="132" y="689" type="curve" smooth="yes"/>
      <point x="146" y="689" type="line"/>
      <point x="156" y="689" type="line"/>
    </contour>
  </outline>
</glyph>
<glyph name="V" format="1">
  <advance width="722"/>
  <unicode hex="0056"/>
  <outline>
    <contour>
      <point x="310" y="96" type="line"/>
      <point x="601" y="588" type="line" smooth="yes"/>
      <point x="613" y="608"/>
      <point x="617" y="619"/>
      <point x="617" y="630" type="curve" smooth="yes"/>
      <point x="617" y="649"/>
      <point x="598" y="659"/>
      <point x="560" y="662" type="curve" smooth="yes"/>
      <point x="534" y="664" type="line"/>
      <point x="534" y="692" type="line"/>
      <point x="580" y="691" type="line" smooth="yes"/>
      <point x="621" y="690"/>
      <point x="648" y="689"/>
      <point x="658" y="689" type="curve" smooth="yes"/>
      <point x="674" y="689"/>
      <point x="697" y="690"/>
      <point x="724" y="691" type="curve" smooth="yes"/>
      <point x="754" y="692" type="line"/>
      <point x="754" y="664" type="line"/>
      <point x="736" y="662" type="line" smooth="yes"/>
      <point x="707" y="658"/>
      <point x="699" y="651"/>
      <point x="674" y="611" type="curve" smooth="yes"/>
      <point x="296" y="-8" type="line"/>
      <point x="247" y="-8" type="line"/>
      <point x="159" y="614" type="line"/>
      <point x="152" y="651"/>
      <point x="144" y="659"/>
      <point x="100" y="662" type="curve" smooth="yes"/>
      <point x="75" y="664" type="line"/>
      <point x="75" y="692" type="line"/>
      <point x="116" y="691" type="line" smooth="yes"/>
      <point x="153" y="690"/>
      <point x="181" y="689"/>
      <point x="199" y="689" type="curve" smooth="yes"/>
      <point x="217" y="689"/>
      <point x="245" y="690"/>
      <point x="282" y="691" type="curve" smooth="yes"/>
      <point x="323" y="692" type="line"/>
      <point x="323" y="664" type="line"/>
      <point x="281" y="662" type="line" smooth="yes"/>
      <point x="251" y="661"/>
      <point x="236" y="650"/>
      <point x="238" y="631" type="curve" smooth="yes"/>
      <point x="239" y="624" type="line"/>
    </contour>
  </outline>
</glyph>
<glyph name="bracketright" format="1">
  <advance width="333"/>
  <unicode hex="005D"/>
  <outline>
    <contour>
      <point x="7" y="-100" type="line"/>
      <point x="7" y="-72" type="line"/>
      <point x="95" y="-65" type="line" smooth="yes"/>
      <point x="108" y="-64"/>
      <point x="111" y="-58"/>
      <point x="116" y="-34" type="curve" smooth="yes"/>
      <point x="132" y="51" type="line" smooth="yes"/>
      <point x="146" y="126"/>
      <point x="174" y="309"/>
      <point x="198" y="473" type="curve" smooth="yes"/>
      <point x="204" y="516"/>
      <point x="209" y="552"/>
      <point x="210" y="557" type="curve" smooth="yes"/>
      <point x="217" y="601"/>
      <point x="222" y="632"/>
      <point x="223" y="642" type="curve" smooth="yes"/>
      <point x="223" y="644"/>
      <point x="223" y="644"/>
      <point x="224" y="647" type="curve" smooth="yes"/>
      <point x="226" y="658"/>
      <point x="227" y="671"/>
      <point x="227" y="677" type="curve" smooth="yes"/>
      <point x="227" y="689"/>
      <point x="218" y="696"/>
      <point x="199" y="698" type="curve" smooth="yes"/>
      <point x="120" y="705" type="line"/>
      <point x="125" y="733" type="line"/>
      <point x="167" y="731" type="line" smooth="yes"/>
      <point x="187" y="730"/>
      <point x="204" y="730"/>
      <point x="219" y="730" type="curve" smooth="yes"/>
      <point x="280" y="731" type="line"/>
      <point x="313" y="733" type="line"/>
      <point x="315" y="728" type="line"/>
      <point x="264" y="443" type="line" smooth="yes"/>
      <point x="237" y="292"/>
      <point x="196" y="-1"/>
      <point x="187" y="-96" type="curve"/>
      <point x="179" y="-100" type="line"/>
      <point x="162" y="-100" type="line" smooth="yes"/>
      <point x="161" y="-100"/>
      <point x="151" y="-100"/>
      <point x="138" y="-99" type="curve" smooth="yes"/>
      <point x="93" y="-98" type="line"/>
      <point x="47" y="-99" type="line" smooth="yes"/>
      <point x="34" y="-100"/>
      <point x="25" y="-100"/>
      <point x="24" y="-100" type="curve" smooth="yes"/>
    </contour>
  </outline>
</glyph>
<glyph name="grave" format="1">
  <advance width="333"/>
  <unicode hex="0060"/>
  <outline>
    <contour>
      <point x="276" y="518" type="line"/>
      <point x="114" y="619" type="line" smooth="yes"/>
      <point x="93" y="632"/>
      <point x="86" y="641"/>
      <point x="86" y="656" type="curve" smooth="yes"/>
      <point x="86" y="673"/>
      <point x="104" y="687"/>
      <point x="124" y="687" type="curve" smooth="yes"/>
      <point x="134" y="687"/>
      <point x="145" y="680"/>
      <point x="157" y="669" type="curve" smooth="yes"/>
      <point x="310" y="518" type="line"/>
    </contour>
  </outline>
</glyph>
<glyph name="b" format="1">
  <advance width="463"/>
  <unicode hex="0062"/>
  <outline>
    <contour>
      <point x="235" y="722" type="line"/>
      <point x="149" y="324" type="line"/>
      <point x="211" y="403"/>
      <point x="244" y="433"/>
      <point x="295" y="460" type="curve" smooth="yes"/>
      <point x="323" y="474"/>
      <point x="353" y="482"/>
      <point x="377" y="482" type="curve" smooth="yes"/>
      <point x="392" y="482"/>
      <point x="405" y="477"/>
      <point x="412" y="468" type="curve" smooth="yes"/>
      <point x="424" y="453"/>
      <point x="433" y="414"/>
      <point x="433" y="376" type="curve" smooth="yes"/>
      <point x="433" y="244"/>
      <point x="367" y="107"/>
      <point x="271" y="39" type="curve" smooth="yes"/>
      <point x="228" y="8"/>
      <point x="177" y="-11"/>
      <point x="140" y="-11" type="curve" smooth="yes"/>
      <point x="85" y="-11"/>
      <point x="37" y="22"/>
      <point x="37" y="61" type="curve" smooth="yes"/>
      <point x="37" y="64"/>
      <point x="37" y="68"/>
      <point x="38" y="71" type="curve" smooth="yes"/>
      <point x="139" y="622" type="line" smooth="yes"/>
      <point x="140" y="628"/>
      <point x="141" y="639"/>
      <point x="141" y="646" type="curve" smooth="yes"/>
      <point x="141" y="663"/>
      <point x="131" y="670"/>
      <point x="107" y="670" type="curve" smooth="yes"/>
      <point x="59" y="670" type="line"/>
      <point x="63" y="691" type="line"/>
      <point x="135" y="698"/>
      <point x="171" y="707"/>
      <point x="223" y="733" type="curve"/>
    </contour>
    <contour>
      <point x="322" y="424" type="curve" smooth="yes"/>
      <point x="293" y="424"/>
      <point x="241" y="395"/>
      <point x="208" y="361" type="curve" smooth="yes"/>
      <point x="168" y="319"/>
      <point x="144" y="271"/>
      <point x="125" y="191" type="curve" smooth="yes"/>
      <point x="116" y="154"/>
      <point x="112" y="126"/>
      <point x="112" y="101" type="curve" smooth="yes"/>
      <point x="112" y="59"/>
      <point x="137" y="36"/>
      <point x="183" y="36" type="curve" smooth="yes"/>
      <point x="237" y="36"/>
      <point x="277" y="68"/>
      <point x="310" y="137" type="curve" smooth="yes"/>
      <point x="340" y="202"/>
      <point x="361" y="288"/>
      <point x="361" y="352" type="curve" smooth="yes"/>
      <point x="361" y="401"/>
      <point x="348" y="424"/>
    </contour>
  </outline>
</glyph>
<glyph name="j" format="1">
  <advance width="278"/>
  <unicode hex="006A"/>
  <outline>
    <contour>
      <point x="-70" y="-269" type="curve"/>
      <point x="-62" y="-212" type="line"/>
      <point x="-41" y="-225"/>
      <point x="-23" y="-231"/>
      <point x="-9" y="-231" type="curve" smooth="yes"/>
      <point x="9" y="-231"/>
      <point x="27" y="-196"/>
      <point x="38" y="-144" type="curve" smooth="yes"/>
      <point x="138" y="351" type="line" smooth="yes"/>
      <point x="138" y="353"/>
      <point x="139" y="357"/>
      <point x="140" y="363" type="curve" smooth="yes"/>
      <point x="143" y="374"/>
      <point x="145" y="387"/>
      <point x="145" y="391" type="curve" smooth="yes"/>
      <point x="145" y="404"/>
      <point x="137" y="414"/>
      <point x="127" y="414" type="curve" smooth="yes"/>
      <point x="120" y="414"/>
      <point x="117" y="412"/>
      <point x="80" y="389" type="curve"/>
      <point x="48" y="368" type="line"/>
      <point x="41" y="388" type="line"/>
      <point x="69" y="408" type="line" smooth="yes"/>
      <point x="144" y="461"/>
      <point x="181" y="482"/>
      <point x="203" y="482" type="curve" smooth="yes"/>
      <point x="219" y="482"/>
      <point x="228" y="473"/>
      <point x="228" y="457" type="curve" smooth="yes"/>
      <point x="228" y="451"/>
      <point x="226" y="438"/>
      <point x="222" y="420" type="curve" smooth="yes"/>
      <point x="146" y="70" type="line" smooth="yes"/>
      <point x="118" y="-57"/>
      <point x="104" y="-107"/>
      <point x="84" y="-152" type="curve" smooth="yes"/>
      <point x="48" y="-233"/>
      <point x="8" y="-276"/>
      <point x="-32" y="-276" type="curve" smooth="yes"/>
      <point x="-47" y="-276"/>
      <point x="-60" y="-274"/>
    </contour>
    <contour>
      <point x="229" y="712" type="curve" smooth="yes"/>
      <point x="250" y="712"/>
      <point x="265" y="695"/>
      <point x="265" y="671" type="curve" smooth="yes"/>
      <point x="265" y="633"/>
      <point x="241" y="604"/>
      <point x="210" y="604" type="curve" smooth="yes"/>
      <point x="186" y="604"/>
      <point x="171" y="620"/>
      <point x="171" y="645" type="curve" smooth="yes"/>
      <point x="171" y="679"/>
      <point x="200" y="712"/>
    </contour>
  </outline>
</glyph>
<glyph name="l" format="1">
  <advance width="278"/>
  <unicode hex="006C"/>
  <outline>
    <contour>
      <point x="251" y="722" type="line"/>
      <point x="122" y="113" type="line"/>
      <point x="120" y="104" type="line" smooth="yes"/>
      <point x="117" y="89"/>
      <point x="116" y="82"/>
      <point x="116" y="76" type="curve" smooth="yes"/>
      <point x="116" y="66"/>
      <point x="122" y="56"/>
      <point x="129" y="56" type="curve" smooth="yes"/>
      <point x="139" y="56"/>
      <point x="161" y="67"/>
      <point x="190" y="86" type="curve" smooth="yes"/>
      <point x="216" y="103" type="line"/>
      <point x="226" y="85" type="line"/>
      <point x="128" y="12"/>
      <point x="92" y="-9"/>
      <point x="66" y="-9" type="curve" smooth="yes"/>
      <point x="47" y="-9"/>
      <point x="36" y="6"/>
      <point x="36" y="31" type="curve" smooth="yes"/>
      <point x="36" y="52"/>
      <point x="42" y="82"/>
      <point x="55" y="132" type="curve" smooth="yes"/>
      <point x="69" y="184" type="line"/>
      <point x="84" y="234"/>
      <point x="145" y="545"/>
      <point x="151" y="600" type="curve"/>
      <point x="154" y="622" type="line" smooth="yes"/>
      <point x="157" y="640"/>
      <point x="157" y="645"/>
      <point x="157" y="648" type="curve" smooth="yes"/>
      <point x="157" y="663"/>
      <point x="147" y="670"/>
      <point x="123" y="670" type="curve" smooth="yes"/>
      <point x="75" y="670" type="line"/>
      <point x="79" y="691" type="line"/>
      <point x="151" y="698"/>
      <point x="187" y="707"/>
      <point x="239" y="733" type="curve"/>
    </contour>
  </outline>
</glyph>
<glyph name="p" format="1">
  <advance width="500"/>
  <unicode hex="0070"/>
  <outline>
    <contour>
      <point x="115" y="3" type="line"/>
      <point x="73" y="-259" type="line"/>
      <point x="41" y="-264"/>
      <point x="21" y="-269"/>
      <point x="0" y="-276" type="curve"/>
      <point x="-7" y="-270" type="line"/>
      <point x="1" y="-233" type="line" smooth="yes"/>
      <point x="21" y="-143"/>
      <point x="40" y="-52"/>
      <point x="50" y="8" type="curve" smooth="yes"/>
      <point x="108" y="351" type="line" smooth="yes"/>
      <point x="110" y="361"/>
      <point x="112" y="381"/>
      <point x="112" y="389" type="curve" smooth="yes"/>
      <point x="112" y="403"/>
      <point x="105" y="412"/>
      <point x="95" y="412" type="curve" smooth="yes"/>
      <point x="86" y="412"/>
      <point x="75" y="407"/>
      <point x="47" y="389" type="curve" smooth="yes"/>
      <point x="15" y="368" type="line"/>
      <point x="8" y="388" type="line"/>
      <point x="36" y="408" type="line" smooth="yes"/>
      <point x="110" y="461"/>
      <point x="148" y="482"/>
      <point x="169" y="482" type="curve" smooth="yes"/>
      <point x="183" y="482"/>
      <point x="191" y="471"/>
      <point x="191" y="452" type="curve" smooth="yes"/>
      <point x="191" y="440"/>
      <point x="189" y="425"/>
      <point x="186" y="408" type="curve" smooth="yes"/>
      <point x="162" y="289" type="line"/>
      <point x="198" y="348"/>
      <point x="218" y="374"/>
      <point x="259" y="409" type="curve"/>
      <point x="311" y="456"/>
      <point x="364" y="482"/>
      <point x="406" y="482" type="curve" smooth="yes"/>
      <point x="442" y="482"/>
      <point x="465" y="438"/>
      <point x="465" y="371" type="curve" smooth="yes"/>
      <point x="465" y="296"/>
      <point x="431" y="186"/>
      <point x="390" y="125" type="curve" smooth="yes"/>
      <point x="347" y="62"/>
      <point x="232" y="-11"/>
      <point x="176" y="-11" type="curve" smooth="yes"/>
      <point x="165" y="-11"/>
      <point x="150" y="-8"/>
      <point x="124" y="0" type="curve" smooth="yes"/>
    </contour>
    <contour>
      <point x="143" y="165" type="curve" smooth="yes"/>
      <point x="125" y="59" type="line"/>
      <point x="151" y="43"/>
      <point x="176" y="36"/>
      <point x="207" y="36" type="curve" smooth="yes"/>
      <point x="248" y="36"/>
      <point x="280" y="51"/>
      <point x="300" y="80" type="curve" smooth="yes"/>
      <point x="353" y="156"/>
      <point x="393" y="275"/>
      <point x="393" y="356" type="curve" smooth="yes"/>
      <point x="393" y="402"/>
      <point x="381" y="424"/>
      <point x="355" y="424" type="curve" smooth="yes"/>
      <point x="272" y="424"/>
      <point x="165" y="293"/>
    </contour>
  </outline>
</glyph>
<glyph name="r" format="1">
  <advance width="389"/>
  <unicode hex="0072"/>
  <outline>
    <contour>
      <point x="368" y="365" type="curve"/>
      <point x="354" y="365" type="line"/>
      <point x="343" y="379"/>
      <point x="333" y="384"/>
      <point x="318" y="384" type="curve" smooth="yes"/>
      <point x="296" y="384"/>
      <point x="269" y="363"/>
      <point x="235" y="319" type="curve" smooth="yes"/>
      <point x="191" y="262"/>
      <point x="168" y="209"/>
      <point x="150" y="126" type="curve" smooth="yes"/>
      <point x="124" y="6" type="line"/>
      <point x="111" y="4" type="line"/>
      <point x="88" y="-1"/>
      <point x="72" y="-4"/>
      <point x="57" y="-9" type="curve"/>
      <point x="47" y="-2" type="line"/>
      <point x="87" y="126"/>
      <point x="130" y="332"/>
      <point x="130" y="390" type="curve" smooth="yes"/>
      <point x="130" y="403"/>
      <point x="123" y="412"/>
      <point x="113" y="412" type="curve" smooth="yes"/>
      <point x="104" y="412"/>
      <point x="93" y="407"/>
      <point x="65" y="389" type="curve" smooth="yes"/>
      <point x="33" y="368" type="line"/>
      <point x="26" y="388" type="line"/>
      <point x="54" y="408" type="line" smooth="yes"/>
      <point x="128" y="461"/>
      <point x="166" y="482"/>
      <point x="187" y="482" type="curve" smooth="yes"/>
      <point x="202" y="482"/>
      <point x="210" y="470"/>
      <point x="210" y="450" type="curve" smooth="yes"/>
      <point x="210" y="438"/>
      <point x="208" y="425"/>
      <point x="204" y="408" type="curve" smooth="yes"/>
      <point x="198" y="382" type="line" smooth="yes"/>
      <point x="192" y="360"/>
      <point x="184" y="320"/>
      <point x="180" y="297" type="curve" smooth="yes"/>
      <point x="172" y="256" type="line"/>
      <point x="188" y="291"/>
      <point x="200" y="312"/>
      <point x="239" y="368" type="curve" smooth="yes"/>
      <point x="266" y="407" type="line" smooth="yes"/>
      <point x="302" y="458"/>
      <point x="333" y="482"/>
      <point x="364" y="482" type="curve" smooth="yes"/>
      <point x="369" y="482"/>
      <point x="373" y="481"/>
      <point x="384" y="476" type="curve"/>
      <point x="376" y="435"/>
      <point x="371" y="403"/>
    </contour>
  </outline>
</glyph>
<glyph name="v" format="1">
  <advance width="500"/>
  <unicode hex="0076"/>
  <outline>
    <contour>
      <point x="332" y="423" type="line"/>
      <point x="382" y="470" type="line" smooth="yes"/>
      <point x="390" y="478"/>
      <point x="402" y="482"/>
      <point x="415" y="482" type="curve" smooth="yes"/>
      <point x="451" y="482"/>
      <point x="477" y="441"/>
      <point x="477" y="384" type="curve" smooth="yes"/>
      <point x="477" y="344"/>
      <point x="460" y="277"/>
      <point x="438" y="227" type="curve" smooth="yes"/>
      <point x="407" y="158"/>
      <point x="359" y="91"/>
      <point x="312" y="48" type="curve" smooth="yes"/>
      <point x="266" y="7"/>
      <point x="228" y="-11"/>
      <point x="186" y="-11" type="curve" smooth="yes"/>
      <point x="122" y="-11"/>
      <point x="76" y="44"/>
      <point x="76" y="121" type="curve" smooth="yes"/>
      <point x="76" y="221"/>
      <point x="118" y="304"/>
      <point x="229" y="424" type="curve"/>
      <point x="203" y="421"/>
      <point x="187" y="420"/>
      <point x="166" y="420" type="curve" smooth="yes"/>
      <point x="153" y="420"/>
      <point x="146" y="420"/>
      <point x="138" y="421" type="curve" smooth="yes"/>
      <point x="125" y="422"/>
      <point x="116" y="422"/>
      <point x="111" y="422" type="curve" smooth="yes"/>
      <point x="87" y="422"/>
      <point x="67" y="411"/>
      <point x="60" y="394" type="curve" smooth="yes"/>
      <point x="43" y="352" type="line"/>
      <point x="21" y="352" type="line"/>
      <point x="34" y="407"/>
      <point x="45" y="443"/>
      <point x="59" y="470" type="curve"/>
      <point x="70" y="475"/>
      <point x="79" y="477"/>
      <point x="91" y="477" type="curve" smooth="yes"/>
      <point x="92" y="477"/>
      <point x="97" y="477"/>
      <point x="103" y="476" type="curve" smooth="yes"/>
      <point x="115" y="475" type="line" smooth="yes"/>
      <point x="144" y="472"/>
      <point x="186" y="470"/>
      <point x="214" y="470" type="curve" smooth="yes"/>
      <point x="242" y="470"/>
      <point x="255" y="473"/>
      <point x="275" y="482" type="curve"/>
      <point x="285" y="464" type="line"/>
      <point x="187" y="342"/>
      <point x="148" y="251"/>
      <point x="148" y="146" type="curve" smooth="yes"/>
      <point x="148" y="81"/>
      <point x="179" y="39"/>
      <point x="228" y="39" type="curve" smooth="yes"/>
      <point x="316" y="39"/>
      <point x="413" y="202"/>
      <point x="413" y="350" type="curve" smooth="yes"/>
      <point x="413" y="390"/>
      <point x="397" y="413"/>
      <point x="370" y="413" type="curve" smooth="yes"/>
      <point x="361" y="413"/>
      <point x="352" y="410"/>
      <point x="343" y="404" type="curve"/>
    </contour>
  </outline>
</glyph>
<glyph name="x" format="1">
  <advance width="500"/>
  <unicode hex="0078"/>
  <outline>
    <contour>
      <point x="21" y="88" type="curve"/>
      <point x="41" y="91" type="line"/>
      <point x="52" y="63" type="line" smooth="yes"/>
      <point x="54" y="58"/>
      <point x="65" y="54"/>
      <point x="80" y="54" type="curve" smooth="yes"/>
      <point x="108" y="54"/>
      <point x="142" y="86"/>
      <point x="185" y="153" type="curve" smooth="yes"/>
      <point x="225" y="215" type="line"/>
      <point x="214" y="277" type="line" smooth="yes"/>
      <point x="197" y="375"/>
      <point x="175" y="416"/>
      <point x="142" y="416" type="curve" smooth="yes"/>
      <point x="123" y="416"/>
      <point x="103" y="402"/>
      <point x="73" y="368" type="curve"/>
      <point x="56" y="378" type="line"/>
      <point x="114" y="461" type="line" smooth="yes"/>
      <point x="123" y="474"/>
      <point x="145" y="482"/>
      <point x="171" y="482" type="curve" smooth="yes"/>
      <point x="230" y="482"/>
      <point x="257" y="446"/>
      <point x="269" y="347" type="curve" smooth="yes"/>
      <point x="275" y="299" type="line"/>
      <point x="312" y="354" type="line" smooth="yes"/>
      <point x="374" y="446"/>
      <point x="414" y="482"/>
      <point x="454" y="482" type="curve" smooth="yes"/>
      <point x="463" y="482"/>
      <point x="472" y="479"/>
      <point x="484" y="472" type="curve"/>
      <point x="469" y="387" type="line"/>
      <point x="455" y="383" type="line"/>
      <point x="450" y="398"/>
      <point x="438" y="406"/>
      <point x="422" y="406" type="curve" smooth="yes"/>
      <point x="391" y="406"/>
      <point x="364" y="383"/>
      <point x="317" y="318" type="curve" smooth="yes"/>
      <point x="282" y="269" type="line"/>
      <point x="300" y="168" type="line" smooth="yes"/>
      <point x="305" y="139"/>
      <point x="316" y="102"/>
      <point x="325" y="83" type="curve" smooth="yes"/>
      <point x="335" y="63"/>
      <point x="348" y="53"/>
      <point x="363" y="53" type="curve" smooth="yes"/>
      <point x="379" y="53"/>
      <point x="404" y="68"/>
      <point x="440" y="98" type="curve"/>
      <point x="449" y="79" type="line"/>
      <point x="400" y="35" type="line" smooth="yes"/>
      <point x="368" y="6"/>
      <point x="336" y="-11"/>
      <point x="314" y="-11" type="curve" smooth="yes"/>
      <point x="278" y="-11"/>
      <point x="255" y="28"/>
      <point x="242" y="113" type="curve" smooth="yes"/>
      <point x="231" y="182" type="line"/>
      <point x="155" y="65" type="line" smooth="yes"/>
      <point x="124" y="18"/>
      <point x="85" y="-11"/>
      <point x="52" y="-11" type="curve" smooth="yes"/>
      <point x="40" y="-11"/>
      <point x="24" y="-7"/>
      <point x="9" y="1" type="curve"/>
      <point x="10" y="8"/>
      <point x="11" y="11"/>
      <point x="13" y="23" type="curve" smooth="yes"/>
      <point x="19" y="55"/>
      <point x="21" y="68"/>
    </contour>
  </outline>
</glyph>
<glyph name="cent" format="1">
  <advance width="500"/>
  <unicode hex="00A2"/>
  <outline>
    <contour>
      <point x="316" y="480" type="curve"/>
      <point x="343" y="551" type="line"/>
      <point x="376" y="551" type="line"/>
      <point x="349" y="480" type="line"/>
      <point x="374" y="480"/>
      <point x="396" y="473"/>
      <point x="418" y="458" type="curve"/>
      <point x="405" y="400"/>
      <point x="399" y="365"/>
      <point x="397" y="330" type="curve"/>
      <point x="374" y="330" type="line"/>
      <point x="374" y="394" type="line" smooth="yes"/>
      <point x="374" y="407"/>
      <point x="363" y="415"/>
      <point x="330" y="427" type="curve"/>
      <point x="184" y="45" type="line"/>
      <point x="193" y="42"/>
      <point x="202" y="40"/>
      <point x="210" y="40" type="curve" smooth="yes"/>
      <point x="259" y="40"/>
      <point x="310" y="63"/>
      <point x="379" y="115" type="curve"/>
      <point x="386" y="95" type="line"/>
      <point x="326" y="46" type="line" smooth="yes"/>
      <point x="280" y="9"/>
      <point x="225" y="-10"/>
      <point x="163" y="-11" type="curve"/>
      <point x="129" y="-96" type="line"/>
      <point x="97" y="-96" type="line"/>
      <point x="132" y="-2" type="line"/>
      <point x="101" y="7"/>
      <point x="88" y="18"/>
      <point x="75" y="45" type="curve"/>
      <point x="62" y="69"/>
      <point x="56" y="102"/>
      <point x="56" y="140" type="curve" smooth="yes"/>
      <point x="56" y="250"/>
      <point x="105" y="367"/>
      <point x="170" y="413" type="curve" smooth="yes"/>
      <point x="226" y="452"/>
      <point x="272" y="474"/>
    </contour>
    <contour>
      <point x="157" y="64" type="curve"/>
      <point x="297" y="432" type="line"/>
      <point x="291" y="433"/>
      <point x="286" y="433"/>
      <point x="283" y="433" type="curve" smooth="yes"/>
      <point x="246" y="433"/>
      <point x="208" y="413"/>
      <point x="189" y="382" type="curve" smooth="yes"/>
      <point x="163" y="341"/>
      <point x="130" y="211"/>
      <point x="130" y="149" type="curve" smooth="yes"/>
      <point x="130" y="113"/>
      <point x="139" y="85"/>
    </contour>
  </outline>
</glyph>
<glyph name="sterling" format="1">
  <advance width="500"/>
  <unicode hex="00A3"/>
  <outline>
    <contour>
      <point x="477" y="159" type="line"/>
      <point x="441" y="1" type="line"/>
      <point x="425" y="-9"/>
      <point x="405" y="-14"/>
      <point x="382" y="-14" type="curve" smooth="yes"/>
      <point x="364" y="-14"/>
      <point x="336" y="-9"/>
      <point x="230" y="11" type="curve"/>
      <point x="225" y="12" type="line"/>
      <point x="219" y="13" type="line"/>
      <point x="213" y="14" type="line" smooth="yes"/>
      <point x="168" y="22"/>
      <point x="136" y="26"/>
      <point x="116" y="26" type="curve" smooth="yes"/>
      <point x="88" y="26"/>
      <point x="83" y="24"/>
      <point x="64" y="10" type="curve" smooth="yes"/>
      <point x="53" y="1"/>
      <point x="37" y="-10"/>
      <point x="23" y="-18" type="curve"/>
      <point x="11" y="-13"/>
      <point x="2" y="8"/>
      <point x="2" y="27" type="curve"/>
      <point x="79" y="68"/>
      <point x="108" y="131"/>
      <point x="126" y="299" type="curve"/>
      <point x="129" y="322" type="line"/>
      <point x="34" y="322" type="line"/>
      <point x="41" y="357" type="line"/>
      <point x="135" y="357" type="line"/>
      <point x="159" y="499"/>
      <point x="186" y="567"/>
      <point x="243" y="632" type="curve" smooth="yes"/>
      <point x="289" y="684"/>
      <point x="333" y="708"/>
      <point x="385" y="708" type="curve" smooth="yes"/>
      <point x="421" y="708"/>
      <point x="445" y="701"/>
      <point x="479" y="680" type="curve"/>
      <point x="466" y="641"/>
      <point x="461" y="607"/>
      <point x="460" y="558" type="curve"/>
      <point x="437" y="558" type="line"/>
      <point x="437" y="612" type="line" smooth="yes"/>
      <point x="437" y="639"/>
      <point x="396" y="663"/>
      <point x="349" y="663" type="curve" smooth="yes"/>
      <point x="300" y="663"/>
      <point x="267" y="631"/>
      <point x="255" y="569" type="curve" smooth="yes"/>
      <point x="250" y="544" type="line"/>
      <point x="219" y="400" type="line"/>
      <point x="209" y="357" type="line"/>
      <point x="351" y="357" type="line"/>
      <point x="344" y="322" type="line"/>
      <point x="201" y="322" type="line"/>
      <point x="162" y="169"/>
      <point x="136" y="110"/>
      <point x="91" y="64" type="curve"/>
      <point x="129" y="75"/>
      <point x="150" y="79"/>
      <point x="176" y="79" type="curve" smooth="yes"/>
      <point x="189" y="79"/>
      <point x="220" y="77"/>
      <point x="236" y="74" type="curve" smooth="yes"/>
      <point x="295" y="66" type="line" smooth="yes"/>
      <point x="308" y="64"/>
      <point x="330" y="62"/>
      <point x="339" y="62" type="curve" smooth="yes"/>
      <point x="369" y="62" type="line" smooth="yes"/>
      <point x="384" y="62"/>
      <point x="389" y="62"/>
      <point x="395" y="63" type="curve" smooth="yes"/>
      <point x="411" y="65"/>
      <point x="423" y="77"/>
      <point x="431" y="99" type="curve" smooth="yes"/>
      <point x="453" y="159" type="line"/>
    </contour>
  </outline>
</glyph>
<glyph name="section" format="1">
  <advance width="500"/>
  <unicode hex="00A7"/>
  <outline>
    <contour>
      <point x="71" y="-29" type="line"/>
      <point x="65" y="-115" type="line"/>
      <point x="101" y="-157"/>
      <point x="137" y="-174"/>
      <point x="191" y="-174" type="curve" smooth="yes"/>
      <point x="269" y="-174"/>
      <point x="330" y="-117"/>
      <point x="330" y="-44" type="curve" smooth="yes"/>
      <point x="330" y="5"/>
      <point x="308" y="33"/>
      <point x="236" y="72" type="curve" smooth="yes"/>
      <point x="185" y="100" type="line" smooth="yes"/>
      <point x="83" y="156"/>
      <point x="49" y="195"/>
      <point x="49" y="255" type="curve" smooth="yes"/>
      <point x="49" y="316"/>
      <point x="75" y="353"/>
      <point x="158" y="413" type="curve"/>
      <point x="130" y="444"/>
      <point x="117" y="470"/>
      <point x="117" y="497" type="curve" smooth="yes"/>
      <point x="117" y="550"/>
      <point x="139" y="594"/>
      <point x="191" y="644" type="curve" smooth="yes"/>
      <point x="237" y="689"/>
      <point x="277" y="706"/>
      <point x="336" y="706" type="curve" smooth="yes"/>
      <point x="388" y="706"/>
      <point x="424" y="694"/>
      <point x="463" y="666" type="curve"/>
      <point x="432" y="537" type="line"/>
      <point x="407" y="537" type="line"/>
      <point x="412" y="617" type="line"/>
      <point x="382" y="647"/>
      <point x="347" y="661"/>
      <point x="304" y="661" type="curve" smooth="yes"/>
      <point x="231" y="661"/>
      <point x="174" y="609"/>
      <point x="174" y="543" type="curve" smooth="yes"/>
      <point x="174" y="509"/>
      <point x="191" y="479"/>
      <point x="220" y="461" type="curve" smooth="yes"/>
      <point x="343" y="385" type="line" smooth="yes"/>
      <point x="390" y="356"/>
      <point x="407" y="343"/>
      <point x="420" y="327" type="curve" smooth="yes"/>
      <point x="437" y="306"/>
      <point x="446" y="281"/>
      <point x="446" y="252" type="curve" smooth="yes"/>
      <point x="446" y="190"/>
      <point x="412" y="140"/>
      <point x="339" y="95" type="curve"/>
      <point x="378" y="60"/>
      <point x="390" y="37"/>
      <point x="390" y="-3" type="curve" smooth="yes"/>
      <point x="390" y="-56"/>
      <point x="363" y="-107"/>
      <point x="312" y="-155" type="curve"/>
      <point x="263" y="-199"/>
      <point x="215" y="-220"/>
      <point x="159" y="-220" type="curve" smooth="yes"/>
      <point x="103" y="-220"/>
      <point x="56" y="-203"/>
      <point x="14" y="-168" type="curve"/>
      <point x="47" y="-27" type="line"/>
    </contour>
    <contour>
      <point x="296" y="329" type="curve" smooth="yes"/>
      <point x="177" y="399" type="line"/>
      <point x="131" y="361"/>
      <point x="112" y="328"/>
      <point x="112" y="288" type="curve" smooth="yes"/>
      <point x="112" y="246"/>
      <point x="139" y="213"/>
      <point x="202" y="177" type="curve" smooth="yes"/>
      <point x="318" y="111" type="line"/>
      <point x="366" y="150"/>
      <point x="384" y="179"/>
      <point x="384" y="217" type="curve" smooth="yes"/>
      <point x="384" y="261"/>
      <point x="360" y="291"/>
    </contour>
  </outline>
</glyph>
<glyph name="logicalnot" format="1">
  <advance width="606"/>
  <unicode hex="00AC"/>
  <outline>
    <contour>
      <point x="499" y="118" type="line"/>
      <point x="499" y="322" type="line"/>
      <point x="51" y="322" type="line"/>
      <point x="51" y="378" type="line"/>
      <point x="555" y="378" type="line"/>
      <point x="555" y="118" type="line"/>
    </contour>
  </outline>
</glyph>
<glyph name="registered" format="1">
  <advance width="747"/>
  <unicode hex="00AE"/>
  <outline>
    <contour>
      <point x="205" y="554" type="line"/>
      <point x="361" y="554" type="line" smooth="yes"/>
      <point x="469" y="554"/>
      <point x="516" y="524"/>
      <point x="516" y="456" type="curve" smooth="yes"/>
      <point x="516" y="398"/>
      <point x="479" y="363"/>
      <point x="401" y="350" type="curve"/>
      <point x="439" y="344"/>
      <point x="463" y="316"/>
      <point x="492" y="246" type="curve"/>
      <point x="497" y="235" type="line"/>
      <point x="519" y="184"/>
      <point x="530" y="174"/>
      <point x="563" y="173" type="curve"/>
      <point x="563" y="157" type="line"/>
      <point x="536" y="157" type="line" smooth="yes"/>
      <point x="471" y="157"/>
      <point x="466" y="161"/>
      <point x="431" y="247" type="curve" smooth="yes"/>
      <point x="419" y="277" type="line" smooth="yes"/>
      <point x="398" y="329"/>
      <point x="385" y="340"/>
      <point x="343" y="340" type="curve" smooth="yes"/>
      <point x="309" y="340" type="line"/>
      <point x="309" y="211" type="line" smooth="yes"/>
      <point x="309" y="182"/>
      <point x="315" y="174"/>
      <point x="337" y="174" type="curve" smooth="yes"/>
      <point x="358" y="174" type="line"/>
      <point x="358" y="157" type="line"/>
      <point x="206" y="157" type="line"/>
      <point x="206" y="173" type="line"/>
      <point x="222" y="173" type="line" smooth="yes"/>
      <point x="248" y="173"/>
      <point x="254" y="179"/>
      <point x="254" y="204" type="curve" smooth="yes"/>
      <point x="254" y="507" type="line" smooth="yes"/>
      <point x="254" y="527"/>
      <point x="243" y="537"/>
      <point x="222" y="537" type="curve" smooth="yes"/>
      <point x="205" y="537" type="line"/>
    </contour>
    <contour>
      <point x="309" y="360" type="line"/>
      <point x="336" y="360" type="line" smooth="yes"/>
      <point x="421" y="360"/>
      <point x="460" y="388"/>
      <point x="460" y="449" type="curve" smooth="yes"/>
      <point x="460" y="504"/>
      <point x="426" y="535"/>
      <point x="366" y="535" type="curve" smooth="yes"/>
      <point x="337" y="535" type="line" smooth="yes"/>
      <point x="317" y="535"/>
      <point x="309" y="527"/>
      <point x="309" y="506" type="curve" smooth="yes"/>
    </contour>
    <contour>
      <point x="375" y="706" type="curve" smooth="yes"/>
      <point x="573" y="706"/>
      <point x="736" y="542"/>
      <point x="736" y="344" type="curve" smooth="yes"/>
      <point x="736" y="145"/>
      <point x="573" y="-18"/>
      <point x="373" y="-18" type="curve" smooth="yes"/>
      <point x="174" y="-18"/>
      <point x="11" y="145"/>
      <point x="11" y="344" type="curve" smooth="yes"/>
      <point x="11" y="545"/>
      <point x="173" y="706"/>
    </contour>
    <contour>
      <point x="373" y="662" type="curve" smooth="yes"/>
      <point x="197" y="662"/>
      <point x="55" y="519"/>
      <point x="55" y="343" type="curve" smooth="yes"/>
      <point x="55" y="169"/>
      <point x="198" y="26"/>
      <point x="372" y="26" type="curve" smooth="yes"/>
      <point x="548" y="26"/>
      <point x="692" y="169"/>
      <point x="692" y="344" type="curve" smooth="yes"/>
      <point x="692" y="518"/>
      <point x="548" y="662"/>
    </contour>
  </outline>
</glyph>
<glyph name="macron" format="1">
  <advance width="333"/>
  <unicode hex="00AF"/>
  <outline>
    <contour>
      <point x="386" y="589" type="line"/>
      <point x="375" y="538" type="line"/>
      <point x="74" y="538" type="line"/>
      <point x="85" y="589" type="line"/>
    </contour>
  </outline>
</glyph>
<glyph name="plusminus" format="1">
  <advance width="606"/>
  <unicode hex="00B1"/>
  <outline>
    <contour>
      <point x="275" y="289" type="line"/>
      <point x="275" y="512" type="line"/>
      <point x="331" y="512" type="line"/>
      <point x="331" y="289" type="line"/>
      <point x="555" y="289" type="line"/>
      <point x="555" y="233" type="line"/>
      <point x="331" y="233" type="line"/>
      <point x="331" y="97" type="line"/>
      <point x="275" y="97" type="line"/>
      <point x="275" y="233" type="line"/>
      <point x="51" y="233" type="line"/>
      <point x="51" y="289" type="line"/>
    </contour>
    <contour>
      <point x="555" y="0" type="line"/>
      <point x="51" y="0" type="line"/>
      <point x="51" y="56" type="line"/>
      <point x="555" y="56" type="line"/>
    </contour>
  </outline>
</glyph>
<glyph name="twosuperior" format="1">
  <advance width="300"/>
  <unicode hex="00B2"/>
  <outline>
    <contour>
      <point x="55" y="601" type="line"/>
      <point x="94" y="673" type="line"/>
      <point x="122" y="692"/>
      <point x="147" y="699"/>
      <point x="180" y="699" type="curve" smooth="yes"/>
      <point x="247" y="699"/>
      <point x="290" y="661"/>
      <point x="290" y="601" type="curve" smooth="yes"/>
      <point x="290" y="560"/>
      <point x="269" y="516"/>
      <point x="232" y="479" type="curve" smooth="yes"/>
      <point x="72" y="321" type="line"/>
      <point x="208" y="321" type="line" smooth="yes"/>
      <point x="235" y="321"/>
      <point x="256" y="324"/>
      <point x="282" y="330" type="curve"/>
      <point x="286" y="319" type="line"/>
      <point x="275" y="278" type="line"/>
      <point x="213" y="279" type="line" smooth="yes"/>
      <point x="195" y="280"/>
      <point x="158" y="280"/>
      <point x="145" y="280" type="curve" smooth="yes"/>
      <point x="131" y="280"/>
      <point x="93" y="280"/>
      <point x="75" y="279" type="curve" smooth="yes"/>
      <point x="13" y="278" type="line"/>
      <point x="13" y="299" type="line"/>
      <point x="179" y="462"/>
      <point x="226" y="528"/>
      <point x="226" y="593" type="curve" smooth="yes"/>
      <point x="226" y="631"/>
      <point x="204" y="652"/>
      <point x="162" y="652" type="curve" smooth="yes"/>
      <point x="122" y="652"/>
      <point x="102" y="638"/>
      <point x="73" y="591" type="curve"/>
    </contour>
  </outline>
</glyph>
<glyph name="threesuperior" format="1">
  <advance width="300"/>
  <unicode hex="00B3"/>
  <outline>
    <contour>
      <point x="28" y="299" type="curve"/>
      <point x="46" y="386" type="line"/>
      <point x="68" y="383" type="line"/>
      <point x="66" y="374"/>
      <point x="65" y="365"/>
      <point x="65" y="357" type="curve" smooth="yes"/>
      <point x="65" y="320"/>
      <point x="93" y="299"/>
      <point x="142" y="299" type="curve" smooth="yes"/>
      <point x="196" y="299"/>
      <point x="242" y="353"/>
      <point x="242" y="417" type="curve" smooth="yes"/>
      <point x="242" y="464"/>
      <point x="212" y="491"/>
      <point x="159" y="491" type="curve" smooth="yes"/>
      <point x="144" y="491"/>
      <point x="133" y="489"/>
      <point x="110" y="481" type="curve"/>
      <point x="106" y="494" type="line"/>
      <point x="117" y="524" type="line"/>
      <point x="133" y="524" type="line"/>
      <point x="140" y="523"/>
      <point x="145" y="523"/>
      <point x="147" y="523" type="curve" smooth="yes"/>
      <point x="200" y="523"/>
      <point x="241" y="561"/>
      <point x="241" y="610" type="curve" smooth="yes"/>
      <point x="241" y="637"/>
      <point x="214" y="658"/>
      <point x="178" y="658" type="curve" smooth="yes"/>
      <point x="152" y="658"/>
      <point x="132" y="647"/>
      <point x="114" y="624" type="curve" smooth="yes"/>
      <point x="101" y="607" type="line"/>
      <point x="86" y="617" type="line"/>
      <point x="124" y="680" type="line"/>
      <point x="157" y="694"/>
      <point x="176" y="699"/>
      <point x="200" y="699" type="curve" smooth="yes"/>
      <point x="258" y="699"/>
      <point x="299" y="667"/>
      <point x="299" y="621" type="curve" smooth="yes"/>
      <point x="299" y="577"/>
      <point x="272" y="547"/>
      <point x="203" y="515" type="curve"/>
      <point x="276" y="500"/>
      <point x="304" y="474"/>
      <point x="304" y="421" type="curve" smooth="yes"/>
      <point x="304" y="339"/>
      <point x="223" y="273"/>
      <point x="123" y="273" type="curve" smooth="yes"/>
      <point x="85" y="273"/>
      <point x="58" y="280"/>
    </contour>
  </outline>
</glyph>
<glyph name="onesuperior" format="1">
  <advance width="300"/>
  <unicode hex="00B9"/>
  <outline>
    <contour>
      <point x="273" y="693" type="line"/>
      <point x="269" y="679" type="line" smooth="yes"/>
      <point x="266" y="665"/>
      <point x="261" y="646"/>
      <point x="259" y="633" type="curve" smooth="yes"/>
      <point x="207" y="353" type="line" smooth="yes"/>
      <point x="206" y="348"/>
      <point x="205" y="338"/>
      <point x="205" y="333" type="curve" smooth="yes"/>
      <point x="205" y="313"/>
      <point x="213" y="307"/>
      <point x="243" y="305" type="curve" smooth="yes"/>
      <point x="285" y="302" type="line"/>
      <point x="281" y="278" type="line"/>
      <point x="229" y="279" type="line" smooth="yes"/>
      <point x="219" y="280"/>
      <point x="180" y="280"/>
      <point x="171" y="280" type="curve" smooth="yes"/>
      <point x="162" y="280"/>
      <point x="123" y="280"/>
      <point x="113" y="279" type="curve" smooth="yes"/>
      <point x="61" y="278" type="line"/>
      <point x="66" y="302" type="line"/>
      <point x="115" y="308" type="line" smooth="yes"/>
      <point x="135" y="311"/>
      <point x="140" y="319"/>
      <point x="146" y="349" type="curve" smooth="yes"/>
      <point x="200" y="649" type="line"/>
      <point x="187" y="643"/>
      <point x="175" y="638"/>
      <point x="170" y="637" type="curve" smooth="yes"/>
      <point x="153" y="630"/>
      <point x="142" y="625"/>
      <point x="139" y="624" type="curve" smooth="yes"/>
      <point x="85" y="600" type="line"/>
      <point x="80" y="603" type="line"/>
      <point x="87" y="646" type="line"/>
      <point x="139" y="657"/>
      <point x="159" y="663"/>
      <point x="194" y="675" type="curve" smooth="yes"/>
      <point x="263" y="699" type="line"/>
    </contour>
  </outline>
</glyph>
<glyph name="ordmasculine" format="1">
  <advance width="333"/>
  <unicode hex="00BA"/>
  <outline>
    <contour>
      <point x="235" y="699" type="curve" smooth="yes"/>
      <point x="290" y="699"/>
      <point x="322" y="666"/>
      <point x="322" y="609" type="curve" smooth="yes"/>
      <point x="322" y="497"/>
      <point x="243" y="404"/>
      <point x="149" y="404" type="curve" smooth="yes"/>
      <point x="96" y="404"/>
      <point x="66" y="439"/>
      <point x="66" y="500" type="curve" smooth="yes"/>
      <point x="66" y="610"/>
      <point x="141" y="699"/>
    </contour>
    <contour>
      <point x="212" y="676" type="curve" smooth="yes"/>
      <point x="155" y="676"/>
      <point x="115" y="606"/>
      <point x="115" y="506" type="curve" smooth="yes"/>
      <point x="115" y="454"/>
      <point x="136" y="427"/>
      <point x="175" y="427" type="curve" smooth="yes"/>
      <point x="203" y="427"/>
      <point x="225" y="442"/>
      <point x="243" y="473" type="curve" smooth="yes"/>
      <point x="260" y="504"/>
      <point x="273" y="557"/>
      <point x="273" y="601" type="curve" smooth="yes"/>
      <point x="273" y="649"/>
      <point x="251" y="676"/>
    </contour>
  </outline>
</glyph>
<glyph name="onehalf" format="1">
  <advance width="750"/>
  <unicode hex="00BD"/>
  <outline>
    <contour>
      <point x="186" y="0" type="line"/>
      <point x="130" y="0" type="line"/>
      <point x="581" y="699" type="line"/>
      <point x="637" y="699" type="line"/>
    </contour>
    <contour>
      <point x="243" y="693" type="line"/>
      <point x="239" y="679" type="line" smooth="yes"/>
      <point x="236" y="665"/>
      <point x="231" y="646"/>
      <point x="229" y="633" type="curve" smooth="yes"/>
      <point x="177" y="353" type="line" smooth="yes"/>
      <point x="176" y="348"/>
      <point x="175" y="338"/>
      <point x="175" y="333" type="curve" smooth="yes"/>
      <point x="175" y="313"/>
      <point x="183" y="307"/>
      <point x="213" y="305" type="curve" smooth="yes"/>
      <point x="255" y="302" type="line"/>
      <point x="251" y="278" type="line"/>
      <point x="199" y="279" type="line" smooth="yes"/>
      <point x="189" y="280"/>
      <point x="150" y="280"/>
      <point x="141" y="280" type="curve" smooth="yes"/>
      <point x="132" y="280"/>
      <point x="93" y="280"/>
      <point x="83" y="279" type="curve" smooth="yes"/>
      <point x="31" y="278" type="line"/>
      <point x="36" y="302" type="line"/>
      <point x="85" y="308" type="line" smooth="yes"/>
      <point x="105" y="311"/>
      <point x="110" y="319"/>
      <point x="116" y="349" type="curve" smooth="yes"/>
      <point x="170" y="649" type="line"/>
      <point x="157" y="643"/>
      <point x="145" y="638"/>
      <point x="140" y="637" type="curve" smooth="yes"/>
      <point x="123" y="630"/>
      <point x="112" y="625"/>
      <point x="109" y="624" type="curve" smooth="yes"/>
      <point x="55" y="600" type="line"/>
      <point x="50" y="603" type="line"/>
      <point x="57" y="646" type="line"/>
      <point x="109" y="657"/>
      <point x="129" y="663"/>
      <point x="164" y="675" type="curve" smooth="yes"/>
      <point x="233" y="699" type="line"/>
    </contour>
    <contour>
      <point x="486" y="321" type="line"/>
      <point x="525" y="393" type="line"/>
      <point x="553" y="412"/>
      <point x="578" y="419"/>
      <point x="611" y="419" type="curve" smooth="yes"/>
      <point x="678" y="419"/>
      <point x="721" y="381"/>
      <point x="721" y="321" type="curve" smooth="yes"/>
      <point x="721" y="280"/>
      <point x="700" y="236"/>
      <point x="663" y="199" type="curve" smooth="yes"/>
      <point x="503" y="41" type="line"/>
      <point x="639" y="41" type="line" smooth="yes"/>
      <point x="666" y="41"/>
      <point x="687" y="44"/>
      <point x="713" y="50" type="curve"/>
      <point x="717" y="39" type="line"/>
      <point x="706" y="-2" type="line"/>
      <point x="680" y="-2" type="line" smooth="yes"/>
      <point x="678" y="-2"/>
      <point x="665" y="-2"/>
      <point x="644" y="-1" type="curve" smooth="yes"/>
      <point x="634" y="0"/>
      <point x="598" y="0"/>
      <point x="576" y="0" type="curve" smooth="yes"/>
      <point x="554" y="0"/>
      <point x="517" y="0"/>
      <point x="506" y="-1" type="curve" smooth="yes"/>
      <point x="485" y="-2"/>
      <point x="472" y="-2"/>
      <point x="470" y="-2" type="curve" smooth="yes"/>
      <point x="444" y="-2" type="line"/>
      <point x="444" y="19" type="line"/>
      <point x="610" y="182"/>
      <point x="657" y="248"/>
      <point x="657" y="313" type="curve" smooth="yes"/>
      <point x="657" y="351"/>
      <point x="635" y="372"/>
      <point x="593" y="372" type="curve" smooth="yes"/>
      <point x="553" y="372"/>
      <point x="533" y="358"/>
      <point x="504" y="311" type="curve"/>
    </contour>
  </outline>
</glyph>
<glyph name="questiondown" format="1">
  <advance width="500"/>
  <unicode hex="00BF"/>
  <outline>
    <contour>
      <point x="347" y="-105" type="line"/>
      <point x="369" y="-111" type="line"/>
      <point x="367" y="-118"/>
      <point x="363" y="-127"/>
      <point x="359" y="-137" type="curve" smooth="yes"/>
      <point x="357" y="-141"/>
      <point x="356" y="-144"/>
      <point x="355" y="-145" type="curve" smooth="yes"/>
      <point x="329" y="-209" type="line"/>
      <point x="285" y="-236"/>
      <point x="254" y="-246"/>
      <point x="214" y="-246" type="curve" smooth="yes"/>
      <point x="120" y="-246"/>
      <point x="57" y="-192"/>
      <point x="57" y="-112" type="curve" smooth="yes"/>
      <point x="57" y="-60"/>
      <point x="79" y="-17"/>
      <point x="131" y="33" type="curve" smooth="yes"/>
      <point x="235" y="133" type="line" smooth="yes"/>
      <point x="273" y="169"/>
      <point x="285" y="188"/>
      <point x="285" y="210" type="curve" smooth="yes"/>
      <point x="285" y="227"/>
      <point x="278" y="241"/>
      <point x="258" y="261" type="curve"/>
      <point x="283" y="267" type="line"/>
      <point x="308" y="250"/>
      <point x="321" y="230"/>
      <point x="321" y="204" type="curve" smooth="yes"/>
      <point x="321" y="170"/>
      <point x="305" y="137"/>
      <point x="266" y="93" type="curve" smooth="yes"/>
      <point x="196" y="14" type="line" smooth="yes"/>
      <point x="157" y="-30"/>
      <point x="139" y="-67"/>
      <point x="139" y="-102" type="curve" smooth="yes"/>
      <point x="139" y="-151"/>
      <point x="181" y="-187"/>
      <point x="238" y="-187" type="curve" smooth="yes"/>
      <point x="279" y="-187"/>
      <point x="301" y="-174"/>
      <point x="327" y="-135" type="curve" smooth="yes"/>
    </contour>
    <contour>
      <point x="325" y="467" type="curve" smooth="yes"/>
      <point x="350" y="467"/>
      <point x="370" y="446"/>
      <point x="370" y="419" type="curve" smooth="yes"/>
      <point x="370" y="381"/>
      <point x="343" y="350"/>
      <point x="309" y="350" type="curve" smooth="yes"/>
      <point x="282" y="350"/>
      <point x="265" y="368"/>
      <point x="265" y="397" type="curve" smooth="yes"/>
      <point x="265" y="435"/>
      <point x="292" y="467"/>
    </contour>
  </outline>
</glyph>
<glyph name="AE" format="1">
  <advance width="941"/>
  <unicode hex="00C6"/>
  <outline>
    <contour>
      <point x="486" y="279" type="line"/>
      <point x="264" y="279" type="line"/>
      <point x="246" y="249" type="line"/>
      <point x="232" y="227" type="line"/>
      <point x="156" y="98" type="line" smooth="yes"/>
      <point x="155" y="97"/>
      <point x="154" y="95"/>
      <point x="152" y="91" type="curve" smooth="yes"/>
      <point x="140" y="72"/>
      <point x="136" y="62"/>
      <point x="136" y="54" type="curve" smooth="yes"/>
      <point x="136" y="36"/>
      <point x="156" y="27"/>
      <point x="197" y="27" type="curve" smooth="yes"/>
      <point x="221" y="27" type="line"/>
      <point x="221" y="-3" type="line"/>
      <point x="145" y="0" type="line"/>
      <point x="114" y="0" type="line" smooth="yes"/>
      <point x="100" y="0"/>
      <point x="80" y="0"/>
      <point x="44" y="-2" type="curve"/>
      <point x="-4" y="-3" type="line"/>
      <point x="-4" y="27" type="line"/>
      <point x="30" y="32" type="line" smooth="yes"/>
      <point x="41" y="33"/>
      <point x="54" y="44"/>
      <point x="66" y="62" type="curve" smooth="yes"/>
      <point x="434" y="607" type="line" smooth="yes"/>
      <point x="441" y="618"/>
      <point x="447" y="634"/>
      <point x="447" y="643" type="curve" smooth="yes"/>
      <point x="447" y="653"/>
      <point x="429" y="662"/>
      <point x="410" y="662" type="curve" smooth="yes"/>
      <point x="344" y="662" type="line"/>
      <point x="344" y="692" type="line"/>
      <point x="404" y="691" type="line" smooth="yes"/>
      <point x="489" y="689"/>
      <point x="531" y="689"/>
      <point x="587" y="689" type="curve" smooth="yes"/>
      <point x="605" y="689"/>
      <point x="662" y="689"/>
      <point x="675" y="690" type="curve" smooth="yes"/>
      <point x="795" y="691" type="line" smooth="yes"/>
      <point x="819" y="692"/>
      <point x="830" y="692"/>
      <point x="833" y="692" type="curve" smooth="yes"/>
      <point x="851" y="692"/>
      <point x="881" y="691"/>
      <point x="902" y="689" type="curve"/>
      <point x="891" y="651"/>
      <point x="884" y="601"/>
      <point x="881" y="537" type="curve"/>
      <point x="857" y="537" type="line"/>
      <point x="849" y="626" type="line" smooth="yes"/>
      <point x="848" y="640"/>
      <point x="809" y="650"/>
      <point x="755" y="650" type="curve" smooth="yes"/>
      <point x="738" y="650"/>
      <point x="710" y="649"/>
      <point x="679" y="648" type="curve" smooth="yes"/>
      <point x="672" y="648"/>
      <point x="655" y="647"/>
      <point x="632" y="646" type="curve"/>
      <point x="628" y="638"/>
      <point x="626" y="630"/>
      <point x="623" y="614" type="curve" smooth="yes"/>
      <point x="581" y="376" type="line"/>
      <point x="598" y="376" type="line" smooth="yes"/>
      <point x="676" y="376"/>
      <point x="736" y="378"/>
      <point x="817" y="382" type="curve"/>
      <point x="821" y="375" type="line"/>
      <point x="802" y="330" type="line"/>
      <point x="776" y="331" type="line" smooth="yes"/>
      <point x="728" y="333"/>
      <point x="697" y="334"/>
      <point x="670" y="334" type="curve" smooth="yes"/>
      <point x="573" y="334" type="line"/>
      <point x="530" y="81" type="line" smooth="yes"/>
      <point x="529" y="72"/>
      <point x="528" y="64"/>
      <point x="528" y="50" type="curve" smooth="yes"/>
      <point x="528" y="46" type="line"/>
      <point x="554" y="44" type="line" smooth="yes"/>
      <point x="588" y="41"/>
      <point x="620" y="39"/>
      <point x="640" y="39" type="curve" smooth="yes"/>
      <point x="685" y="39"/>
      <point x="771" y="44"/>
      <point x="787" y="48" type="curve" smooth="yes"/>
      <point x="809" y="53"/>
      <point x="818" y="65"/>
      <point x="828" y="101" type="curve" smooth="yes"/>
      <point x="844" y="161" type="line"/>
      <point x="871" y="161" type="line"/>
      <point x="866" y="135" type="line" smooth="yes"/>
      <point x="857" y="86"/>
      <point x="852" y="56"/>
      <point x="850" y="36" type="curve" smooth="yes"/>
      <point x="846" y="0" type="line"/>
      <point x="813" y="-1" type="line" smooth="yes"/>
      <point x="778" y="-2"/>
      <point x="756" y="-3"/>
      <point x="742" y="-3" type="curve" smooth="yes"/>
      <point x="734" y="-3"/>
      <point x="702" y="-2"/>
      <point x="588" y="-1" type="curve" smooth="yes"/>
      <point x="567" y="0"/>
      <point x="548" y="0"/>
      <point x="532" y="0" type="curve" smooth="yes"/>
      <point x="502" y="0"/>
      <point x="468" y="-1"/>
      <point x="425" y="-2" type="curve" smooth="yes"/>
      <point x="384" y="-3" type="line"/>
      <point x="389" y="23" type="line"/>
      <point x="431" y="30"/>
      <point x="442" y="38"/>
      <point x="448" y="66" type="curve" smooth="yes"/>
    </contour>
    <contour>
      <point x="290" y="319" type="line"/>
      <point x="492" y="319" type="line"/>
      <point x="546" y="655" type="line"/>
      <point x="532" y="655" type="line" smooth="yes"/>
      <point x="522" y="655"/>
      <point x="513" y="647"/>
      <point x="495" y="620" type="curve" smooth="yes"/>
    </contour>
  </outline>
</glyph>
<glyph name="Ccedilla" format="1">
  <advance width="667"/>
  <unicode hex="00C7"/>
  <outline>
    <contour>
      <point x="335" y="-18" type="line"/>
      <point x="303" y="-64" type="line"/>
      <point x="310" y="-63"/>
      <point x="321" y="-62"/>
      <point x="327" y="-62" type="curve" smooth="yes"/>
      <point x="377" y="-62"/>
      <point x="409" y="-89"/>
      <point x="409" y="-132" type="curve" smooth="yes"/>
      <point x="409" y="-183"/>
      <point x="361" y="-216"/>
      <point x="286" y="-216" type="curve" smooth="yes"/>
      <point x="259" y="-216"/>
      <point x="240" y="-212"/>
      <point x="198" y="-196" type="curve"/>
      <point x="215" y="-167" type="line"/>
      <point x="250" y="-178"/>
      <point x="265" y="-181"/>
      <point x="284" y="-181" type="curve" smooth="yes"/>
      <point x="315" y="-181"/>
      <point x="337" y="-162"/>
      <point x="337" y="-136" type="curve" smooth="yes"/>
      <point x="337" y="-114"/>
      <point x="318" y="-98"/>
      <point x="290" y="-98" type="curve" smooth="yes"/>
      <point x="282" y="-98"/>
      <point x="274" y="-99"/>
      <point x="257" y="-104" type="curve"/>
      <point x="248" y="-96" type="line"/>
      <point x="299" y="-16" type="line"/>
      <point x="296" y="-15" type="line"/>
      <point x="134" y="1"/>
      <point x="45" y="107"/>
      <point x="45" y="284" type="curve" smooth="yes"/>
      <point x="45" y="437"/>
      <point x="105" y="555"/>
      <point x="222" y="634" type="curve" smooth="yes"/>
      <point x="292" y="681"/>
      <point x="374" y="706"/>
      <point x="456" y="706" type="curve" smooth="yes"/>
      <point x="518" y="706"/>
      <point x="575" y="694"/>
      <point x="651" y="665" type="curve"/>
      <point x="637" y="619"/>
      <point x="629" y="576"/>
      <point x="624" y="519" type="curve"/>
      <point x="597" y="519" type="line"/>
      <point x="597" y="603" type="line"/>
      <point x="541" y="639"/>
      <point x="489" y="653"/>
      <point x="418" y="653" type="curve" smooth="yes"/>
      <point x="339" y="653"/>
      <point x="275" y="629"/>
      <point x="228" y="581" type="curve" smooth="yes"/>
      <point x="167" y="519"/>
      <point x="133" y="420"/>
      <point x="133" y="309" type="curve" smooth="yes"/>
      <point x="133" y="131"/>
      <point x="219" y="35"/>
      <point x="376" y="35" type="curve" smooth="yes"/>
      <point x="454" y="35"/>
      <point x="506" y="53"/>
      <point x="600" y="110" type="curve"/>
      <point x="610" y="103" type="line"/>
      <point x="600" y="67" type="line"/>
      <point x="509" y="5"/>
      <point x="439" y="-18"/>
      <point x="343" y="-18" type="curve" smooth="yes"/>
      <point x="338" y="-18" type="line"/>
    </contour>
  </outline>
</glyph>
<glyph name="Idieresis" format="1">
  <advance width="333"/>
  <unicode hex="00CF"/>
  <outline>
    <contour>
      <point x="103" y="664" type="line"/>
      <point x="106" y="692" type="line"/>
      <point x="170" y="690" type="line" smooth="yes"/>
      <point x="213" y="689"/>
      <point x="231" y="689"/>
      <point x="248" y="689" type="curve" smooth="yes"/>
      <point x="345" y="692" type="line"/>
      <point x="354" y="692" type="line"/>
      <point x="351" y="664" type="line"/>
      <point x="316" y="661" type="line" smooth="yes"/>
      <point x="277" y="657"/>
      <point x="272" y="652"/>
      <point x="265" y="613" type="curve" smooth="yes"/>
      <point x="176" y="78" type="line" smooth="yes"/>
      <point x="175" y="74"/>
      <point x="174" y="63"/>
      <point x="174" y="57" type="curve" smooth="yes"/>
      <point x="174" y="37"/>
      <point x="184" y="30"/>
      <point x="210" y="28" type="curve" smooth="yes"/>
      <point x="262" y="25" type="line"/>
      <point x="259" y="-3" type="line"/>
      <point x="227" y="-3" type="line"/>
      <point x="133" y="0" type="line"/>
      <point x="39" y="-3" type="line"/>
      <point x="7" y="-3" type="line"/>
      <point x="10" y="25" type="line"/>
      <point x="46" y="28" type="line" smooth="yes"/>
      <point x="86" y="31"/>
      <point x="89" y="36"/>
      <point x="104" y="125" type="curve" smooth="yes"/>
      <point x="176" y="559" type="line" smooth="yes"/>
      <point x="179" y="576"/>
      <point x="185" y="629"/>
      <point x="185" y="636" type="curve" smooth="yes"/>
      <point x="185" y="653"/>
      <point x="174" y="661"/>
      <point x="150" y="662" type="curve" smooth="yes"/>
    </contour>
    <contour>
      <point x="148" y="847" type="curve" smooth="yes"/>
      <point x="174" y="847"/>
      <point x="198" y="823"/>
      <point x="198" y="798" type="curve" smooth="yes"/>
      <point x="198" y="772"/>
      <point x="174" y="747"/>
      <point x="148" y="747" type="curve" smooth="yes"/>
      <point x="122" y="747"/>
      <point x="98" y="772"/>
      <point x="98" y="798" type="curve" smooth="yes"/>
      <point x="98" y="824"/>
      <point x="122" y="847"/>
    </contour>
    <contour>
      <point x="348" y="847" type="curve" smooth="yes"/>
      <point x="374" y="847"/>
      <point x="398" y="823"/>
      <point x="398" y="798" type="curve" smooth="yes"/>
      <point x="398" y="772"/>
      <point x="374" y="747"/>
      <point x="348" y="747" type="curve" smooth="yes"/>
      <point x="322" y="747"/>
      <point x="298" y="772"/>
      <point x="298" y="798" type="curve" smooth="yes"/>
      <point x="298" y="824"/>
      <point x="322" y="847"/>
    </contour>
  </outline>
</glyph>
<glyph name="Ntilde" format="1">
  <advance width="778"/>
  <unicode hex="00D1"/>
  <outline>
    <contour>
      <point x="237" y="692" type="line"/>
      <point x="582" y="103" type="line"/>
      <point x="662" y="592" type="line" smooth="yes"/>
      <point x="664" y="605"/>
      <point x="667" y="631"/>
      <point x="667" y="638" type="curve" smooth="yes"/>
      <point x="667" y="654"/>
      <point x="657" y="661"/>
      <point x="631" y="662" type="curve" smooth="yes"/>
      <point x="584" y="664" type="line"/>
      <point x="589" y="692" type="line"/>
      <point x="608" y="692" type="line"/>
      <point x="694" y="689" type="line"/>
      <point x="783" y="692" type="line"/>
      <point x="804" y="692" type="line"/>
      <point x="799" y="664" type="line"/>
      <point x="762" y="662" type="line" smooth="yes"/>
      <point x="725" y="659"/>
      <point x="723" y="655"/>
      <point x="702" y="542" type="curve"/>
      <point x="608" y="-11" type="line"/>
      <point x="558" y="-11" type="line"/>
      <point x="220" y="566" type="line"/>
      <point x="140" y="102" type="line" smooth="yes"/>
      <point x="138" y="91"/>
      <point x="137" y="80"/>
      <point x="137" y="72" type="curve" smooth="yes"/>
      <point x="137" y="39"/>
      <point x="146" y="31"/>
      <point x="186" y="28" type="curve" smooth="yes"/>
      <point x="228" y="25" type="line"/>
      <point x="223" y="-3" type="line"/>
      <point x="126" y="0"/>
      <point x="125" y="0"/>
      <point x="113" y="0" type="curve" smooth="yes"/>
      <point x="2" y="-3" type="line"/>
      <point x="7" y="25" type="line"/>
      <point x="38" y="28" type="line" smooth="yes"/>
      <point x="74" y="32"/>
      <point x="80" y="40"/>
      <point x="92" y="102" type="curve" smooth="yes"/>
      <point x="180" y="576" type="line" smooth="yes"/>
      <point x="181" y="579"/>
      <point x="182" y="586"/>
      <point x="183" y="594" type="curve" smooth="yes"/>
      <point x="184" y="596"/>
      <point x="184" y="598"/>
      <point x="184" y="599" type="curve" smooth="yes"/>
      <point x="185" y="602"/>
      <point x="185" y="605"/>
      <point x="185" y="606" type="curve" smooth="yes"/>
      <point x="185" y="614"/>
      <point x="170" y="633"/>
      <point x="155" y="645" type="curve" smooth="yes"/>
      <point x="144" y="654"/>
      <point x="122" y="661"/>
      <point x="105" y="662" type="curve" smooth="yes"/>
      <point x="70" y="664" type="line"/>
      <point x="75" y="692" type="line"/>
      <point x="91" y="691" type="line" smooth="yes"/>
      <point x="114" y="690"/>
      <point x="129" y="689"/>
      <point x="132" y="689" type="curve" smooth="yes"/>
      <point x="146" y="689" type="line"/>
      <point x="156" y="689" type="line"/>
    </contour>
    <contour>
      <point x="347" y="763" type="curve"/>
      <point x="318" y="763" type="line"/>
      <point x="338" y="836"/>
      <point x="367" y="866"/>
      <point x="416" y="866" type="curve" smooth="yes"/>
      <point x="435" y="866"/>
      <point x="456" y="861"/>
      <point x="479" y="852" type="curve" smooth="yes"/>
      <point x="539" y="828" type="line" smooth="yes"/>
      <point x="546" y="825"/>
      <point x="557" y="823"/>
      <point x="566" y="823" type="curve" smooth="yes"/>
      <point x="586" y="823"/>
      <point x="597" y="832"/>
      <point x="617" y="866" type="curve"/>
      <point x="645" y="866" type="line"/>
      <point x="633" y="801"/>
      <point x="597" y="763"/>
      <point x="548" y="763" type="curve" smooth="yes"/>
      <point x="535" y="763"/>
      <point x="507" y="770"/>
      <point x="484" y="779" type="curve" smooth="yes"/>
      <point x="446" y="794" type="line"/>
      <point x="444" y="795" type="line" smooth="yes"/>
      <point x="443" y="795"/>
      <point x="440" y="796"/>
      <point x="437" y="798" type="curve" smooth="yes"/>
      <point x="420" y="805"/>
      <point x="410" y="807"/>
      <point x="399" y="807" type="curve" smooth="yes"/>
      <point x="374" y="807"/>
      <point x="362" y="797"/>
    </contour>
  </outline>
</glyph>
<glyph name="Oslash" format="1">
  <advance width="778"/>
  <unicode hex="00D8"/>
  <outline>
    <contour>
      <point x="762" y="695" type="line"/>
      <point x="688" y="616" type="line"/>
      <point x="733" y="560"/>
      <point x="748" y="513"/>
      <point x="748" y="432" type="curve" smooth="yes"/>
      <point x="748" y="175"/>
      <point x="568" y="-18"/>
      <point x="329" y="-18" type="curve" smooth="yes"/>
      <point x="246" y="-18"/>
      <point x="191" y="-1"/>
      <point x="134" y="43" type="curve"/>
      <point x="60" y="-39" type="line"/>
      <point x="32" y="-15" type="line"/>
      <point x="110" y="68" type="line"/>
      <point x="68" y="128"/>
      <point x="53" y="184"/>
      <point x="53" y="273" type="curve" smooth="yes"/>
      <point x="53" y="522"/>
      <point x="227" y="706"/>
      <point x="463" y="706" type="curve" smooth="yes"/>
      <point x="543" y="706"/>
      <point x="600" y="688"/>
      <point x="661" y="643" type="curve"/>
      <point x="733" y="721" type="line"/>
    </contour>
    <contour>
      <point x="624" y="567" type="curve"/>
      <point x="189" y="97" type="line"/>
      <point x="234" y="45"/>
      <point x="284" y="24"/>
      <point x="361" y="24" type="curve" smooth="yes"/>
      <point x="438" y="24"/>
      <point x="503" y="50"/>
      <point x="552" y="100" type="curve" smooth="yes"/>
      <point x="621" y="171"/>
      <point x="660" y="283"/>
      <point x="660" y="412" type="curve" smooth="yes"/>
      <point x="660" y="480"/>
      <point x="651" y="517"/>
    </contour>
    <contour>
      <point x="168" y="131" type="curve"/>
      <point x="602" y="600" type="line"/>
      <point x="550" y="647"/>
      <point x="505" y="664"/>
      <point x="433" y="664" type="curve" smooth="yes"/>
      <point x="357" y="664"/>
      <point x="296" y="640"/>
      <point x="250" y="593" type="curve" smooth="yes"/>
      <point x="181" y="523"/>
      <point x="141" y="407"/>
      <point x="141" y="275" type="curve" smooth="yes"/>
      <point x="141" y="216"/>
      <point x="148" y="177"/>
    </contour>
  </outline>
</glyph>
<glyph name="Udieresis" format="1">
  <advance width="778"/>
  <unicode hex="00DC"/>
  <outline>
    <contour>
      <point x="795" y="664" type="line"/>
      <point x="759" y="661" type="line" smooth="yes"/>
      <point x="721" y="657"/>
      <point x="714" y="651"/>
      <point x="708" y="613" type="curve" smooth="yes"/>
      <point x="623" y="106" type="line"/>
      <point x="618" y="70"/>
      <point x="617" y="65"/>
      <point x="617" y="50" type="curve" smooth="yes"/>
      <point x="617" y="37"/>
      <point x="626" y="31"/>
      <point x="649" y="29" type="curve" smooth="yes"/>
      <point x="709" y="25" type="line"/>
      <point x="704" y="-3" type="line"/>
      <point x="672" y="-2" type="line" smooth="yes"/>
      <point x="640" y="-1"/>
      <point x="618" y="0"/>
      <point x="614" y="0" type="curve" smooth="yes"/>
      <point x="552" y="-3" type="line"/>
      <point x="530" y="-3" type="line"/>
      <point x="525" y="2" type="line"/>
      <point x="538" y="57"/>
      <point x="544" y="83"/>
      <point x="552" y="129" type="curve"/>
      <point x="500" y="69"/>
      <point x="468" y="44"/>
      <point x="409" y="15" type="curve" smooth="yes"/>
      <point x="361" y="-9"/>
      <point x="320" y="-19"/>
      <point x="276" y="-19" type="curve" smooth="yes"/>
      <point x="164" y="-19"/>
      <point x="97" y="43"/>
      <point x="97" y="144" type="curve" smooth="yes"/>
      <point x="97" y="160"/>
      <point x="99" y="185"/>
      <point x="103" y="206" type="curve" smooth="yes"/>
      <point x="167" y="581" type="line" smooth="yes"/>
      <point x="171" y="602"/>
      <point x="174" y="630"/>
      <point x="174" y="639" type="curve" smooth="yes"/>
      <point x="174" y="656"/>
      <point x="166" y="661"/>
      <point x="140" y="662" type="curve" smooth="yes"/>
      <point x="88" y="664" type="line"/>
      <point x="91" y="692" type="line"/>
      <point x="123" y="691" type="line" smooth="yes"/>
      <point x="151" y="690"/>
      <point x="171" y="689"/>
      <point x="181" y="689" type="curve" smooth="yes"/>
      <point x="192" y="689"/>
      <point x="212" y="690"/>
      <point x="239" y="691" type="curve" smooth="yes"/>
      <point x="270" y="692" type="line"/>
      <point x="182" y="215" type="line" smooth="yes"/>
      <point x="177" y="187"/>
      <point x="175" y="171"/>
      <point x="175" y="154" type="curve" smooth="yes"/>
      <point x="175" y="84"/>
      <point x="229" y="39"/>
      <point x="314" y="39" type="curve" smooth="yes"/>
      <point x="352" y="39"/>
      <point x="389" y="48"/>
      <point x="427" y="68" type="curve"/>
      <point x="478" y="93"/>
      <point x="508" y="119"/>
      <point x="556" y="177" type="curve"/>
      <point x="627" y="622" type="line" smooth="yes"/>
      <point x="628" y="626"/>
      <point x="628" y="629"/>
      <point x="628" y="634" type="curve" smooth="yes"/>
      <point x="628" y="653"/>
      <point x="617" y="661"/>
      <point x="593" y="662" type="curve" smooth="yes"/>
      <point x="545" y="664" type="line"/>
      <point x="548" y="692" type="line"/>
      <point x="611" y="690" type="line" smooth="yes"/>
      <point x="655" y="689"/>
      <point x="676" y="689"/>
      <point x="691" y="689" type="curve" smooth="yes"/>
      <point x="782" y="692" type="line"/>
      <point x="798" y="692" type="line"/>
    </contour>
    <contour>
      <point x="369" y="847" type="curve" smooth="yes"/>
      <point x="395" y="847"/>
      <point x="419" y="823"/>
      <point x="419" y="798" type="curve" smooth="yes"/>
      <point x="419" y="772"/>
      <point x="395" y="747"/>
      <point x="369" y="747" type="curve" smooth="yes"/>
      <point x="343" y="747"/>
      <point x="319" y="772"/>
      <point x="319" y="798" type="curve" smooth="yes"/>
      <point x="319" y="824"/>
      <point x="343" y="847"/>
    </contour>
    <contour>
      <point x="569" y="847" type="curve" smooth="yes"/>
      <point x="595" y="847"/>
      <point x="619" y="823"/>
      <point x="619" y="798" type="curve" smooth="yes"/>
      <point x="619" y="772"/>
      <point x="595" y="747"/>
      <point x="569" y="747" type="curve" smooth="yes"/>
      <point x="543" y="747"/>
      <point x="519" y="772"/>
      <point x="519" y="798" type="curve" smooth="yes"/>
      <point x="519" y="824"/>
      <point x="543" y="847"/>
    </contour>
  </outline>
</glyph>
<glyph name="Thorn" format="1">
  <advance width="611"/>
  <unicode hex="00DE"/>
  <outline>
    <contour>
      <point x="259" y="500" type="curve"/>
      <point x="253" y="476" type="line"/>
      <point x="249" y="455"/>
      <point x="244" y="434"/>
      <point x="244" y="432" type="curve" smooth="yes"/>
      <point x="186" y="93" type="line" smooth="yes"/>
      <point x="183" y="75"/>
      <point x="182" y="67"/>
      <point x="182" y="58" type="curve" smooth="yes"/>
      <point x="182" y="37"/>
      <point x="192" y="29"/>
      <point x="218" y="28" type="curve" smooth="yes"/>
      <point x="283" y="25" type="line"/>
      <point x="280" y="-3" type="line"/>
      <point x="227" y="-2" type="line" smooth="yes"/>
      <point x="187" y="-1"/>
      <point x="158" y="0"/>
      <point x="141" y="0" type="curve" smooth="yes"/>
      <point x="123" y="0"/>
      <point x="92" y="-1"/>
      <point x="51" y="-2" type="curve" smooth="yes"/>
      <point x="9" y="-3" type="line"/>
      <point x="13" y="25" type="line"/>
      <point x="54" y="28" type="line"/>
      <point x="94" y="32"/>
      <point x="95" y="33"/>
      <point x="112" y="125" type="curve"/>
      <point x="186" y="559" type="line" smooth="yes"/>
      <point x="191" y="590"/>
      <point x="195" y="621"/>
      <point x="195" y="635" type="curve" smooth="yes"/>
      <point x="195" y="653"/>
      <point x="184" y="661"/>
      <point x="160" y="662" type="curve" smooth="yes"/>
      <point x="113" y="664" type="line"/>
      <point x="116" y="692" type="line"/>
      <point x="180" y="690" type="line" smooth="yes"/>
      <point x="223" y="689"/>
      <point x="241" y="689"/>
      <point x="257" y="689" type="curve" smooth="yes"/>
      <point x="347" y="692" type="line"/>
      <point x="371" y="692" type="line"/>
      <point x="368" y="664" type="line"/>
      <point x="326" y="661" type="line" smooth="yes"/>
      <point x="289" y="658"/>
      <point x="282" y="652"/>
      <point x="275" y="613" type="curve" smooth="yes"/>
      <point x="262" y="542" type="line"/>
      <point x="299" y="542"/>
      <point x="334" y="542"/>
      <point x="345" y="543" type="curve" smooth="yes"/>
      <point x="367" y="544"/>
      <point x="386" y="544"/>
      <point x="394" y="544" type="curve" smooth="yes"/>
      <point x="507" y="544"/>
      <point x="570" y="487"/>
      <point x="570" y="386" type="curve" smooth="yes"/>
      <point x="570" y="257"/>
      <point x="466" y="153"/>
      <point x="337" y="153" type="curve" smooth="yes"/>
      <point x="303" y="153"/>
      <point x="278" y="159"/>
      <point x="247" y="174" type="curve"/>
      <point x="243" y="206" type="line"/>
      <point x="272" y="193"/>
      <point x="293" y="188"/>
      <point x="323" y="188" type="curve" smooth="yes"/>
      <point x="423" y="188"/>
      <point x="482" y="252"/>
      <point x="482" y="361" type="curve" smooth="yes"/>
      <point x="482" y="460"/>
      <point x="433" y="508"/>
      <point x="331" y="508" type="curve" smooth="yes"/>
      <point x="312" y="508"/>
      <point x="296" y="506"/>
    </contour>
  </outline>
</glyph>
<glyph name="acircumflex" format="1">
  <advance width="444"/>
  <unicode hex="00E2"/>
  <outline>
    <contour>
      <point x="402" y="472" type="line"/>
      <point x="310" y="93" type="line" smooth="yes"/>
      <point x="309" y="90"/>
      <point x="309" y="87"/>
      <point x="309" y="82" type="curve" smooth="yes"/>
      <point x="309" y="68"/>
      <point x="315" y="59"/>
      <point x="324" y="59" type="curve" smooth="yes"/>
      <point x="339" y="59"/>
      <point x="354" y="68"/>
      <point x="386" y="95" type="curve" smooth="yes"/>
      <point x="390" y="99"/>
      <point x="393" y="101"/>
      <point x="399" y="106" type="curve"/>
      <point x="406" y="85" type="line"/>
      <point x="324" y="17"/>
      <point x="283" y="-9"/>
      <point x="260" y="-9" type="curve" smooth="yes"/>
      <point x="245" y="-9"/>
      <point x="236" y="4"/>
      <point x="236" y="26" type="curve" smooth="yes"/>
      <point x="236" y="42"/>
      <point x="238" y="60"/>
      <point x="242" y="77" type="curve" smooth="yes"/>
      <point x="271" y="204" type="line"/>
      <point x="217" y="128"/>
      <point x="178" y="83"/>
      <point x="136" y="45" type="curve" smooth="yes"/>
      <point x="98" y="11"/>
      <point x="60" y="-11"/>
      <point x="38" y="-11" type="curve" smooth="yes"/>
      <point x="19" y="-11"/>
      <point x="4" y="23"/>
      <point x="4" y="67" type="curve" smooth="yes"/>
      <point x="4" y="145"/>
      <point x="35" y="265"/>
      <point x="79" y="354" type="curve" smooth="yes"/>
      <point x="104" y="403"/>
      <point x="137" y="433"/>
      <point x="199" y="464" type="curve" smooth="yes"/>
      <point x="226" y="477"/>
      <point x="246" y="482"/>
      <point x="274" y="482" type="curve" smooth="yes"/>
      <point x="301" y="482"/>
      <point x="318" y="478"/>
      <point x="359" y="463" type="curve"/>
      <point x="392" y="481" type="line"/>
    </contour>
    <contour>
      <point x="319" y="414" type="curve"/>
      <point x="275" y="429"/>
      <point x="257" y="433"/>
      <point x="234" y="433" type="curve" smooth="yes"/>
      <point x="186" y="433"/>
      <point x="163" y="415"/>
      <point x="139" y="360" type="curve" smooth="yes"/>
      <point x="104" y="280"/>
      <point x="76" y="163"/>
      <point x="76" y="99" type="curve" smooth="yes"/>
      <point x="76" y="72"/>
      <point x="82" y="59"/>
      <point x="94" y="59" type="curve" smooth="yes"/>
      <point x="126" y="59"/>
      <point x="187" y="117"/>
      <point x="244" y="201" type="curve"/>
      <point x="278" y="253"/>
      <point x="297" y="305"/>
    </contour>
    <contour>
      <point x="318" y="679" type="line"/>
      <point x="406" y="510" type="line"/>
      <point x="370" y="510" type="line"/>
      <point x="288" y="614" type="line"/>
      <point x="151" y="510" type="line"/>
      <point x="112" y="510" type="line"/>
      <point x="269" y="679" type="line"/>
    </contour>
  </outline>
</glyph>
<glyph name="atilde" format="1">
  <advance width="444"/>
  <unicode hex="00E3"/>
  <outline>
    <contour>
      <point x="402" y="472" type="line"/>
      <point x="310" y="93" type="line" smooth="yes"/>
      <point x="309" y="90"/>
      <point x="309" y="87"/>
      <point x="309" y="82" type="curve" smooth="yes"/>
      <point x="309" y="68"/>
      <point x="315" y="59"/>
      <point x="324" y="59" type="curve" smooth="yes"/>
      <point x="339" y="59"/>
      <point x="354" y="68"/>
      <point x="386" y="95" type="curve" smooth="yes"/>
      <point x="390" y="99"/>
      <point x="393" y="101"/>
      <point x="399" y="106" type="curve"/>
      <point x="406" y="85" type="line"/>
      <point x="324" y="17"/>
      <point x="283" y="-9"/>
      <point x="260" y="-9" type="curve" smooth="yes"/>
      <point x="245" y="-9"/>
      <point x="236" y="4"/>
      <point x="236" y="26" type="curve" smooth="yes"/>
      <point x="236" y="42"/>
      <point x="238" y="60"/>
      <point x="242" y="77" type="curve" smooth="yes"/>
      <point x="271" y="204" type="line"/>
      <point x="217" y="128"/>
      <point x="178" y="83"/>
      <point x="136" y="45" type="curve" smooth="yes"/>
      <point x="98" y="11"/>
      <point x="60" y="-11"/>
      <point x="38" y="-11" type="curve" smooth="yes"/>
      <point x="19" y="-11"/>
      <point x="4" y="23"/>
      <point x="4" y="67" type="curve" smooth="yes"/>
      <point x="4" y="145"/>
      <point x="35" y="265"/>
      <point x="79" y="354" type="curve" smooth="yes"/>
      <point x="104" y="403"/>
      <point x="137" y="433"/>
      <point x="199" y="464" type="curve" smooth="yes"/>
      <point x="226" y="477"/>
      <point x="246" y="482"/>
      <point x="274" y="482" type="curve" smooth="yes"/>
      <point x="301" y="482"/>
      <point x="318" y="478"/>
      <point x="359" y="463" type="curve"/>
      <point x="392" y="481" type="line"/>
    </contour>
    <contour>
      <point x="319" y="414" type="curve"/>
      <point x="275" y="429"/>
      <point x="257" y="433"/>
      <point x="234" y="433" type="curve" smooth="yes"/>
      <point x="186" y="433"/>
      <point x="163" y="415"/>
      <point x="139" y="360" type="curve" smooth="yes"/>
      <point x="104" y="280"/>
      <point x="76" y="163"/>
      <point x="76" y="99" type="curve" smooth="yes"/>
      <point x="76" y="72"/>
      <point x="82" y="59"/>
      <point x="94" y="59" type="curve" smooth="yes"/>
      <point x="126" y="59"/>
      <point x="187" y="117"/>
      <point x="244" y="201" type="curve"/>
      <point x="278" y="253"/>
      <point x="297" y="305"/>
    </contour>
    <contour>
      <point x="148" y="535" type="curve"/>
      <point x="119" y="535" type="line"/>
      <point x="139" y="608"/>
      <point x="168" y="638"/>
      <point x="217" y="638" type="curve" smooth="yes"/>
      <point x="236" y="638"/>
      <point x="257" y="633"/>
      <point x="280" y="624" type="curve" smooth="yes"/>
      <point x="340" y="600" type="line" smooth="yes"/>
      <point x="347" y="597"/>
      <point x="358" y="595"/>
      <point x="367" y="595" type="curve" smooth="yes"/>
      <point x="387" y="595"/>
      <point x="398" y="604"/>
      <point x="418" y="638" type="curve"/>
      <point x="446" y="638" type="line"/>
      <point x="434" y="573"/>
      <point x="398" y="535"/>
      <point x="349" y="535" type="curve" smooth="yes"/>
      <point x="336" y="535"/>
      <point x="308" y="542"/>
      <point x="285" y="551" type="curve" smooth="yes"/>
      <point x="247" y="566" type="line"/>
      <point x="245" y="567" type="line" smooth="yes"/>
      <point x="244" y="567"/>
      <point x="241" y="568"/>
      <point x="238" y="570" type="curve" smooth="yes"/>
      <point x="221" y="577"/>
      <point x="211" y="579"/>
      <point x="200" y="579" type="curve" smooth="yes"/>
      <point x="175" y="579"/>
      <point x="163" y="569"/>
    </contour>
  </outline>
</glyph>
<glyph name="ccedilla" format="1">
  <advance width="407"/>
  <unicode hex="00E7"/>
  <outline>
    <contour>
      <point x="170" y="-10" type="curve"/>
      <point x="133" y="-64" type="line"/>
      <point x="142" y="-63"/>
      <point x="151" y="-62"/>
      <point x="157" y="-62" type="curve" smooth="yes"/>
      <point x="207" y="-62"/>
      <point x="239" y="-89"/>
      <point x="239" y="-132" type="curve" smooth="yes"/>
      <point x="239" y="-183"/>
      <point x="191" y="-216"/>
      <point x="116" y="-216" type="curve" smooth="yes"/>
      <point x="89" y="-216"/>
      <point x="70" y="-212"/>
      <point x="28" y="-196" type="curve"/>
      <point x="45" y="-167" type="line"/>
      <point x="80" y="-178"/>
      <point x="95" y="-181"/>
      <point x="114" y="-181" type="curve" smooth="yes"/>
      <point x="145" y="-181"/>
      <point x="167" y="-162"/>
      <point x="167" y="-136" type="curve" smooth="yes"/>
      <point x="167" y="-114"/>
      <point x="148" y="-98"/>
      <point x="120" y="-98" type="curve" smooth="yes"/>
      <point x="112" y="-98"/>
      <point x="104" y="-99"/>
      <point x="87" y="-104" type="curve"/>
      <point x="78" y="-96" type="line"/>
      <point x="132" y="-10" type="line"/>
      <point x="61" y="-3"/>
      <point x="25" y="46"/>
      <point x="25" y="136" type="curve" smooth="yes"/>
      <point x="25" y="241"/>
      <point x="63" y="346"/>
      <point x="118" y="395" type="curve" smooth="yes"/>
      <point x="174" y="446"/>
      <point x="248" y="482"/>
      <point x="293" y="482" type="curve" smooth="yes"/>
      <point x="330" y="482"/>
      <point x="365" y="473"/>
      <point x="389" y="458" type="curve"/>
      <point x="380" y="432"/>
      <point x="373" y="395"/>
      <point x="365" y="330" type="curve"/>
      <point x="342" y="330" type="line"/>
      <point x="342" y="390" type="line" smooth="yes"/>
      <point x="342" y="414"/>
      <point x="306" y="433"/>
      <point x="261" y="433" type="curve" smooth="yes"/>
      <point x="230" y="433"/>
      <point x="206" y="425"/>
      <point x="185" y="409" type="curve" smooth="yes"/>
      <point x="136" y="371"/>
      <point x="101" y="267"/>
      <point x="101" y="159" type="curve" smooth="yes"/>
      <point x="101" y="80"/>
      <point x="130" y="40"/>
      <point x="186" y="40" type="curve" smooth="yes"/>
      <point x="221" y="40"/>
      <point x="259" y="57"/>
      <point x="331" y="105" type="curve" smooth="yes"/>
      <point x="346" y="115" type="line"/>
      <point x="354" y="95" type="line"/>
      <point x="304" y="54" type="line" smooth="yes"/>
      <point x="257" y="15"/>
      <point x="215" y="-5"/>
    </contour>
  </outline>
</glyph>
<glyph name="icircumflex" format="1">
  <advance width="278"/>
  <unicode hex="00EE"/>
  <outline>
    <contour>
      <point x="34" y="388" type="line"/>
      <point x="62" y="408" type="line" smooth="yes"/>
      <point x="137" y="461"/>
      <point x="174" y="482"/>
      <point x="196" y="482" type="curve" smooth="yes"/>
      <point x="212" y="482"/>
      <point x="221" y="473"/>
      <point x="221" y="456" type="curve" smooth="yes"/>
      <point x="221" y="448"/>
      <point x="219" y="436"/>
      <point x="215" y="420" type="curve" smooth="yes"/>
      <point x="138" y="116" type="line" smooth="yes"/>
      <point x="132" y="94"/>
      <point x="131" y="86"/>
      <point x="131" y="76" type="curve" smooth="yes"/>
      <point x="131" y="65"/>
      <point x="137" y="56"/>
      <point x="144" y="56" type="curve" smooth="yes"/>
      <point x="154" y="56"/>
      <point x="176" y="67"/>
      <point x="205" y="86" type="curve" smooth="yes"/>
      <point x="231" y="103" type="line"/>
      <point x="241" y="85" type="line"/>
      <point x="143" y="12"/>
      <point x="107" y="-9"/>
      <point x="81" y="-9" type="curve" smooth="yes"/>
      <point x="62" y="-9"/>
      <point x="51" y="6"/>
      <point x="51" y="30" type="curve" smooth="yes"/>
      <point x="51" y="50"/>
      <point x="55" y="76"/>
      <point x="64" y="107" type="curve" smooth="yes"/>
      <point x="130" y="347" type="line" smooth="yes"/>
      <point x="134" y="361"/>
      <point x="138" y="384"/>
      <point x="138" y="391" type="curve" smooth="yes"/>
      <point x="138" y="403"/>
      <point x="131" y="412"/>
      <point x="121" y="412" type="curve" smooth="yes"/>
      <point x="112" y="412"/>
      <point x="102" y="407"/>
      <point x="73" y="389" type="curve" smooth="yes"/>
      <point x="41" y="368" type="line"/>
    </contour>
    <contour>
      <point x="235" y="679" type="line"/>
      <point x="323" y="510" type="line"/>
      <point x="287" y="510" type="line"/>
      <point x="205" y="614" type="line"/>
      <point x="68" y="510" type="line"/>
      <point x="29" y="510" type="line"/>
      <point x="186" y="679" type="line"/>
    </contour>
  </outline>
</glyph>
<glyph name="eth" format="1">
  <advance width="444"/>
  <unicode hex="00F0"/>
  <outline>
    <contour>
      <point x="156" y="545" type="line"/>
      <point x="285" y="610" type="line"/>
      <point x="254" y="652"/>
      <point x="221" y="676"/>
      <point x="180" y="688" type="curve"/>
      <point x="200" y="733" type="line"/>
      <point x="263" y="700"/>
      <point x="297" y="673"/>
      <point x="331" y="630" type="curve"/>
      <point x="466" y="696" type="line"/>
      <point x="478" y="667" type="line"/>
      <point x="348" y="604" type="line"/>
      <point x="387" y="519"/>
      <point x="407" y="433"/>
      <point x="407" y="352" type="curve" smooth="yes"/>
      <point x="407" y="239"/>
      <point x="365" y="125"/>
      <point x="295" y="52" type="curve" smooth="yes"/>
      <point x="257" y="12"/>
      <point x="203" y="-11"/>
      <point x="149" y="-11" type="curve" smooth="yes"/>
      <point x="63" y="-11"/>
      <point x="17" y="44"/>
      <point x="17" y="149" type="curve" smooth="yes"/>
      <point x="17" y="252"/>
      <point x="55" y="352"/>
      <point x="120" y="419" type="curve" smooth="yes"/>
      <point x="159" y="459"/>
      <point x="213" y="482"/>
      <point x="267" y="482" type="curve" smooth="yes"/>
      <point x="292" y="482"/>
      <point x="308" y="478"/>
      <point x="336" y="462" type="curve"/>
      <point x="335" y="502"/>
      <point x="324" y="542"/>
      <point x="303" y="582" type="curve"/>
      <point x="168" y="516" type="line"/>
    </contour>
    <contour>
      <point x="245" y="444" type="curve" smooth="yes"/>
      <point x="200" y="444"/>
      <point x="167" y="422"/>
      <point x="140" y="376" type="curve" smooth="yes"/>
      <point x="112" y="327"/>
      <point x="93" y="238"/>
      <point x="93" y="159" type="curve" smooth="yes"/>
      <point x="93" y="72"/>
      <point x="124" y="27"/>
      <point x="185" y="27" type="curve" smooth="yes"/>
      <point x="227" y="27"/>
      <point x="259" y="49"/>
      <point x="286" y="97" type="curve" smooth="yes"/>
      <point x="315" y="149"/>
      <point x="336" y="243"/>
      <point x="336" y="326" type="curve" smooth="yes"/>
      <point x="336" y="406"/>
      <point x="307" y="444"/>
    </contour>
  </outline>
</glyph>
<glyph name="divide" format="1">
  <advance width="606"/>
  <unicode hex="00F7"/>
  <outline>
    <contour>
      <point x="51" y="224" type="line"/>
      <point x="51" y="280" type="line"/>
      <point x="555" y="280" type="line"/>
      <point x="555" y="224" type="line"/>
    </contour>
    <contour>
      <point x="304" y="504" type="curve" smooth="yes"/>
      <point x="333" y="504"/>
      <point x="353" y="483"/>
      <point x="353" y="454" type="curve" smooth="yes"/>
      <point x="353" y="424"/>
      <point x="333" y="404"/>
      <point x="303" y="404" type="curve" smooth="yes"/>
      <point x="273" y="404"/>
      <point x="253" y="424"/>
      <point x="253" y="454" type="curve" smooth="yes"/>
      <point x="253" y="484"/>
      <point x="273" y="504"/>
    </contour>
    <contour>
      <point x="304" y="100" type="curve" smooth="yes"/>
      <point x="333" y="100"/>
      <point x="353" y="79"/>
      <point x="353" y="50" type="curve" smooth="yes"/>
      <point x="353" y="20"/>
      <point x="333" y="0"/>
      <point x="303" y="0" type="curve" smooth="yes"/>
      <point x="273" y="0"/>
      <point x="253" y="20"/>
      <point x="253" y="50" type="curve" smooth="yes"/>
      <point x="253" y="80"/>
      <point x="273" y="100"/>
    </contour>
  </outline>
</glyph>
<glyph name="oslash" format="1">
  <advance width="444"/>
  <unicode hex="00F8"/>
  <outline>
    <contour>
      <point x="376" y="442" type="curve"/>
      <point x="436" y="510" type="line"/>
      <point x="460" y="490" type="line"/>
      <point x="394" y="415" type="line"/>
      <point x="405" y="388"/>
      <point x="411" y="361"/>
      <point x="411" y="330" type="curve" smooth="yes"/>
      <point x="411" y="244"/>
      <point x="376" y="141"/>
      <point x="326" y="80" type="curve" smooth="yes"/>
      <point x="281" y="25"/>
      <point x="209" y="-11"/>
      <point x="146" y="-11" type="curve" smooth="yes"/>
      <point x="104" y="-11"/>
      <point x="77" y="1"/>
      <point x="52" y="29" type="curve"/>
      <point x="6" y="-24" type="line"/>
      <point x="-18" y="-4" type="line"/>
      <point x="35" y="56" type="line"/>
      <point x="21" y="84"/>
      <point x="16" y="110"/>
      <point x="16" y="150" type="curve" smooth="yes"/>
      <point x="16" y="250"/>
      <point x="53" y="347"/>
      <point x="117" y="414" type="curve" smooth="yes"/>
      <point x="158" y="457"/>
      <point x="216" y="482"/>
      <point x="277" y="482" type="curve" smooth="yes"/>
      <point x="320" y="482"/>
      <point x="349" y="471"/>
    </contour>
    <contour>
      <point x="333" y="346" type="line"/>
      <point x="103" y="86" type="line"/>
      <point x="120" y="45"/>
      <point x="144" y="27"/>
      <point x="185" y="27" type="curve" smooth="yes"/>
      <point x="226" y="27"/>
      <point x="258" y="49"/>
      <point x="285" y="97" type="curve" smooth="yes"/>
      <point x="313" y="146"/>
      <point x="335" y="240"/>
      <point x="335" y="312" type="curve" smooth="yes"/>
      <point x="335" y="318"/>
      <point x="334" y="326"/>
      <point x="333" y="335" type="curve"/>
    </contour>
    <contour>
      <point x="95" y="124" type="curve"/>
      <point x="325" y="384" type="line"/>
      <point x="307" y="426"/>
      <point x="283" y="444"/>
      <point x="242" y="444" type="curve" smooth="yes"/>
      <point x="199" y="444"/>
      <point x="166" y="422"/>
      <point x="139" y="376" type="curve" smooth="yes"/>
      <point x="111" y="327"/>
      <point x="92" y="238"/>
      <point x="92" y="159" type="curve" smooth="yes"/>
      <point x="92" y="148"/>
      <point x="93" y="139"/>
    </contour>
  </outline>
</glyph>
<glyph name="thorn" format="1">
  <advance width="500"/>
  <unicode hex="00FE"/>
  <outline>
    <contour>
      <point x="41" y="-259" type="line"/>
      <point x="-32" y="-276" type="line"/>
      <point x="-39" y="-270" type="line"/>
      <point x="-31" y="-233" type="line" smooth="yes"/>
      <point x="-19" y="-180"/>
      <point x="7" y="-50"/>
      <point x="18" y="8" type="curve" smooth="yes"/>
      <point x="130" y="622" type="line" smooth="yes"/>
      <point x="131" y="629"/>
      <point x="132" y="638"/>
      <point x="132" y="646" type="curve" smooth="yes"/>
      <point x="132" y="663"/>
      <point x="122" y="670"/>
      <point x="98" y="670" type="curve" smooth="yes"/>
      <point x="50" y="670" type="line"/>
      <point x="54" y="691" type="line"/>
      <point x="126" y="698"/>
      <point x="162" y="707"/>
      <point x="214" y="733" type="curve"/>
      <point x="226" y="722" type="line"/>
      <point x="132" y="288" type="line"/>
      <point x="166" y="346"/>
      <point x="185" y="370"/>
      <point x="223" y="406" type="curve"/>
      <point x="276" y="454"/>
      <point x="331" y="482"/>
      <point x="374" y="482" type="curve" smooth="yes"/>
      <point x="410" y="482"/>
      <point x="433" y="438"/>
      <point x="433" y="371" type="curve" smooth="yes"/>
      <point x="433" y="296"/>
      <point x="399" y="186"/>
      <point x="358" y="125" type="curve" smooth="yes"/>
      <point x="315" y="62"/>
      <point x="200" y="-11"/>
      <point x="144" y="-11" type="curve" smooth="yes"/>
      <point x="133" y="-11"/>
      <point x="118" y="-8"/>
      <point x="92" y="0" type="curve" smooth="yes"/>
      <point x="83" y="3" type="line"/>
    </contour>
    <contour>
      <point x="111" y="165" type="curve" smooth="yes"/>
      <point x="93" y="59" type="line"/>
      <point x="119" y="43"/>
      <point x="144" y="36"/>
      <point x="175" y="36" type="curve" smooth="yes"/>
      <point x="216" y="36"/>
      <point x="248" y="51"/>
      <point x="268" y="80" type="curve" smooth="yes"/>
      <point x="321" y="156"/>
      <point x="361" y="275"/>
      <point x="361" y="356" type="curve" smooth="yes"/>
      <point x="361" y="402"/>
      <point x="349" y="424"/>
      <point x="323" y="424" type="curve" smooth="yes"/>
      <point x="240" y="424"/>
      <point x="133" y="293"/>
    </contour>
  </outline>
</glyph>
<glyph name="abreve" format="1">
  <advance width="444"/>
  <unicode hex="0103"/>
  <outline>
    <contour>
      <point x="402" y="472" type="line"/>
      <point x="310" y="93" type="line" smooth="yes"/>
      <point x="309" y="90"/>
      <point x="309" y="87"/>
      <point x="309" y="82" type="curve" smooth="yes"/>
      <point x="309" y="68"/>
      <point x="315" y="59"/>
      <point x="324" y="59" type="curve" smooth="yes"/>
      <point x="339" y="59"/>
      <point x="354" y="68"/>
      <point x="386" y="95" type="curve" smooth="yes"/>
      <point x="390" y="99"/>
      <point x="393" y="101"/>
      <point x="399" y="106" type="curve"/>
      <point x="406" y="85" type="line"/>
      <point x="324" y="17"/>
      <point x="283" y="-9"/>
      <point x="260" y="-9" type="curve" smooth="yes"/>
      <point x="245" y="-9"/>
      <point x="236" y="4"/>
      <point x="236" y="26" type="curve" smooth="yes"/>
      <point x="236" y="42"/>
      <point x="238" y="60"/>
      <point x="242" y="77" type="curve" smooth="yes"/>
      <point x="271" y="204" type="line"/>
      <point x="217" y="128"/>
      <point x="178" y="83"/>
      <point x="136" y="45" type="curve" smooth="yes"/>
      <point x="98" y="11"/>
      <point x="60" y="-11"/>
      <point x="38" y="-11" type="curve" smooth="yes"/>
      <point x="19" y="-11"/>
      <point x="4" y="23"/>
      <point x="4" y="67" type="curve" smooth="yes"/>
      <point x="4" y="145"/>
      <point x="35" y="265"/>
      <point x="79" y="354" type="curve" smooth="yes"/>
      <point x="104" y="403"/>
      <point x="137" y="433"/>
      <point x="199" y="464" type="curve" smooth="yes"/>
      <point x="226" y="477"/>
      <point x="246" y="482"/>
      <point x="274" y="482" type="curve" smooth="yes"/>
      <point x="301" y="482"/>
      <point x="318" y="478"/>
      <point x="359" y="463" type="curve"/>
      <point x="392" y="481" type="line"/>
    </contour>
    <contour>
      <point x="319" y="414" type="curve"/>
      <point x="275" y="429"/>
      <point x="257" y="433"/>
      <point x="234" y="433" type="curve" smooth="yes"/>
      <point x="186" y="433"/>
      <point x="163" y="415"/>
      <point x="139" y="360" type="curve" smooth="yes"/>
      <point x="104" y="280"/>
      <point x="76" y="163"/>
      <point x="76" y="99" type="curve" smooth="yes"/>
      <point x="76" y="72"/>
      <point x="82" y="59"/>
      <point x="94" y="59" type="curve" smooth="yes"/>
      <point x="126" y="59"/>
      <point x="187" y="117"/>
      <point x="244" y="201" type="curve"/>
      <point x="278" y="253"/>
      <point x="297" y="305"/>
    </contour>
    <contour>
      <point x="148" y="677" type="curve"/>
      <point x="177" y="677" type="line"/>
      <point x="183" y="611"/>
      <point x="220" y="577"/>
      <point x="286" y="577" type="curve" smooth="yes"/>
      <point x="346" y="577"/>
      <point x="382" y="604"/>
      <point x="420" y="677" type="curve"/>
      <point x="449" y="677" type="line"/>
      <point x="435" y="625"/>
      <point x="425" y="603"/>
      <point x="404" y="577" type="curve" smooth="yes"/>
      <point x="372" y="537"/>
      <point x="331" y="518"/>
      <point x="279" y="518" type="curve" smooth="yes"/>
      <point x="227" y="518"/>
      <point x="189" y="538"/>
      <point x="168" y="576" type="curve" smooth="yes"/>
      <point x="153" y="603"/>
      <point x="148" y="626"/>
    </contour>
  </outline>
</glyph>
<glyph name="Aogonek" format="1">
  <advance width="722"/>
  <unicode hex="0104"/>
  <outline>
    <contour>
      <point x="677" y="25" type="line"/>
      <point x="677" y="-3" type="line"/>
      <point x="670" y="-4"/>
      <point x="670" y="-4"/>
      <point x="660" y="-15" type="curve" smooth="yes"/>
      <point x="636" y="-44"/>
      <point x="626" y="-64"/>
      <point x="626" y="-85" type="curve" smooth="yes"/>
      <point x="626" y="-111"/>
      <point x="642" y="-131"/>
      <point x="664" y="-131" type="curve" smooth="yes"/>
      <point x="681" y="-131"/>
      <point x="694" y="-122"/>
      <point x="714" y="-97" type="curve"/>
      <point x="728" y="-101" type="line"/>
      <point x="695" y="-160"/>
      <point x="663" y="-187"/>
      <point x="623" y="-187" type="curve" smooth="yes"/>
      <point x="591" y="-187"/>
      <point x="570" y="-161"/>
      <point x="570" y="-122" type="curve" smooth="yes"/>
      <point x="570" y="-86"/>
      <point x="584" y="-59"/>
      <point x="630" y="-10" type="curve"/>
      <point x="637" y="-2" type="line"/>
      <point x="578" y="0"/>
      <point x="574" y="0"/>
      <point x="555" y="0" type="curve" smooth="yes"/>
      <point x="535" y="0"/>
      <point x="535" y="0"/>
      <point x="433" y="-3" type="curve"/>
      <point x="433" y="25" type="line"/>
      <point x="477" y="28" type="line" smooth="yes"/>
      <point x="505" y="30"/>
      <point x="520" y="39"/>
      <point x="520" y="55" type="curve" smooth="yes"/>
      <point x="520" y="59"/>
      <point x="519" y="69"/>
      <point x="518" y="77" type="curve" smooth="yes"/>
      <point x="517" y="82"/>
      <point x="516" y="85"/>
      <point x="516" y="86" type="curve" smooth="yes"/>
      <point x="516" y="89" type="line"/>
      <point x="491" y="277" type="line"/>
      <point x="245" y="277" type="line"/>
      <point x="143" y="102" type="line" smooth="yes"/>
      <point x="124" y="69"/>
      <point x="117" y="55"/>
      <point x="117" y="47" type="curve" smooth="yes"/>
      <point x="117" y="38"/>
      <point x="132" y="29"/>
      <point x="148" y="28" type="curve" smooth="yes"/>
      <point x="200" y="25" type="line"/>
      <point x="200" y="-3" type="line"/>
      <point x="114" y="0"/>
      <point x="112" y="0"/>
      <point x="93" y="0" type="curve" smooth="yes"/>
      <point x="73" y="0"/>
      <point x="73" y="0"/>
      <point x="-19" y="-3" type="curve"/>
      <point x="-19" y="27" type="line"/>
      <point x="1" y="32" type="line" smooth="yes"/>
      <point x="35" y="40"/>
      <point x="53" y="56"/>
      <point x="89" y="112" type="curve" smooth="yes"/>
      <point x="462" y="705" type="line"/>
      <point x="508" y="705" type="line"/>
      <point x="595" y="80" type="line"/>
      <point x="603" y="35"/>
      <point x="604" y="35"/>
      <point x="651" y="28" type="curve"/>
    </contour>
    <contour>
      <point x="449" y="601" type="line"/>
      <point x="270" y="313" type="line"/>
      <point x="486" y="313" type="line"/>
    </contour>
  </outline>
</glyph>
<glyph name="aogonek" format="1">
  <advance width="444"/>
  <unicode hex="0105"/>
  <outline>
    <contour>
      <point x="402" y="472" type="line"/>
      <point x="310" y="93" type="line" smooth="yes"/>
      <point x="309" y="90"/>
      <point x="309" y="87"/>
      <point x="309" y="82" type="curve" smooth="yes"/>
      <point x="309" y="68"/>
      <point x="315" y="59"/>
      <point x="324" y="59" type="curve" smooth="yes"/>
      <point x="339" y="59"/>
      <point x="354" y="68"/>
      <point x="386" y="95" type="curve" smooth="yes"/>
      <point x="390" y="99"/>
      <point x="393" y="101"/>
      <point x="399" y="106" type="curve"/>
      <point x="406" y="85" type="line"/>
      <point x="364" y="53"/>
      <point x="349" y="39"/>
      <point x="309" y="-8" type="curve" smooth="yes"/>
      <point x="279" y="-43"/>
      <point x="269" y="-63"/>
      <point x="269" y="-85" type="curve" smooth="yes"/>
      <point x="269" y="-112"/>
      <point x="285" y="-131"/>
      <point x="307" y="-131" type="curve" smooth="yes"/>
      <point x="324" y="-131"/>
      <point x="337" y="-122"/>
      <point x="358" y="-97" type="curve"/>
      <point x="372" y="-101" type="line"/>
      <point x="339" y="-161"/>
      <point x="307" y="-187"/>
      <point x="267" y="-187" type="curve" smooth="yes"/>
      <point x="234" y="-187"/>
      <point x="213" y="-161"/>
      <point x="213" y="-122" type="curve" smooth="yes"/>
      <point x="213" y="-86"/>
      <point x="227" y="-60"/>
      <point x="274" y="-10" type="curve"/>
      <point x="278" y="-5" type="line"/>
      <point x="270" y="-8"/>
      <point x="265" y="-9"/>
      <point x="261" y="-9" type="curve" smooth="yes"/>
      <point x="245" y="-9"/>
      <point x="236" y="3"/>
      <point x="236" y="26" type="curve" smooth="yes"/>
      <point x="236" y="42"/>
      <point x="238" y="60"/>
      <point x="242" y="77" type="curve" smooth="yes"/>
      <point x="271" y="204" type="line"/>
      <point x="217" y="128"/>
      <point x="178" y="83"/>
      <point x="136" y="45" type="curve" smooth="yes"/>
      <point x="98" y="11"/>
      <point x="60" y="-11"/>
      <point x="38" y="-11" type="curve" smooth="yes"/>
      <point x="19" y="-11"/>
      <point x="4" y="23"/>
      <point x="4" y="67" type="curve" smooth="yes"/>
      <point x="4" y="145"/>
      <point x="35" y="265"/>
      <point x="79" y="354" type="curve" smooth="yes"/>
      <point x="104" y="403"/>
      <point x="137" y="433"/>
      <point x="199" y="464" type="curve" smooth="yes"/>
      <point x="226" y="477"/>
      <point x="246" y="482"/>
      <point x="274" y="482" type="curve" smooth="yes"/>
      <point x="301" y="482"/>
      <point x="318" y="478"/>
      <point x="359" y="463" type="curve"/>
      <point x="392" y="481" type="line"/>
    </contour>
    <contour>
      <point x="319" y="414" type="curve"/>
      <point x="275" y="429"/>
      <point x="257" y="433"/>
      <point x="234" y="433" type="curve" smooth="yes"/>
      <point x="186" y="433"/>
      <point x="163" y="415"/>
      <point x="139" y="360" type="curve" smooth="yes"/>
      <point x="104" y="280"/>
      <point x="76" y="163"/>
      <point x="76" y="99" type="curve" smooth="yes"/>
      <point x="76" y="72"/>
      <point x="82" y="59"/>
      <point x="94" y="59" type="curve" smooth="yes"/>
      <point x="126" y="59"/>
      <point x="187" y="117"/>
      <point x="244" y="201" type="curve"/>
      <point x="278" y="253"/>
      <point x="297" y="305"/>
    </contour>
  </outline>
</glyph>
<glyph name="cacute" format="1">
  <advance width="407"/>
  <unicode hex="0107"/>
  <outline>
    <contour>
      <point x="342" y="330" type="line"/>
      <point x="342" y="390" type="line" smooth="yes"/>
      <point x="342" y="414"/>
      <point x="306" y="433"/>
      <point x="261" y="433" type="curve" smooth="yes"/>
      <point x="230" y="433"/>
      <point x="206" y="425"/>
      <point x="185" y="409" type="curve" smooth="yes"/>
      <point x="136" y="371"/>
      <point x="101" y="267"/>
      <point x="101" y="159" type="curve" smooth="yes"/>
      <point x="101" y="80"/>
      <point x="130" y="40"/>
      <point x="186" y="40" type="curve" smooth="yes"/>
      <point x="221" y="40"/>
      <point x="259" y="57"/>
      <point x="331" y="105" type="curve" smooth="yes"/>
      <point x="346" y="115" type="line"/>
      <point x="354" y="95" type="line"/>
      <point x="304" y="54" type="line" smooth="yes"/>
      <point x="249" y="9"/>
      <point x="201" y="-11"/>
      <point x="147" y="-11" type="curve" smooth="yes"/>
      <point x="67" y="-11"/>
      <point x="25" y="40"/>
      <point x="25" y="136" type="curve" smooth="yes"/>
      <point x="25" y="241"/>
      <point x="63" y="346"/>
      <point x="118" y="395" type="curve" smooth="yes"/>
      <point x="174" y="446"/>
      <point x="248" y="482"/>
      <point x="293" y="482" type="curve" smooth="yes"/>
      <point x="330" y="482"/>
      <point x="365" y="473"/>
      <point x="389" y="458" type="curve"/>
      <point x="380" y="432"/>
      <point x="373" y="395"/>
      <point x="365" y="330" type="curve"/>
    </contour>
    <contour>
      <point x="199" y="518" type="line"/>
      <point x="352" y="669" type="line" smooth="yes"/>
      <point x="364" y="681"/>
      <point x="375" y="687"/>
      <point x="385" y="687" type="curve" smooth="yes"/>
      <point x="405" y="687"/>
      <point x="423" y="672"/>
      <point x="423" y="656" type="curve" smooth="yes"/>
      <point x="423" y="641"/>
      <point x="416" y="632"/>
      <point x="395" y="619" type="curve" smooth="yes"/>
      <point x="233" y="518" type="line"/>
    </contour>
  </outline>
</glyph>
<glyph name="ccircumflex" format="1">
  <advance width="407"/>
  <unicode hex="0109"/>
  <outline>
    <contour>
      <point x="327" y="751" type="line"/>
      <point x="415" y="582" type="line"/>
      <point x="379" y="582" type="line"/>
      <point x="297" y="686" type="line"/>
      <point x="160" y="582" type="line"/>
      <point x="121" y="582" type="line"/>
      <point x="278" y="751" type="line"/>
    </contour>
    <contour>
      <point x="342" y="330" type="line"/>
      <point x="342" y="390" type="line" smooth="yes"/>
      <point x="342" y="414"/>
      <point x="306" y="433"/>
      <point x="261" y="433" type="curve" smooth="yes"/>
      <point x="230" y="433"/>
      <point x="206" y="425"/>
      <point x="185" y="409" type="curve" smooth="yes"/>
      <point x="136" y="371"/>
      <point x="101" y="267"/>
      <point x="101" y="159" type="curve" smooth="yes"/>
      <point x="101" y="80"/>
      <point x="130" y="40"/>
      <point x="186" y="40" type="curve" smooth="yes"/>
      <point x="221" y="40"/>
      <point x="259" y="57"/>
      <point x="331" y="105" type="curve" smooth="yes"/>
      <point x="346" y="115" type="line"/>
      <point x="354" y="95" type="line"/>
      <point x="304" y="54" type="line" smooth="yes"/>
      <point x="249" y="9"/>
      <point x="201" y="-11"/>
      <point x="147" y="-11" type="curve" smooth="yes"/>
      <point x="67" y="-11"/>
      <point x="25" y="40"/>
      <point x="25" y="136" type="curve" smooth="yes"/>
      <point x="25" y="241"/>
      <point x="63" y="346"/>
      <point x="118" y="395" type="curve" smooth="yes"/>
      <point x="174" y="446"/>
      <point x="248" y="482"/>
      <point x="293" y="482" type="curve" smooth="yes"/>
      <point x="330" y="482"/>
      <point x="365" y="473"/>
      <point x="389" y="458" type="curve"/>
      <point x="380" y="432"/>
      <point x="373" y="395"/>
      <point x="365" y="330" type="curve"/>
    </contour>
  </outline>
</glyph>
<glyph name="emacron" format="1">
  <advance width="389"/>
  <unicode hex="0113"/>
  <outline>
    <contour>
      <point x="328" y="111" type="line"/>
      <point x="336" y="92" type="line"/>
      <point x="244" y="17"/>
      <point x="188" y="-11"/>
      <point x="131" y="-11" type="curve" smooth="yes"/>
      <point x="59" y="-11"/>
      <point x="15" y="35"/>
      <point x="15" y="113" type="curve" smooth="yes"/>
      <point x="15" y="180"/>
      <point x="45" y="299"/>
      <point x="75" y="349" type="curve" smooth="yes"/>
      <point x="114" y="413"/>
      <point x="225" y="482"/>
      <point x="290" y="482" type="curve" smooth="yes"/>
      <point x="340" y="482"/>
      <point x="374" y="451"/>
      <point x="374" y="404" type="curve" smooth="yes"/>
      <point x="374" y="342"/>
      <point x="335" y="296"/>
      <point x="250" y="259" type="curve" smooth="yes"/>
      <point x="225" y="248"/>
      <point x="198" y="238"/>
      <point x="181" y="234" type="curve" smooth="yes"/>
      <point x="99" y="214" type="line"/>
      <point x="94" y="185"/>
      <point x="91" y="158"/>
      <point x="91" y="133" type="curve" smooth="yes"/>
      <point x="91" y="73"/>
      <point x="120" y="36"/>
      <point x="167" y="36" type="curve" smooth="yes"/>
      <point x="203" y="36"/>
      <point x="251" y="56"/>
      <point x="304" y="94" type="curve" smooth="yes"/>
    </contour>
    <contour>
      <point x="113" y="274" type="curve" smooth="yes"/>
      <point x="104" y="237" type="line"/>
      <point x="149" y="247"/>
      <point x="185" y="258"/>
      <point x="213" y="272" type="curve" smooth="yes"/>
      <point x="265" y="297"/>
      <point x="300" y="344"/>
      <point x="300" y="388" type="curve" smooth="yes"/>
      <point x="300" y="420"/>
      <point x="281" y="440"/>
      <point x="252" y="440" type="curve" smooth="yes"/>
      <point x="228" y="440"/>
      <point x="197" y="428"/>
      <point x="179" y="412" type="curve" smooth="yes"/>
      <point x="150" y="386"/>
      <point x="130" y="343"/>
    </contour>
    <contour>
      <point x="414" y="589" type="line"/>
      <point x="403" y="538" type="line"/>
      <point x="102" y="538" type="line"/>
      <point x="113" y="589" type="line"/>
    </contour>
  </outline>
</glyph>
<glyph name="eogonek" format="1">
  <advance width="389"/>
  <unicode hex="0119"/>
  <outline>
    <contour>
      <point x="328" y="111" type="line"/>
      <point x="336" y="92" type="line"/>
      <point x="280" y="48"/>
      <point x="228" y="5"/>
      <point x="214" y="-9" type="curve" smooth="yes"/>
      <point x="190" y="-34"/>
      <point x="175" y="-62"/>
      <point x="175" y="-85" type="curve" smooth="yes"/>
      <point x="175" y="-112"/>
      <point x="191" y="-131"/>
      <point x="213" y="-131" type="curve" smooth="yes"/>
      <point x="230" y="-131"/>
      <point x="243" y="-122"/>
      <point x="263" y="-97" type="curve"/>
      <point x="277" y="-101" type="line"/>
      <point x="245" y="-160"/>
      <point x="212" y="-187"/>
      <point x="173" y="-187" type="curve" smooth="yes"/>
      <point x="140" y="-187"/>
      <point x="119" y="-161"/>
      <point x="119" y="-122" type="curve" smooth="yes"/>
      <point x="119" y="-86"/>
      <point x="133" y="-60"/>
      <point x="180" y="-10" type="curve"/>
      <point x="187" y="-1" type="line"/>
      <point x="165" y="-8"/>
      <point x="150" y="-11"/>
      <point x="132" y="-11" type="curve" smooth="yes"/>
      <point x="59" y="-11"/>
      <point x="15" y="35"/>
      <point x="15" y="113" type="curve" smooth="yes"/>
      <point x="15" y="180"/>
      <point x="45" y="299"/>
      <point x="75" y="349" type="curve" smooth="yes"/>
      <point x="114" y="413"/>
      <point x="225" y="482"/>
      <point x="290" y="482" type="curve" smooth="yes"/>
      <point x="340" y="482"/>
      <point x="374" y="451"/>
      <point x="374" y="404" type="curve" smooth="yes"/>
      <point x="374" y="342"/>
      <point x="335" y="296"/>
      <point x="250" y="259" type="curve" smooth="yes"/>
      <point x="225" y="248"/>
      <point x="198" y="238"/>
      <point x="181" y="234" type="curve" smooth="yes"/>
      <point x="99" y="214" type="line"/>
      <point x="94" y="185"/>
      <point x="91" y="158"/>
      <point x="91" y="133" type="curve" smooth="yes"/>
      <point x="91" y="73"/>
      <point x="120" y="36"/>
      <point x="167" y="36" type="curve" smooth="yes"/>
      <point x="203" y="36"/>
      <point x="251" y="56"/>
      <point x="304" y="94" type="curve" smooth="yes"/>
    </contour>
    <contour>
      <point x="113" y="274" type="curve" smooth="yes"/>
      <point x="104" y="237" type="line"/>
      <point x="149" y="247"/>
      <point x="185" y="258"/>
      <point x="213" y="272" type="curve" smooth="yes"/>
      <point x="265" y="297"/>
      <point x="300" y="344"/>
      <point x="300" y="388" type="curve" smooth="yes"/>
      <point x="300" y="420"/>
      <point x="281" y="440"/>
      <point x="252" y="440" type="curve" smooth="yes"/>
      <point x="228" y="440"/>
      <point x="197" y="428"/>
      <point x="179" y="412" type="curve" smooth="yes"/>
      <point x="150" y="386"/>
      <point x="130" y="343"/>
    </contour>
  </outline>
</glyph>
<glyph name="Gcircumflex" format="1">
  <advance width="722"/>
  <unicode hex="011C"/>
  <outline>
    <contour>
      <point x="519" y="961" type="line"/>
      <point x="607" y="792" type="line"/>
      <point x="571" y="792" type="line"/>
      <point x="489" y="896" type="line"/>
      <point x="352" y="792" type="line"/>
      <point x="313" y="792" type="line"/>
      <point x="470" y="961" type="line"/>
    </contour>
    <contour>
      <point x="528" y="60" type="curve"/>
      <point x="546" y="153" type="line" smooth="yes"/>
      <point x="551" y="177"/>
      <point x="553" y="197"/>
      <point x="553" y="212" type="curve" smooth="yes"/>
      <point x="553" y="236"/>
      <point x="544" y="240"/>
      <point x="469" y="244" type="curve" smooth="yes"/>
      <point x="435" y="246" type="line"/>
      <point x="440" y="274" type="line"/>
      <point x="482" y="270"/>
      <point x="518" y="269"/>
      <point x="569" y="269" type="curve" smooth="yes"/>
      <point x="620" y="269"/>
      <point x="655" y="270"/>
      <point x="694" y="274" type="curve"/>
      <point x="692" y="246" type="line"/>
      <point x="660" y="240" type="line" smooth="yes"/>
      <point x="647" y="238"/>
      <point x="635" y="228"/>
      <point x="633" y="219" type="curve" smooth="yes"/>
      <point x="610" y="84" type="line" smooth="yes"/>
      <point x="609" y="80"/>
      <point x="609" y="76"/>
      <point x="609" y="73" type="curve" smooth="yes"/>
      <point x="609" y="66"/>
      <point x="610" y="58"/>
      <point x="612" y="44" type="curve"/>
      <point x="608" y="37" type="line"/>
      <point x="595" y="35"/>
      <point x="578" y="31"/>
      <point x="552" y="22" type="curve" smooth="yes"/>
      <point x="522" y="12" type="line" smooth="yes"/>
      <point x="461" y="-9"/>
      <point x="409" y="-18"/>
      <point x="355" y="-18" type="curve" smooth="yes"/>
      <point x="159" y="-18"/>
      <point x="50" y="87"/>
      <point x="50" y="274" type="curve" smooth="yes"/>
      <point x="50" y="424"/>
      <point x="112" y="548"/>
      <point x="229" y="632" type="curve" smooth="yes"/>
      <point x="301" y="683"/>
      <point x="374" y="706"/>
      <point x="466" y="706" type="curve" smooth="yes"/>
      <point x="535" y="706"/>
      <point x="592" y="695"/>
      <point x="675" y="665" type="curve"/>
      <point x="661" y="619"/>
      <point x="653" y="576"/>
      <point x="648" y="519" type="curve"/>
      <point x="621" y="519" type="line"/>
      <point x="621" y="603" type="line"/>
      <point x="565" y="639"/>
      <point x="511" y="653"/>
      <point x="434" y="653" type="curve" smooth="yes"/>
      <point x="351" y="653"/>
      <point x="286" y="629"/>
      <point x="237" y="579" type="curve" smooth="yes"/>
      <point x="173" y="515"/>
      <point x="138" y="414"/>
      <point x="138" y="297" type="curve" smooth="yes"/>
      <point x="138" y="120"/>
      <point x="224" y="27"/>
      <point x="390" y="27" type="curve" smooth="yes"/>
      <point x="444" y="27"/>
      <point x="483" y="36"/>
    </contour>
  </outline>
</glyph>
<glyph name="Hbar" format="1">
  <advance width="778"/>
  <unicode hex="0126"/>
  <outline>
    <contour>
      <point x="253" y="559" type="line"/>
      <point x="621" y="559" type="line"/>
      <point x="626" y="589"/>
      <point x="630" y="621"/>
      <point x="630" y="635" type="curve" smooth="yes"/>
      <point x="630" y="653"/>
      <point x="619" y="661"/>
      <point x="595" y="662" type="curve" smooth="yes"/>
      <point x="547" y="664" type="line"/>
      <point x="550" y="692" type="line"/>
      <point x="613" y="690" type="line" smooth="yes"/>
      <point x="657" y="689"/>
      <point x="678" y="689"/>
      <point x="693" y="689" type="curve" smooth="yes"/>
      <point x="784" y="692" type="line"/>
      <point x="800" y="692" type="line"/>
      <point x="797" y="664" type="line"/>
      <point x="761" y="661" type="line" smooth="yes"/>
      <point x="723" y="657"/>
      <point x="717" y="652"/>
      <point x="710" y="613" type="curve" smooth="yes"/>
      <point x="700" y="559" type="line"/>
      <point x="784" y="559" type="line"/>
      <point x="774" y="508" type="line"/>
      <point x="691" y="508" type="line"/>
      <point x="618" y="93" type="line" smooth="yes"/>
      <point x="615" y="76"/>
      <point x="614" y="67"/>
      <point x="614" y="58" type="curve" smooth="yes"/>
      <point x="614" y="37"/>
      <point x="624" y="29"/>
      <point x="650" y="28" type="curve" smooth="yes"/>
      <point x="708" y="25" type="line"/>
      <point x="705" y="-3" type="line"/>
      <point x="663" y="-2" type="line" smooth="yes"/>
      <point x="620" y="-1"/>
      <point x="589" y="0"/>
      <point x="573" y="0" type="curve" smooth="yes"/>
      <point x="562" y="0"/>
      <point x="532" y="-1"/>
      <point x="488" y="-2" type="curve" smooth="yes"/>
      <point x="432" y="-3" type="line"/>
      <point x="436" y="25" type="line"/>
      <point x="486" y="28" type="line" smooth="yes"/>
      <point x="508" y="30"/>
      <point x="519" y="34"/>
      <point x="523" y="42" type="curve"/>
      <point x="528" y="48"/>
      <point x="535" y="76"/>
      <point x="544" y="125" type="curve" smooth="yes"/>
      <point x="584" y="340" type="line"/>
      <point x="523" y="341" type="line" smooth="yes"/>
      <point x="460" y="342"/>
      <point x="419" y="343"/>
      <point x="400" y="343" type="curve" smooth="yes"/>
      <point x="381" y="343"/>
      <point x="339" y="342"/>
      <point x="277" y="341" type="curve" smooth="yes"/>
      <point x="216" y="340" type="line"/>
      <point x="174" y="93" type="line" smooth="yes"/>
      <point x="171" y="74"/>
      <point x="170" y="67"/>
      <point x="170" y="58" type="curve" smooth="yes"/>
      <point x="170" y="37"/>
      <point x="179" y="30"/>
      <point x="206" y="28" type="curve" smooth="yes"/>
      <point x="255" y="25" type="line"/>
      <point x="252" y="-3" type="line"/>
      <point x="226" y="-3" type="line"/>
      <point x="129" y="0" type="line" smooth="yes"/>
      <point x="110" y="0"/>
      <point x="87" y="-1"/>
      <point x="39" y="-2" type="curve" smooth="yes"/>
      <point x="-3" y="-3" type="line"/>
      <point x="1" y="25" type="line"/>
      <point x="42" y="28" type="line"/>
      <point x="82" y="32"/>
      <point x="83" y="33"/>
      <point x="100" y="125" type="curve"/>
      <point x="165" y="508" type="line"/>
      <point x="95" y="508" type="line"/>
      <point x="105" y="559" type="line"/>
      <point x="174" y="559" type="line"/>
      <point x="179" y="590"/>
      <point x="183" y="621"/>
      <point x="183" y="635" type="curve" smooth="yes"/>
      <point x="183" y="653"/>
      <point x="172" y="661"/>
      <point x="148" y="662" type="curve" smooth="yes"/>
      <point x="101" y="664" type="line"/>
      <point x="104" y="692" type="line"/>
      <point x="168" y="690" type="line" smooth="yes"/>
      <point x="211" y="689"/>
      <point x="229" y="689"/>
      <point x="245" y="689" type="curve" smooth="yes"/>
      <point x="335" y="692" type="line"/>
      <point x="359" y="692" type="line"/>
      <point x="356" y="664" type="line"/>
      <point x="314" y="661" type="line" smooth="yes"/>
      <point x="277" y="658"/>
      <point x="270" y="652"/>
      <point x="263" y="613" type="curve" smooth="yes"/>
    </contour>
    <contour>
      <point x="244" y="508" type="line"/>
      <point x="221" y="385" type="line"/>
      <point x="591" y="385" type="line"/>
      <point x="612" y="508" type="line"/>
    </contour>
  </outline>
</glyph>
<glyph name="Itilde" format="1">
  <advance width="333"/>
  <unicode hex="0128"/>
  <outline>
    <contour>
      <point x="132" y="792" type="curve"/>
      <point x="103" y="792" type="line"/>
      <point x="123" y="865"/>
      <point x="152" y="895"/>
      <point x="201" y="895" type="curve" smooth="yes"/>
      <point x="220" y="895"/>
      <point x="241" y="890"/>
      <point x="264" y="881" type="curve" smooth="yes"/>
      <point x="324" y="857" type="line" smooth="yes"/>
      <point x="331" y="854"/>
      <point x="342" y="852"/>
      <point x="351" y="852" type="curve" smooth="yes"/>
      <point x="371" y="852"/>
      <point x="382" y="861"/>
      <point x="402" y="895" type="curve"/>
      <point x="430" y="895" type="line"/>
      <point x="418" y="830"/>
      <point x="382" y="792"/>
      <point x="333" y="792" type="curve" smooth="yes"/>
      <point x="320" y="792"/>
      <point x="292" y="799"/>
      <point x="269" y="808" type="curve" smooth="yes"/>
      <point x="231" y="823" type="line"/>
      <point x="229" y="824" type="line" smooth="yes"/>
      <point x="228" y="824"/>
      <point x="225" y="825"/>
      <point x="222" y="827" type="curve" smooth="yes"/>
      <point x="205" y="834"/>
      <point x="195" y="836"/>
      <point x="184" y="836" type="curve" smooth="yes"/>
      <point x="159" y="836"/>
      <point x="147" y="826"/>
    </contour>
    <contour>
      <point x="103" y="664" type="line"/>
      <point x="106" y="692" type="line"/>
      <point x="170" y="690" type="line" smooth="yes"/>
      <point x="213" y="689"/>
      <point x="231" y="689"/>
      <point x="248" y="689" type="curve" smooth="yes"/>
      <point x="345" y="692" type="line"/>
      <point x="354" y="692" type="line"/>
      <point x="351" y="664" type="line"/>
      <point x="316" y="661" type="line" smooth="yes"/>
      <point x="277" y="657"/>
      <point x="272" y="652"/>
      <point x="265" y="613" type="curve" smooth="yes"/>
      <point x="176" y="78" type="line" smooth="yes"/>
      <point x="175" y="74"/>
      <point x="174" y="63"/>
      <point x="174" y="57" type="curve" smooth="yes"/>
      <point x="174" y="37"/>
      <point x="184" y="30"/>
      <point x="210" y="28" type="curve" smooth="yes"/>
      <point x="262" y="25" type="line"/>
      <point x="259" y="-3" type="line"/>
      <point x="227" y="-3" type="line"/>
      <point x="133" y="0" type="line"/>
      <point x="39" y="-3" type="line"/>
      <point x="7" y="-3" type="line"/>
      <point x="10" y="25" type="line"/>
      <point x="46" y="28" type="line" smooth="yes"/>
      <point x="86" y="31"/>
      <point x="89" y="36"/>
      <point x="104" y="125" type="curve" smooth="yes"/>
      <point x="176" y="559" type="line" smooth="yes"/>
      <point x="179" y="576"/>
      <point x="185" y="629"/>
      <point x="185" y="636" type="curve" smooth="yes"/>
      <point x="185" y="653"/>
      <point x="174" y="661"/>
      <point x="150" y="662" type="curve" smooth="yes"/>
    </contour>
  </outline>
</glyph>
<glyph name="itilde" format="1">
  <advance width="278"/>
  <unicode hex="0129"/>
  <outline>
    <contour>
      <point x="70" y="582" type="curve"/>
      <point x="41" y="582" type="line"/>
      <point x="61" y="655"/>
      <point x="90" y="685"/>
      <point x="139" y="685" type="curve" smooth="yes"/>
      <point x="158" y="685"/>
      <point x="179" y="680"/>
      <point x="202" y="671" type="curve" smooth="yes"/>
      <point x="262" y="647" type="line" smooth="yes"/>
      <point x="269" y="644"/>
      <point x="280" y="642"/>
      <point x="289" y="642" type="curve" smooth="yes"/>
      <point x="309" y="642"/>
      <point x="320" y="651"/>
      <point x="340" y="685" type="curve"/>
      <point x="368" y="685" type="line"/>
      <point x="356" y="620"/>
      <point x="320" y="582"/>
      <point x="271" y="582" type="curve" smooth="yes"/>
      <point x="258" y="582"/>
      <point x="230" y="589"/>
      <point x="207" y="598" type="curve" smooth="yes"/>
      <point x="169" y="613" type="line"/>
      <point x="167" y="614" type="line" smooth="yes"/>
      <point x="166" y="614"/>
      <point x="163" y="615"/>
      <point x="160" y="617" type="curve" smooth="yes"/>
      <point x="143" y="624"/>
      <point x="133" y="626"/>
      <point x="122" y="626" type="curve" smooth="yes"/>
      <point x="97" y="626"/>
      <point x="85" y="616"/>
    </contour>
    <contour>
      <point x="34" y="388" type="line"/>
      <point x="62" y="408" type="line" smooth="yes"/>
      <point x="137" y="461"/>
      <point x="174" y="482"/>
      <point x="196" y="482" type="curve" smooth="yes"/>
      <point x="212" y="482"/>
      <point x="221" y="473"/>
      <point x="221" y="456" type="curve" smooth="yes"/>
      <point x="221" y="448"/>
      <point x="219" y="436"/>
      <point x="215" y="420" type="curve" smooth="yes"/>
      <point x="138" y="116" type="line" smooth="yes"/>
      <point x="133" y="95"/>
      <point x="131" y="86"/>
      <point x="131" y="76" type="curve" smooth="yes"/>
      <point x="131" y="65"/>
      <point x="137" y="56"/>
      <point x="144" y="56" type="curve" smooth="yes"/>
      <point x="154" y="56"/>
      <point x="176" y="67"/>
      <point x="205" y="86" type="curve" smooth="yes"/>
      <point x="231" y="103" type="line"/>
      <point x="241" y="85" type="line"/>
      <point x="143" y="12"/>
      <point x="107" y="-9"/>
      <point x="81" y="-9" type="curve" smooth="yes"/>
      <point x="62" y="-9"/>
      <point x="51" y="6"/>
      <point x="51" y="30" type="curve" smooth="yes"/>
      <point x="51" y="49"/>
      <point x="56" y="76"/>
      <point x="64" y="107" type="curve" smooth="yes"/>
      <point x="130" y="347" type="line" smooth="yes"/>
      <point x="134" y="361"/>
      <point x="138" y="384"/>
      <point x="138" y="391" type="curve" smooth="yes"/>
      <point x="138" y="403"/>
      <point x="131" y="412"/>
      <point x="121" y="412" type="curve" smooth="yes"/>
      <point x="112" y="412"/>
      <point x="101" y="407"/>
      <point x="73" y="389" type="curve" smooth="yes"/>
      <point x="41" y="368" type="line"/>
    </contour>
  </outline>
</glyph>
<glyph name="Imacron" format="1">
  <advance width="333"/>
  <unicode hex="012A"/>
  <outline>
    <contour>
      <point x="103" y="664" type="line"/>
      <point x="106" y="692" type="line"/>
      <point x="170" y="690" type="line" smooth="yes"/>
      <point x="213" y="689"/>
      <point x="231" y="689"/>
      <point x="248" y="689" type="curve" smooth="yes"/>
      <point x="345" y="692" type="line"/>
      <point x="354" y="692" type="line"/>
      <point x="351" y="664" type="line"/>
      <point x="316" y="661" type="line" smooth="yes"/>
      <point x="277" y="657"/>
      <point x="272" y="652"/>
      <point x="265" y="613" type="curve" smooth="yes"/>
      <point x="176" y="78" type="line" smooth="yes"/>
      <point x="175" y="74"/>
      <point x="174" y="63"/>
      <point x="174" y="57" type="curve" smooth="yes"/>
      <point x="174" y="37"/>
      <point x="184" y="30"/>
      <point x="210" y="28" type="curve" smooth="yes"/>
      <point x="262" y="25" type="line"/>
      <point x="259" y="-3" type="line"/>
      <point x="227" y="-3" type="line"/>
      <point x="133" y="0" type="line"/>
      <point x="39" y="-3" type="line"/>
      <point x="7" y="-3" type="line"/>
      <point x="10" y="25" type="line"/>
      <point x="46" y="28" type="line" smooth="yes"/>
      <point x="86" y="31"/>
      <point x="89" y="36"/>
      <point x="104" y="125" type="curve" smooth="yes"/>
      <point x="176" y="559" type="line" smooth="yes"/>
      <point x="179" y="576"/>
      <point x="185" y="629"/>
      <point x="185" y="636" type="curve" smooth="yes"/>
      <point x="185" y="653"/>
      <point x="174" y="661"/>
      <point x="150" y="662" type="curve" smooth="yes"/>
    </contour>
    <contour>
      <point x="399" y="799" type="line"/>
      <point x="388" y="748" type="line"/>
      <point x="87" y="748" type="line"/>
      <point x="98" y="799" type="line"/>
    </contour>
  </outline>
</glyph>
<glyph name="Ibreve" format="1">
  <advance width="333"/>
  <unicode hex="012C"/>
  <outline>
    <contour>
      <point x="134" y="951" type="curve"/>
      <point x="163" y="951" type="line"/>
      <point x="169" y="885"/>
      <point x="206" y="851"/>
      <point x="272" y="851" type="curve" smooth="yes"/>
      <point x="332" y="851"/>
      <point x="368" y="878"/>
      <point x="406" y="951" type="curve"/>
      <point x="435" y="951" type="line"/>
      <point x="421" y="899"/>
      <point x="411" y="877"/>
      <point x="390" y="851" type="curve" smooth="yes"/>
      <point x="358" y="811"/>
      <point x="317" y="792"/>
      <point x="265" y="792" type="curve" smooth="yes"/>
      <point x="213" y="792"/>
      <point x="175" y="812"/>
      <point x="154" y="850" type="curve" smooth="yes"/>
      <point x="139" y="877"/>
      <point x="134" y="900"/>
    </contour>
    <contour>
      <point x="103" y="664" type="line"/>
      <point x="106" y="692" type="line"/>
      <point x="170" y="690" type="line" smooth="yes"/>
      <point x="213" y="689"/>
      <point x="231" y="689"/>
      <point x="248" y="689" type="curve" smooth="yes"/>
      <point x="345" y="692" type="line"/>
      <point x="354" y="692" type="line"/>
      <point x="351" y="664" type="line"/>
      <point x="316" y="661" type="line" smooth="yes"/>
      <point x="277" y="657"/>
      <point x="272" y="652"/>
      <point x="265" y="613" type="curve" smooth="yes"/>
      <point x="176" y="78" type="line" smooth="yes"/>
      <point x="175" y="74"/>
      <point x="174" y="63"/>
      <point x="174" y="57" type="curve" smooth="yes"/>
      <point x="174" y="37"/>
      <point x="184" y="30"/>
      <point x="210" y="28" type="curve" smooth="yes"/>
      <point x="262" y="25" type="line"/>
      <point x="259" y="-3" type="line"/>
      <point x="227" y="-3" type="line"/>
      <point x="133" y="0" type="line"/>
      <point x="39" y="-3" type="line"/>
      <point x="7" y="-3" type="line"/>
      <point x="10" y="25" type="line"/>
      <point x="46" y="28" type="line" smooth="yes"/>
      <point x="86" y="31"/>
      <point x="89" y="36"/>
      <point x="104" y="125" type="curve" smooth="yes"/>
      <point x="176" y="559" type="line" smooth="yes"/>
      <point x="179" y="576"/>
      <point x="185" y="629"/>
      <point x="185" y="636" type="curve" smooth="yes"/>
      <point x="185" y="653"/>
      <point x="174" y="661"/>
      <point x="150" y="662" type="curve" smooth="yes"/>
    </contour>
  </outline>
</glyph>
<glyph name="ibreve" format="1">
  <advance width="278"/>
  <unicode hex="012D"/>
  <outline>
    <contour>
      <point x="72" y="741" type="curve"/>
      <point x="101" y="741" type="line"/>
      <point x="107" y="675"/>
      <point x="144" y="641"/>
      <point x="210" y="641" type="curve" smooth="yes"/>
      <point x="270" y="641"/>
      <point x="306" y="668"/>
      <point x="344" y="741" type="curve"/>
      <point x="373" y="741" type="line"/>
      <point x="359" y="689"/>
      <point x="349" y="667"/>
      <point x="328" y="641" type="curve" smooth="yes"/>
      <point x="296" y="601"/>
      <point x="255" y="582"/>
      <point x="203" y="582" type="curve" smooth="yes"/>
      <point x="151" y="582"/>
      <point x="113" y="602"/>
      <point x="92" y="640" type="curve" smooth="yes"/>
      <point x="77" y="667"/>
      <point x="72" y="690"/>
    </contour>
    <contour>
      <point x="34" y="388" type="line"/>
      <point x="62" y="408" type="line" smooth="yes"/>
      <point x="137" y="461"/>
      <point x="174" y="482"/>
      <point x="196" y="482" type="curve" smooth="yes"/>
      <point x="212" y="482"/>
      <point x="221" y="473"/>
      <point x="221" y="456" type="curve" smooth="yes"/>
      <point x="221" y="448"/>
      <point x="219" y="436"/>
      <point x="215" y="420" type="curve" smooth="yes"/>
      <point x="138" y="116" type="line" smooth="yes"/>
      <point x="133" y="95"/>
      <point x="131" y="86"/>
      <point x="131" y="76" type="curve" smooth="yes"/>
      <point x="131" y="65"/>
      <point x="137" y="56"/>
      <point x="144" y="56" type="curve" smooth="yes"/>
      <point x="154" y="56"/>
      <point x="176" y="67"/>
      <point x="205" y="86" type="curve" smooth="yes"/>
      <point x="231" y="103" type="line"/>
      <point x="241" y="85" type="line"/>
      <point x="143" y="12"/>
      <point x="107" y="-9"/>
      <point x="81" y="-9" type="curve" smooth="yes"/>
      <point x="62" y="-9"/>
      <point x="51" y="6"/>
      <point x="51" y="30" type="curve" smooth="yes"/>
      <point x="51" y="49"/>
      <point x="56" y="76"/>
      <point x="64" y="107" type="curve" smooth="yes"/>
      <point x="130" y="347" type="line" smooth="yes"/>
      <point x="134" y="361"/>
      <point x="138" y="384"/>
      <point x="138" y="391" type="curve" smooth="yes"/>
      <point x="138" y="403"/>
      <point x="131" y="412"/>
      <point x="121" y="412" type="curve" smooth="yes"/>
      <point x="112" y="412"/>
      <point x="101" y="407"/>
      <point x="73" y="389" type="curve" smooth="yes"/>
      <point x="41" y="368" type="line"/>
    </contour>
  </outline>
</glyph>
<glyph name="Iogonek" format="1">
  <advance width="333"/>
  <unicode hex="012E"/>
  <outline>
    <contour>
      <point x="262" y="25" type="line"/>
      <point x="259" y="-3" type="line"/>
      <point x="255" y="-3" type="line"/>
      <point x="251" y="-3" type="line"/>
      <point x="232" y="-5"/>
      <point x="200" y="-57"/>
      <point x="200" y="-85" type="curve" smooth="yes"/>
      <point x="200" y="-112"/>
      <point x="216" y="-132"/>
      <point x="238" y="-132" type="curve" smooth="yes"/>
      <point x="254" y="-132"/>
      <point x="268" y="-123"/>
      <point x="288" y="-97" type="curve"/>
      <point x="302" y="-101" type="line"/>
      <point x="270" y="-161"/>
      <point x="237" y="-188"/>
      <point x="197" y="-188" type="curve" smooth="yes"/>
      <point x="165" y="-188"/>
      <point x="144" y="-162"/>
      <point x="144" y="-122" type="curve" smooth="yes"/>
      <point x="144" y="-87"/>
      <point x="157" y="-62"/>
      <point x="204" y="-10" type="curve"/>
      <point x="211" y="-2" type="line"/>
      <point x="148" y="0"/>
      <point x="143" y="0"/>
      <point x="131" y="0" type="curve" smooth="yes"/>
      <point x="39" y="-3" type="line"/>
      <point x="7" y="-3" type="line"/>
      <point x="10" y="25" type="line"/>
      <point x="46" y="28" type="line" smooth="yes"/>
      <point x="86" y="31"/>
      <point x="89" y="36"/>
      <point x="104" y="125" type="curve" smooth="yes"/>
      <point x="176" y="559" type="line" smooth="yes"/>
      <point x="179" y="576"/>
      <point x="185" y="629"/>
      <point x="185" y="636" type="curve" smooth="yes"/>
      <point x="185" y="653"/>
      <point x="174" y="661"/>
      <point x="150" y="662" type="curve" smooth="yes"/>
      <point x="103" y="664" type="line"/>
      <point x="106" y="692" type="line"/>
      <point x="170" y="690" type="line" smooth="yes"/>
      <point x="213" y="689"/>
      <point x="231" y="689"/>
      <point x="248" y="689" type="curve" smooth="yes"/>
      <point x="345" y="692" type="line"/>
      <point x="354" y="692" type="line"/>
      <point x="351" y="664" type="line"/>
      <point x="316" y="661" type="line" smooth="yes"/>
      <point x="277" y="657"/>
      <point x="272" y="652"/>
      <point x="265" y="613" type="curve" smooth="yes"/>
      <point x="176" y="78" type="line" smooth="yes"/>
      <point x="175" y="74"/>
      <point x="174" y="63"/>
      <point x="174" y="57" type="curve" smooth="yes"/>
      <point x="174" y="37"/>
      <point x="184" y="30"/>
      <point x="210" y="28" type="curve" smooth="yes"/>
    </contour>
  </outline>
</glyph>
<glyph name="ij" format="1">
  <advance width="278"/>
  <unicode hex="0133"/>
  <outline>
    <contour>
      <point x="34" y="388" type="line"/>
      <point x="62" y="408" type="line" smooth="yes"/>
      <point x="137" y="461"/>
      <point x="174" y="482"/>
      <point x="196" y="482" type="curve" smooth="yes"/>
      <point x="212" y="482"/>
      <point x="221" y="473"/>
      <point x="221" y="456" type="curve" smooth="yes"/>
      <point x="221" y="448"/>
      <point x="219" y="437"/>
      <point x="215" y="420" type="curve" smooth="yes"/>
      <point x="138" y="116" type="line" smooth="yes"/>
      <point x="133" y="95"/>
      <point x="131" y="86"/>
      <point x="131" y="76" type="curve" smooth="yes"/>
      <point x="131" y="66"/>
      <point x="137" y="56"/>
      <point x="144" y="56" type="curve" smooth="yes"/>
      <point x="153" y="56"/>
      <point x="176" y="67"/>
      <point x="205" y="86" type="curve" smooth="yes"/>
      <point x="231" y="103" type="line"/>
      <point x="241" y="85" type="line"/>
      <point x="143" y="12"/>
      <point x="107" y="-9"/>
      <point x="81" y="-9" type="curve" smooth="yes"/>
      <point x="62" y="-9"/>
      <point x="51" y="6"/>
      <point x="51" y="30" type="curve" smooth="yes"/>
      <point x="51" y="49"/>
      <point x="56" y="76"/>
      <point x="64" y="107" type="curve" smooth="yes"/>
      <point x="130" y="347" type="line" smooth="yes"/>
      <point x="134" y="361"/>
      <point x="138" y="384"/>
      <point x="138" y="391" type="curve" smooth="yes"/>
      <point x="138" y="404"/>
      <point x="130" y="414"/>
      <point x="120" y="414" type="curve" smooth="yes"/>
      <point x="113" y="414"/>
      <point x="110" y="412"/>
      <point x="73" y="389" type="curve"/>
      <point x="41" y="368" type="line"/>
    </contour>
    <contour>
      <point x="228" y="712" type="curve" smooth="yes"/>
      <point x="249" y="712"/>
      <point x="264" y="695"/>
      <point x="264" y="671" type="curve" smooth="yes"/>
      <point x="264" y="633"/>
      <point x="240" y="604"/>
      <point x="209" y="604" type="curve" smooth="yes"/>
      <point x="185" y="604"/>
      <point x="170" y="620"/>
      <point x="170" y="645" type="curve" smooth="yes"/>
      <point x="170" y="679"/>
      <point x="199" y="712"/>
    </contour>
  </outline>
</glyph>
<glyph name="jcircumflex" format="1">
  <advance width="278"/>
  <unicode hex="0135"/>
  <outline>
    <contour>
      <point x="-70" y="-269" type="curve"/>
      <point x="-62" y="-212" type="line"/>
      <point x="-41" y="-225"/>
      <point x="-23" y="-231"/>
      <point x="-9" y="-231" type="curve" smooth="yes"/>
      <point x="9" y="-231"/>
      <point x="27" y="-196"/>
      <point x="38" y="-144" type="curve" smooth="yes"/>
      <point x="138" y="351" type="line" smooth="yes"/>
      <point x="138" y="353"/>
      <point x="139" y="357"/>
      <point x="140" y="363" type="curve" smooth="yes"/>
      <point x="143" y="374"/>
      <point x="145" y="387"/>
      <point x="145" y="391" type="curve" smooth="yes"/>
      <point x="145" y="404"/>
      <point x="137" y="414"/>
      <point x="127" y="414" type="curve" smooth="yes"/>
      <point x="120" y="414"/>
      <point x="117" y="412"/>
      <point x="80" y="389" type="curve"/>
      <point x="48" y="368" type="line"/>
      <point x="41" y="388" type="line"/>
      <point x="69" y="408" type="line" smooth="yes"/>
      <point x="144" y="461"/>
      <point x="181" y="482"/>
      <point x="203" y="482" type="curve" smooth="yes"/>
      <point x="219" y="482"/>
      <point x="228" y="473"/>
      <point x="228" y="457" type="curve" smooth="yes"/>
      <point x="228" y="451"/>
      <point x="226" y="438"/>
      <point x="222" y="420" type="curve" smooth="yes"/>
      <point x="146" y="70" type="line" smooth="yes"/>
      <point x="118" y="-57"/>
      <point x="104" y="-107"/>
      <point x="84" y="-152" type="curve" smooth="yes"/>
      <point x="48" y="-233"/>
      <point x="8" y="-276"/>
      <point x="-32" y="-276" type="curve" smooth="yes"/>
      <point x="-47" y="-276"/>
      <point x="-60" y="-274"/>
    </contour>
    <contour>
      <point x="262" y="679" type="line"/>
      <point x="350" y="510" type="line"/>
      <point x="314" y="510" type="line"/>
      <point x="232" y="614" type="line"/>
      <point x="95" y="510" type="line"/>
      <point x="56" y="510" type="line"/>
      <point x="213" y="679" type="line"/>
    </contour>
  </outline>
</glyph>
<glyph name="lcommaaccent" format="1">
  <advance width="278"/>
  <unicode hex="013C"/>
  <outline>
    <contour>
      <point x="251" y="722" type="line"/>
      <point x="122" y="113" type="line" smooth="yes"/>
      <point x="122" y="111"/>
      <point x="121" y="108"/>
      <point x="120" y="104" type="curve" smooth="yes"/>
      <point x="116" y="90"/>
      <point x="115" y="82"/>
      <point x="115" y="76" type="curve" smooth="yes"/>
      <point x="115" y="66"/>
      <point x="121" y="56"/>
      <point x="128" y="56" type="curve" smooth="yes"/>
      <point x="138" y="56"/>
      <point x="161" y="67"/>
      <point x="190" y="86" type="curve" smooth="yes"/>
      <point x="216" y="103" type="line"/>
      <point x="226" y="85" type="line"/>
      <point x="127" y="12"/>
      <point x="91" y="-9"/>
      <point x="65" y="-9" type="curve" smooth="yes"/>
      <point x="46" y="-9"/>
      <point x="35" y="6"/>
      <point x="35" y="31" type="curve" smooth="yes"/>
      <point x="35" y="51"/>
      <point x="40" y="77"/>
      <point x="55" y="132" type="curve" smooth="yes"/>
      <point x="69" y="184" type="line" smooth="yes"/>
      <point x="83" y="234"/>
      <point x="145" y="545"/>
      <point x="151" y="600" type="curve"/>
      <point x="154" y="622" type="line" smooth="yes"/>
      <point x="157" y="645"/>
      <point x="157" y="645"/>
      <point x="157" y="648" type="curve" smooth="yes"/>
      <point x="157" y="663"/>
      <point x="146" y="670"/>
      <point x="123" y="670" type="curve" smooth="yes"/>
      <point x="75" y="670" type="line"/>
      <point x="79" y="691" type="line"/>
      <point x="150" y="698"/>
      <point x="187" y="707"/>
      <point x="239" y="733" type="curve"/>
    </contour>
    <contour>
      <point x="143" y="-60" type="curve"/>
      <point x="152" y="-78" type="line"/>
      <point x="103" y="-172"/>
      <point x="62" y="-234"/>
      <point x="11" y="-292" type="curve"/>
      <point x="-21" y="-305" type="line"/>
      <point x="-28" y="-296" type="line"/>
      <point x="19" y="-223"/>
      <point x="44" y="-161"/>
      <point x="54" y="-85" type="curve"/>
      <point x="80" y="-81"/>
      <point x="110" y="-72"/>
    </contour>
  </outline>
</glyph>
<glyph name="Obreve" format="1">
  <advance width="778"/>
  <unicode hex="014E"/>
  <outline>
    <contour>
      <point x="351" y="951" type="curve"/>
      <point x="380" y="951" type="line"/>
      <point x="386" y="885"/>
      <point x="423" y="851"/>
      <point x="489" y="851" type="curve" smooth="yes"/>
      <point x="549" y="851"/>
      <point x="585" y="878"/>
      <point x="623" y="951" type="curve"/>
      <point x="652" y="951" type="line"/>
      <point x="638" y="899"/>
      <point x="628" y="877"/>
      <point x="607" y="851" type="curve" smooth="yes"/>
      <point x="575" y="811"/>
      <point x="534" y="792"/>
      <point x="482" y="792" type="curve" smooth="yes"/>
      <point x="430" y="792"/>
      <point x="392" y="812"/>
      <point x="371" y="850" type="curve" smooth="yes"/>
      <point x="356" y="877"/>
      <point x="351" y="900"/>
    </contour>
    <contour>
      <point x="464" y="706" type="curve" smooth="yes"/>
      <point x="644" y="706"/>
      <point x="748" y="603"/>
      <point x="748" y="425" type="curve" smooth="yes"/>
      <point x="748" y="267"/>
      <point x="670" y="120"/>
      <point x="544" y="42" type="curve" smooth="yes"/>
      <point x="479" y="1"/>
      <point x="408" y="-18"/>
      <point x="323" y="-18" type="curve" smooth="yes"/>
      <point x="147" y="-18"/>
      <point x="53" y="83"/>
      <point x="53" y="272" type="curve" smooth="yes"/>
      <point x="53" y="523"/>
      <point x="227" y="706"/>
    </contour>
    <contour>
      <point x="433" y="664" type="curve" smooth="yes"/>
      <point x="357" y="664"/>
      <point x="297" y="641"/>
      <point x="250" y="593" type="curve" smooth="yes"/>
      <point x="181" y="524"/>
      <point x="141" y="407"/>
      <point x="141" y="277" type="curve" smooth="yes"/>
      <point x="141" y="110"/>
      <point x="216" y="24"/>
      <point x="360" y="24" type="curve" smooth="yes"/>
      <point x="438" y="24"/>
      <point x="503" y="50"/>
      <point x="552" y="100" type="curve" smooth="yes"/>
      <point x="620" y="170"/>
      <point x="660" y="283"/>
      <point x="660" y="409" type="curve" smooth="yes"/>
      <point x="660" y="519"/>
      <point x="628" y="594"/>
      <point x="563" y="632" type="curve" smooth="yes"/>
      <point x="530" y="652"/>
      <point x="481" y="664"/>
    </contour>
  </outline>
</glyph>
<glyph name="OE" format="1">
  <advance width="1028"/>
  <unicode hex="0152"/>
  <outline>
    <contour>
      <point x="660" y="334" type="line"/>
      <point x="617" y="81" type="line" smooth="yes"/>
      <point x="616" y="72"/>
      <point x="615" y="64"/>
      <point x="615" y="50" type="curve" smooth="yes"/>
      <point x="615" y="46" type="line"/>
      <point x="646" y="41"/>
      <point x="682" y="39"/>
      <point x="724" y="39" type="curve" smooth="yes"/>
      <point x="774" y="39"/>
      <point x="857" y="44"/>
      <point x="874" y="48" type="curve" smooth="yes"/>
      <point x="896" y="53"/>
      <point x="905" y="65"/>
      <point x="915" y="101" type="curve" smooth="yes"/>
      <point x="931" y="161" type="line"/>
      <point x="958" y="161" type="line"/>
      <point x="953" y="135" type="line" smooth="yes"/>
      <point x="944" y="86"/>
      <point x="939" y="56"/>
      <point x="937" y="36" type="curve" smooth="yes"/>
      <point x="933" y="0" type="line"/>
      <point x="900" y="-1" type="line" smooth="yes"/>
      <point x="865" y="-2"/>
      <point x="843" y="-3"/>
      <point x="829" y="-3" type="curve" smooth="yes"/>
      <point x="821" y="-3"/>
      <point x="789" y="-2"/>
      <point x="675" y="-1" type="curve" smooth="yes"/>
      <point x="645" y="0"/>
      <point x="645" y="0"/>
      <point x="612" y="0" type="curve" smooth="yes"/>
      <point x="596" y="0" type="line"/>
      <point x="572" y="-1" type="line"/>
      <point x="556" y="-2" type="line" smooth="yes"/>
      <point x="549" y="-3"/>
      <point x="543" y="-3"/>
      <point x="538" y="-3" type="curve" smooth="yes"/>
      <point x="531" y="-3"/>
      <point x="526" y="0"/>
      <point x="526" y="4" type="curve" smooth="yes"/>
      <point x="526" y="7"/>
      <point x="527" y="12"/>
      <point x="529" y="20" type="curve" smooth="yes"/>
      <point x="544" y="90" type="line"/>
      <point x="502" y="44"/>
      <point x="478" y="26"/>
      <point x="438" y="8" type="curve" smooth="yes"/>
      <point x="399" y="-9"/>
      <point x="357" y="-18"/>
      <point x="310" y="-18" type="curve" smooth="yes"/>
      <point x="149" y="-18"/>
      <point x="56" y="85"/>
      <point x="56" y="264" type="curve" smooth="yes"/>
      <point x="56" y="392"/>
      <point x="104" y="517"/>
      <point x="186" y="599" type="curve" smooth="yes"/>
      <point x="256" y="670"/>
      <point x="345" y="707"/>
      <point x="448" y="707" type="curve" smooth="yes"/>
      <point x="534" y="707"/>
      <point x="581" y="686"/>
      <point x="635" y="623" type="curve"/>
      <point x="642" y="673" type="line" smooth="yes"/>
      <point x="644" y="690"/>
      <point x="647" y="694"/>
      <point x="656" y="693" type="curve" smooth="yes"/>
      <point x="667" y="692" type="line"/>
      <point x="676" y="692" type="line"/>
      <point x="704" y="690"/>
      <point x="706" y="690"/>
      <point x="728" y="690" type="curve" smooth="yes"/>
      <point x="779" y="690" type="line"/>
      <point x="868" y="692" type="line"/>
      <point x="919" y="693" type="line" smooth="yes"/>
      <point x="939" y="693"/>
      <point x="966" y="692"/>
      <point x="989" y="690" type="curve"/>
      <point x="978" y="652"/>
      <point x="971" y="601"/>
      <point x="968" y="537" type="curve"/>
      <point x="944" y="537" type="line"/>
      <point x="936" y="626" type="line" smooth="yes"/>
      <point x="935" y="642"/>
      <point x="894" y="651"/>
      <point x="829" y="651" type="curve" smooth="yes"/>
      <point x="805" y="651"/>
      <point x="773" y="650"/>
      <point x="737" y="648" type="curve" smooth="yes"/>
      <point x="716" y="647" type="line"/>
      <point x="712" y="639"/>
      <point x="709" y="629"/>
      <point x="707" y="614" type="curve" smooth="yes"/>
      <point x="668" y="376" type="line"/>
      <point x="685" y="376" type="line" smooth="yes"/>
      <point x="763" y="376"/>
      <point x="823" y="378"/>
      <point x="904" y="382" type="curve"/>
      <point x="908" y="375" type="line"/>
      <point x="889" y="330" type="line"/>
      <point x="863" y="331" type="line" smooth="yes"/>
      <point x="815" y="333"/>
      <point x="784" y="334"/>
      <point x="757" y="334" type="curve" smooth="yes"/>
    </contour>
    <contour>
      <point x="571" y="270" type="curve" smooth="yes"/>
      <point x="600" y="439" type="line" smooth="yes"/>
      <point x="603" y="458"/>
      <point x="605" y="478"/>
      <point x="605" y="496" type="curve" smooth="yes"/>
      <point x="605" y="606"/>
      <point x="542" y="665"/>
      <point x="427" y="665" type="curve" smooth="yes"/>
      <point x="358" y="665"/>
      <point x="298" y="641"/>
      <point x="255" y="596" type="curve" smooth="yes"/>
      <point x="185" y="523"/>
      <point x="144" y="407"/>
      <point x="144" y="285" type="curve" smooth="yes"/>
      <point x="144" y="124"/>
      <point x="213" y="24"/>
      <point x="325" y="24" type="curve" smooth="yes"/>
      <point x="440" y="24"/>
      <point x="547" y="131"/>
    </contour>
  </outline>
</glyph>
<glyph name="racute" format="1">
  <advance width="389"/>
  <unicode hex="0155"/>
  <outline>
    <contour>
      <point x="368" y="365" type="curve"/>
      <point x="354" y="365" type="line"/>
      <point x="343" y="379"/>
      <point x="333" y="384"/>
      <point x="318" y="384" type="curve" smooth="yes"/>
      <point x="296" y="384"/>
      <point x="269" y="363"/>
      <point x="235" y="319" type="curve" smooth="yes"/>
      <point x="191" y="262"/>
      <point x="168" y="209"/>
      <point x="150" y="126" type="curve" smooth="yes"/>
      <point x="124" y="6" type="line"/>
      <point x="111" y="4" type="line"/>
      <point x="88" y="-1"/>
      <point x="72" y="-4"/>
      <point x="57" y="-9" type="curve"/>
      <point x="47" y="-2" type="line"/>
      <point x="87" y="126"/>
      <point x="130" y="332"/>
      <point x="130" y="390" type="curve" smooth="yes"/>
      <point x="130" y="403"/>
      <point x="123" y="412"/>
      <point x="113" y="412" type="curve" smooth="yes"/>
      <point x="104" y="412"/>
      <point x="93" y="407"/>
      <point x="65" y="389" type="curve" smooth="yes"/>
      <point x="33" y="368" type="line"/>
      <point x="26" y="388" type="line"/>
      <point x="54" y="408" type="line" smooth="yes"/>
      <point x="128" y="461"/>
      <point x="166" y="482"/>
      <point x="187" y="482" type="curve" smooth="yes"/>
      <point x="202" y="482"/>
      <point x="210" y="470"/>
      <point x="210" y="450" type="curve" smooth="yes"/>
      <point x="210" y="438"/>
      <point x="208" y="425"/>
      <point x="204" y="408" type="curve" smooth="yes"/>
      <point x="198" y="382" type="line" smooth="yes"/>
      <point x="192" y="360"/>
      <point x="184" y="320"/>
      <point x="180" y="297" type="curve" smooth="yes"/>
      <point x="172" y="256" type="line"/>
      <point x="188" y="291"/>
      <point x="200" y="312"/>
      <point x="239" y="368" type="curve" smooth="yes"/>
      <point x="266" y="407" type="line" smooth="yes"/>
      <point x="302" y="458"/>
      <point x="333" y="482"/>
      <point x="364" y="482" type="curve" smooth="yes"/>
      <point x="369" y="482"/>
      <point x="373" y="481"/>
      <point x="384" y="476" type="curve"/>
      <point x="376" y="435"/>
      <point x="371" y="403"/>
    </contour>
    <contour>
      <point x="195" y="518" type="line"/>
      <point x="348" y="669" type="line" smooth="yes"/>
      <point x="360" y="681"/>
      <point x="371" y="687"/>
      <point x="381" y="687" type="curve" smooth="yes"/>
      <point x="401" y="687"/>
      <point x="419" y="672"/>
      <point x="419" y="656" type="curve" smooth="yes"/>
      <point x="419" y="641"/>
      <point x="412" y="632"/>
      <point x="391" y="619" type="curve" smooth="yes"/>
      <point x="229" y="518" type="line"/>
    </contour>
  </outline>
</glyph>
<glyph name="rcommaaccent" format="1">
  <advance width="389"/>
  <unicode hex="0157"/>
  <outline>
    <contour>
      <point x="368" y="365" type="curve"/>
      <point x="354" y="365" type="line"/>
      <point x="343" y="379"/>
      <point x="333" y="384"/>
      <point x="319" y="384" type="curve" smooth="yes"/>
      <point x="296" y="384"/>
      <point x="269" y="363"/>
      <point x="235" y="319" type="curve" smooth="yes"/>
      <point x="191" y="262"/>
      <point x="168" y="209"/>
      <point x="150" y="126" type="curve" smooth="yes"/>
      <point x="124" y="6" type="line"/>
      <point x="111" y="4" type="line"/>
      <point x="88" y="-1"/>
      <point x="72" y="-4"/>
      <point x="57" y="-9" type="curve"/>
      <point x="47" y="-2" type="line"/>
      <point x="87" y="126"/>
      <point x="130" y="332"/>
      <point x="130" y="390" type="curve" smooth="yes"/>
      <point x="130" y="403"/>
      <point x="123" y="412"/>
      <point x="113" y="412" type="curve" smooth="yes"/>
      <point x="104" y="412"/>
      <point x="94" y="407"/>
      <point x="65" y="389" type="curve" smooth="yes"/>
      <point x="33" y="368" type="line"/>
      <point x="26" y="388" type="line"/>
      <point x="54" y="408" type="line" smooth="yes"/>
      <point x="129" y="461"/>
      <point x="166" y="482"/>
      <point x="187" y="482" type="curve" smooth="yes"/>
      <point x="202" y="482"/>
      <point x="210" y="470"/>
      <point x="210" y="450" type="curve" smooth="yes"/>
      <point x="210" y="438"/>
      <point x="208" y="423"/>
      <point x="204" y="408" type="curve" smooth="yes"/>
      <point x="198" y="382" type="line" smooth="yes"/>
      <point x="193" y="360"/>
      <point x="184" y="320"/>
      <point x="180" y="297" type="curve" smooth="yes"/>
      <point x="172" y="256" type="line"/>
      <point x="188" y="291"/>
      <point x="201" y="312"/>
      <point x="240" y="368" type="curve"/>
      <point x="266" y="407" type="line"/>
      <point x="302" y="458"/>
      <point x="333" y="482"/>
      <point x="364" y="482" type="curve" smooth="yes"/>
      <point x="369" y="482"/>
      <point x="373" y="481"/>
      <point x="384" y="476" type="curve"/>
      <point x="376" y="435"/>
      <point x="371" y="403"/>
    </contour>
    <contour>
      <point x="166" y="-60" type="curve"/>
      <point x="175" y="-78" type="line"/>
      <point x="126" y="-172"/>
      <point x="85" y="-234"/>
      <point x="34" y="-292" type="curve"/>
      <point x="2" y="-305" type="line"/>
      <point x="-5" y="-296" type="line"/>
      <point x="42" y="-223"/>
      <point x="67" y="-161"/>
      <point x="77" y="-85" type="curve"/>
      <point x="103" y="-81"/>
      <point x="133" y="-72"/>
    </contour>
  </outline>
</glyph>
<glyph name="scedilla" format="1">
  <advance width="389"/>
  <unicode hex="015F"/>
  <outline>
    <contour>
      <point x="165" y="-5" type="curve"/>
      <point x="124" y="-64" type="line"/>
      <point x="135" y="-63"/>
      <point x="142" y="-62"/>
      <point x="148" y="-62" type="curve" smooth="yes"/>
      <point x="198" y="-62"/>
      <point x="230" y="-89"/>
      <point x="230" y="-132" type="curve" smooth="yes"/>
      <point x="230" y="-183"/>
      <point x="182" y="-216"/>
      <point x="107" y="-216" type="curve" smooth="yes"/>
      <point x="80" y="-216"/>
      <point x="61" y="-212"/>
      <point x="19" y="-196" type="curve"/>
      <point x="36" y="-167" type="line"/>
      <point x="71" y="-178"/>
      <point x="86" y="-181"/>
      <point x="105" y="-181" type="curve" smooth="yes"/>
      <point x="136" y="-181"/>
      <point x="158" y="-162"/>
      <point x="158" y="-136" type="curve" smooth="yes"/>
      <point x="158" y="-114"/>
      <point x="139" y="-98"/>
      <point x="111" y="-98" type="curve" smooth="yes"/>
      <point x="104" y="-98"/>
      <point x="95" y="-99"/>
      <point x="85" y="-102" type="curve" smooth="yes"/>
      <point x="78" y="-104" type="line"/>
      <point x="69" y="-96" type="line"/>
      <point x="123" y="-11" type="line"/>
      <point x="115" y="-11" type="line" smooth="yes"/>
      <point x="81" y="-11"/>
      <point x="46" y="-2"/>
      <point x="9" y="16" type="curve"/>
      <point x="20" y="62"/>
      <point x="26" y="97"/>
      <point x="31" y="148" type="curve"/>
      <point x="56" y="148" type="line"/>
      <point x="56" y="64" type="line"/>
      <point x="84" y="40"/>
      <point x="115" y="29"/>
      <point x="150" y="29" type="curve" smooth="yes"/>
      <point x="221" y="29"/>
      <point x="267" y="73"/>
      <point x="267" y="138" type="curve" smooth="yes"/>
      <point x="267" y="177"/>
      <point x="251" y="195"/>
      <point x="207" y="203" type="curve" smooth="yes"/>
      <point x="144" y="215" type="line" smooth="yes"/>
      <point x="78" y="228"/>
      <point x="47" y="260"/>
      <point x="47" y="316" type="curve" smooth="yes"/>
      <point x="47" y="352"/>
      <point x="58" y="377"/>
      <point x="84" y="404" type="curve" smooth="yes"/>
      <point x="132" y="452"/>
      <point x="193" y="482"/>
      <point x="245" y="482" type="curve" smooth="yes"/>
      <point x="278" y="482"/>
      <point x="306" y="474"/>
      <point x="345" y="455" type="curve"/>
      <point x="334" y="404"/>
      <point x="330" y="377"/>
      <point x="326" y="342" type="curve"/>
      <point x="303" y="342" type="line"/>
      <point x="303" y="397" type="line"/>
      <point x="287" y="424"/>
      <point x="249" y="442"/>
      <point x="208" y="442" type="curve" smooth="yes"/>
      <point x="151" y="442"/>
      <point x="106" y="401"/>
      <point x="106" y="348" type="curve" smooth="yes"/>
      <point x="106" y="307"/>
      <point x="125" y="290"/>
      <point x="185" y="279" type="curve" smooth="yes"/>
      <point x="228" y="271" type="line" smooth="yes"/>
      <point x="303" y="257"/>
      <point x="334" y="228"/>
      <point x="334" y="174" type="curve" smooth="yes"/>
      <point x="334" y="124"/>
      <point x="313" y="86"/>
      <point x="262" y="47" type="curve" smooth="yes"/>
      <point x="227" y="20"/>
      <point x="200" y="5"/>
    </contour>
  </outline>
</glyph>
<glyph name="Tcommaaccent" format="1">
  <advance width="611"/>
  <unicode hex="0162"/>
  <outline>
    <contour>
      <point x="390" y="646" type="line"/>
      <point x="296" y="93" type="line" smooth="yes"/>
      <point x="293" y="74"/>
      <point x="292" y="67"/>
      <point x="292" y="58" type="curve" smooth="yes"/>
      <point x="292" y="37"/>
      <point x="302" y="29"/>
      <point x="328" y="28" type="curve" smooth="yes"/>
      <point x="387" y="25" type="line"/>
      <point x="384" y="-3" type="line"/>
      <point x="340" y="-2" type="line" smooth="yes"/>
      <point x="301" y="-1"/>
      <point x="270" y="0"/>
      <point x="251" y="0" type="curve" smooth="yes"/>
      <point x="235" y="0"/>
      <point x="206" y="-1"/>
      <point x="166" y="-2" type="curve" smooth="yes"/>
      <point x="109" y="-3" type="line"/>
      <point x="113" y="25" type="line"/>
      <point x="164" y="28" type="line" smooth="yes"/>
      <point x="204" y="31"/>
      <point x="206" y="34"/>
      <point x="222" y="125" type="curve" smooth="yes"/>
      <point x="308" y="646" type="line"/>
      <point x="196" y="646" type="line" smooth="yes"/>
      <point x="159" y="646"/>
      <point x="121" y="640"/>
      <point x="115" y="633" type="curve" smooth="yes"/>
      <point x="109" y="626"/>
      <point x="102" y="610"/>
      <point x="97" y="588" type="curve" smooth="yes"/>
      <point x="82" y="528" type="line"/>
      <point x="53" y="528" type="line"/>
      <point x="71" y="692" type="line"/>
      <point x="166" y="691" type="line" smooth="yes"/>
      <point x="252" y="690"/>
      <point x="316" y="689"/>
      <point x="353" y="689" type="curve" smooth="yes"/>
      <point x="388" y="689"/>
      <point x="456" y="690"/>
      <point x="544" y="691" type="curve" smooth="yes"/>
      <point x="635" y="692" type="line"/>
      <point x="608" y="528" type="line"/>
      <point x="580" y="528" type="line"/>
      <point x="584" y="592" type="line" smooth="yes"/>
      <point x="585" y="602"/>
      <point x="583" y="621"/>
      <point x="580" y="629" type="curve" smooth="yes"/>
      <point x="577" y="641"/>
      <point x="541" y="646"/>
      <point x="463" y="646" type="curve" smooth="yes"/>
    </contour>
    <contour>
      <point x="290" y="-60" type="curve"/>
      <point x="299" y="-78" type="line"/>
      <point x="250" y="-172"/>
      <point x="209" y="-234"/>
      <point x="158" y="-292" type="curve"/>
      <point x="126" y="-305" type="line"/>
      <point x="119" y="-296" type="line"/>
      <point x="166" y="-223"/>
      <point x="191" y="-161"/>
      <point x="201" y="-85" type="curve"/>
      <point x="227" y="-81"/>
      <point x="257" y="-72"/>
    </contour>
  </outline>
</glyph>
<glyph name="tcommaaccent" format="1">
  <advance width="333"/>
  <unicode hex="0163"/>
  <outline>
    <contour>
      <point x="125" y="390" type="line"/>
      <point x="41" y="390" type="line"/>
      <point x="43" y="403" type="line"/>
      <point x="61" y="408"/>
      <point x="87" y="419"/>
      <point x="131" y="440" type="curve"/>
      <point x="156" y="610" type="line"/>
      <point x="187" y="622"/>
      <point x="214" y="634"/>
      <point x="234" y="646" type="curve"/>
      <point x="245" y="631" type="line"/>
      <point x="227" y="577"/>
      <point x="216" y="528"/>
      <point x="200" y="434" type="curve"/>
      <point x="238" y="434"/>
      <point x="272" y="436"/>
      <point x="310" y="440" type="curve"/>
      <point x="299" y="390" type="line"/>
      <point x="192" y="390" type="line"/>
      <point x="179" y="328" type="line"/>
      <point x="150" y="183"/>
      <point x="136" y="102"/>
      <point x="136" y="76" type="curve" smooth="yes"/>
      <point x="136" y="64"/>
      <point x="141" y="56"/>
      <point x="150" y="56" type="curve" smooth="yes"/>
      <point x="161" y="56"/>
      <point x="181" y="66"/>
      <point x="210" y="86" type="curve" smooth="yes"/>
      <point x="255" y="117" type="line"/>
      <point x="265" y="99" type="line"/>
      <point x="249" y="86" type="line"/>
      <point x="234" y="74" type="line" smooth="yes"/>
      <point x="156" y="11"/>
      <point x="121" y="-9"/>
      <point x="86" y="-9" type="curve" smooth="yes"/>
      <point x="67" y="-9"/>
      <point x="56" y="6"/>
      <point x="56" y="31" type="curve" smooth="yes"/>
      <point x="56" y="43"/>
      <point x="58" y="58"/>
      <point x="64" y="86" type="curve" smooth="yes"/>
      <point x="67" y="98"/>
      <point x="68" y="100"/>
      <point x="69" y="107" type="curve" smooth="yes"/>
    </contour>
    <contour>
      <point x="191" y="-60" type="curve"/>
      <point x="200" y="-78" type="line"/>
      <point x="151" y="-172"/>
      <point x="110" y="-234"/>
      <point x="59" y="-292" type="curve"/>
      <point x="27" y="-305" type="line"/>
      <point x="20" y="-296" type="line"/>
      <point x="67" y="-223"/>
      <point x="92" y="-161"/>
      <point x="102" y="-85" type="curve"/>
      <point x="128" y="-81"/>
      <point x="158" y="-72"/>
    </contour>
  </outline>
</glyph>
